{"glyphs":{"0":{"ha":772,"x_min":43,"x_max":722,"o":"m 241 482 q 269 223 241 313 q 382 133 296 133 q 495 223 469 133 q 522 482 522 313 q 495 745 522 660 q 382 831 469 831 q 269 745 296 831 q 241 482 241 660 m 382 990 q 646 858 570 990 q 722 482 722 726 q 646 107 722 239 q 382 -24 570 -24 q 119 107 195 -24 q 43 482 43 239 q 119 858 43 726 q 382 990 195 990 z "},"1":{"ha":772,"x_min":96,"x_max":526,"o":"m 96 678 l 96 810 q 224 822 188 814 q 319 873 283 835 q 357 944 345 900 q 365 983 365 970 l 526 983 l 526 0 l 328 0 l 328 678 l 96 678 z "},"2":{"ha":772,"x_min":43,"x_max":717,"o":"m 43 0 q 89 193 46 106 q 284 401 130 292 q 457 538 418 497 q 517 680 517 603 q 483 783 517 742 q 384 825 448 825 q 264 759 296 825 q 242 638 245 721 l 54 638 q 100 841 59 764 q 374 988 177 988 q 623 902 530 988 q 715 673 715 815 q 650 479 715 564 q 509 353 607 422 l 432 298 q 333 224 359 247 q 288 170 306 201 l 717 170 l 717 0 l 43 0 z "},"3":{"ha":772,"x_min":37,"x_max":717,"o":"m 227 302 q 245 204 227 243 q 374 133 281 133 q 473 172 431 133 q 515 284 515 211 q 437 414 515 381 q 296 432 392 432 l 296 570 q 427 589 390 572 q 492 704 492 617 q 459 795 492 760 q 366 831 426 831 q 266 787 298 831 q 235 671 233 744 l 54 671 q 79 810 57 745 q 154 917 103 868 q 244 970 192 951 q 372 988 296 988 q 600 915 513 988 q 686 720 686 842 q 635 573 686 633 q 567 522 602 536 q 643 477 593 522 q 717 290 717 408 q 630 70 717 165 q 374 -24 544 -24 q 84 112 165 -24 q 37 302 41 184 l 227 302 z "},"4":{"ha":772,"x_min":37,"x_max":726,"o":"m 726 212 l 615 212 l 615 0 l 426 0 l 426 212 l 37 212 l 37 380 l 398 977 l 615 977 l 615 363 l 726 363 l 726 212 m 426 363 l 426 787 l 180 363 l 426 363 z "},"5":{"ha":772,"x_min":37,"x_max":717,"o":"m 229 263 q 273 166 241 200 q 368 132 306 132 q 478 182 440 132 q 515 309 515 233 q 480 436 515 385 q 370 488 445 488 q 309 479 335 488 q 241 419 264 463 l 67 427 l 136 970 l 678 970 l 678 806 l 276 806 l 241 591 q 311 630 286 621 q 413 646 353 646 q 626 564 535 646 q 717 325 717 481 q 629 81 717 189 q 368 -26 542 -26 q 137 50 227 -26 q 37 263 47 125 l 229 263 z "},"6":{"ha":772,"x_min":43,"x_max":723,"o":"m 237 311 q 280 182 237 232 q 389 132 323 132 q 490 180 453 132 q 527 306 527 229 q 485 438 527 392 q 382 484 443 484 q 294 454 332 484 q 237 311 237 410 m 509 736 q 491 788 509 760 q 397 834 460 834 q 262 728 302 834 q 233 556 241 670 q 316 618 269 599 q 425 638 363 638 q 639 549 555 638 q 723 322 723 460 q 641 79 723 184 q 386 -26 559 -26 q 112 130 200 -26 q 43 443 43 251 q 53 626 43 555 q 119 835 70 751 q 229 949 161 906 q 392 993 297 993 q 610 923 529 993 q 702 736 692 852 l 509 736 z "},"7":{"ha":772,"x_min":35,"x_max":732,"o":"m 732 819 q 612 667 689 777 q 482 441 534 557 q 408 217 441 349 q 374 0 374 85 l 174 0 q 347 550 182 264 q 526 797 454 727 l 35 797 l 38 970 l 732 970 l 732 819 z "},"8":{"ha":772,"x_min":37,"x_max":720,"o":"m 237 286 q 275 173 237 213 q 379 133 313 133 q 483 173 446 133 q 521 286 521 213 q 483 400 521 361 q 379 439 444 439 q 276 400 314 439 q 237 286 237 361 m 37 273 q 74 422 37 355 q 184 524 112 490 q 92 626 113 571 q 71 730 71 682 q 151 912 71 837 q 379 988 232 988 q 607 912 526 988 q 688 730 688 837 q 666 626 688 682 q 574 530 645 571 q 683 422 646 490 q 720 273 720 355 q 628 61 720 149 q 371 -26 536 -26 q 121 61 206 -26 q 37 273 37 149 m 255 708 q 288 621 255 654 q 379 587 321 587 q 470 621 438 587 q 503 708 503 654 q 470 799 503 766 q 379 832 438 832 q 288 799 321 832 q 255 708 255 766 z "},"9":{"ha":772,"x_min":41,"x_max":725,"o":"m 41 637 q 133 893 41 795 q 370 991 224 991 q 677 793 594 991 q 725 496 725 680 q 680 199 725 318 q 361 -28 593 -28 q 162 37 250 -28 q 61 228 74 102 l 254 228 q 290 157 260 184 q 370 130 320 130 q 504 236 465 130 q 530 406 525 294 q 474 355 504 373 q 340 323 420 323 q 132 404 223 323 q 41 637 41 485 m 382 480 q 458 503 422 480 q 524 649 524 545 q 485 781 524 732 q 378 830 446 830 q 293 802 328 830 q 237 655 237 759 q 273 524 237 568 q 382 480 309 480 z "},"\u0000":{"ha":0,"x_min":0,"x_max":0,"o":""},"\t":{"ha":386,"x_min":0,"x_max":0,"o":""}," ":{"ha":386,"x_min":0,"x_max":0,"o":""},"!":{"ha":463,"x_min":153,"x_max":365,"o":"m 153 996 l 365 996 l 365 743 l 310 276 l 209 276 l 153 743 l 153 996 m 157 196 l 359 196 l 359 0 l 157 0 l 157 196 z "},"\"":{"ha":659,"x_min":113,"x_max":555,"o":"m 555 1000 l 524 587 l 401 587 l 370 1000 l 555 1000 m 298 1000 l 266 587 l 144 587 l 113 1000 l 298 1000 z "},"#":{"ha":772,"x_min":0,"x_max":771,"o":"m 414 385 l 469 583 l 357 583 l 304 385 l 414 385 m 31 385 l 168 385 l 222 583 l 83 583 l 114 697 l 252 697 l 326 970 l 461 970 l 387 697 l 500 697 l 572 970 l 707 970 l 635 697 l 771 697 l 741 583 l 604 583 l 549 385 l 688 385 l 657 271 l 519 271 l 446 0 l 311 0 l 384 271 l 273 271 l 199 0 l 64 0 l 138 271 l 0 271 l 31 385 z "},"$":{"ha":772,"x_min":38,"x_max":726,"o":"m 418 127 q 496 151 471 134 q 538 259 538 182 q 498 351 538 317 q 418 392 475 371 l 418 127 m 353 836 q 266 804 294 834 q 237 722 237 774 q 280 631 237 665 q 353 597 304 613 l 353 836 m 419 -161 l 353 -161 l 353 -26 q 154 33 220 -11 q 40 298 38 111 l 223 298 q 250 184 233 213 q 353 125 276 138 l 353 414 l 298 431 q 116 536 169 469 q 62 700 62 604 q 83 814 62 763 q 141 903 104 866 q 248 970 189 951 q 353 987 284 981 l 353 1077 l 418 1077 l 418 985 q 591 931 528 977 q 710 696 706 859 l 532 696 q 511 784 526 756 q 418 837 486 832 l 418 578 q 635 480 579 523 q 726 279 726 409 q 601 31 726 109 q 419 -24 524 -16 l 419 -161 z "},"%":{"ha":1235,"x_min":32,"x_max":1196,"o":"m 284 618 q 360 650 329 618 q 392 726 392 682 q 360 803 392 771 q 284 834 329 834 q 208 803 239 834 q 176 726 176 771 q 208 650 176 682 q 284 618 239 618 m 536 726 q 463 548 536 622 q 284 474 389 474 q 106 548 180 474 q 32 726 32 622 q 106 905 32 831 q 284 979 180 979 q 463 905 389 979 q 536 726 536 831 m 1051 233 q 1020 309 1051 277 q 943 340 988 340 q 867 309 899 340 q 836 233 836 277 q 867 156 836 188 q 943 125 899 125 q 1020 156 988 125 q 1051 233 1051 188 m 1196 233 q 1122 54 1196 128 q 943 -20 1048 -20 q 765 54 839 -20 q 691 233 691 128 q 765 411 691 338 q 943 485 839 485 q 1122 411 1048 485 q 1196 233 1196 337 m 836 983 l 939 983 l 391 -26 l 286 -26 l 836 983 z "},"&":{"ha":1003,"x_min":75,"x_max":974,"o":"m 75 264 q 120 418 75 354 q 267 546 165 483 l 288 559 q 220 659 244 608 q 197 764 197 709 q 270 935 197 873 q 460 996 343 996 q 636 933 566 996 q 705 773 705 871 q 664 630 705 685 q 541 528 622 575 l 683 353 q 721 430 707 389 q 734 517 734 471 l 906 517 q 863 334 902 427 q 792 218 841 281 l 974 0 l 739 0 l 670 85 q 576 16 620 38 q 398 -24 499 -24 q 161 65 246 -24 q 75 264 75 155 m 374 771 q 393 714 374 744 q 446 644 406 694 q 505 692 487 673 q 538 772 538 729 q 518 827 538 803 q 456 852 498 852 q 408 838 431 852 q 374 771 374 817 m 268 270 q 308 179 268 220 q 412 138 349 138 q 502 160 459 138 q 570 209 544 182 l 387 435 q 291 351 315 387 q 268 270 268 314 z "},"'":{"ha":330,"x_min":67,"x_max":252,"o":"m 252 1000 l 218 587 l 101 587 l 67 1000 l 252 1000 z "},"(":{"ha":463,"x_min":60,"x_max":446,"o":"m 140 747 q 296 1016 193 872 l 442 1016 l 401 940 q 282 612 315 783 q 260 366 260 499 q 321 -16 260 159 q 446 -280 356 -119 l 302 -280 l 254 -214 q 155 -37 208 -155 q 60 378 60 174 q 140 747 60 564 z "},")":{"ha":463,"x_min":14,"x_max":399,"o":"m 163 1016 q 320 747 267 872 q 399 378 399 564 q 305 -37 399 174 q 205 -214 252 -155 l 157 -280 l 14 -280 q 139 -16 104 -119 q 199 366 199 159 q 178 612 199 499 q 59 940 144 783 l 18 1016 l 163 1016 z "},"*":{"ha":541,"x_min":32,"x_max":496,"o":"m 64 888 l 205 842 l 205 1006 l 323 1006 l 323 842 l 465 888 l 496 787 l 352 743 l 446 608 l 359 546 l 265 673 l 168 546 l 81 608 l 176 743 l 32 787 l 64 888 z "},"+":{"ha":811,"x_min":50,"x_max":784,"o":"m 50 279 l 50 456 l 328 456 l 328 734 l 506 734 l 506 456 l 784 456 l 784 279 l 506 279 l 506 0 l 328 0 l 328 279 l 50 279 z "},",":{"ha":386,"x_min":80,"x_max":289,"o":"m 80 -161 q 166 -106 138 -144 q 197 0 193 -68 l 80 0 l 80 202 l 289 202 l 289 27 q 277 -69 289 -19 q 231 -156 264 -119 q 147 -215 195 -195 q 80 -235 98 -235 l 80 -161 z "},"-":{"ha":463,"x_min":32,"x_max":421,"o":"m 32 479 l 421 479 l 421 296 l 32 296 l 32 479 z "},".":{"ha":386,"x_min":87,"x_max":292,"o":"m 87 202 l 292 202 l 292 0 l 87 0 l 87 202 z "},"/":{"ha":386,"x_min":-76,"x_max":472,"o":"m 311 1030 l 472 1030 l 83 0 l -76 0 l 311 1030 z "},":":{"ha":463,"x_min":157,"x_max":363,"o":"m 157 710 l 363 710 l 363 508 l 157 508 l 157 710 m 157 202 l 363 202 l 363 0 l 157 0 l 157 202 z "},";":{"ha":463,"x_min":157,"x_max":366,"o":"m 157 710 l 363 710 l 363 508 l 157 508 l 157 710 m 157 -161 q 253 -91 226 -141 q 275 0 270 -60 l 157 0 l 157 202 l 366 202 l 366 27 q 354 -70 366 -20 q 309 -156 342 -119 q 225 -215 274 -195 q 157 -235 176 -235 l 157 -161 z "},"<":{"ha":811,"x_min":16,"x_max":814,"o":"m 16 454 l 814 758 l 814 569 l 244 368 l 814 165 l 814 -23 l 16 281 l 16 454 z "},"=":{"ha":811,"x_min":50,"x_max":784,"o":"m 784 615 l 784 437 l 50 437 l 50 615 l 784 615 m 784 298 l 784 120 l 50 120 l 50 298 l 784 298 z "},">":{"ha":811,"x_min":16,"x_max":814,"o":"m 814 281 l 16 -23 l 16 165 l 587 368 l 16 569 l 16 758 l 814 453 l 814 281 z "},"?":{"ha":848,"x_min":83,"x_max":771,"o":"m 331 196 l 533 196 l 533 0 l 331 0 l 331 196 m 83 684 q 218 958 92 878 q 415 1010 298 1010 q 670 937 568 1010 q 771 720 771 863 q 727 571 771 631 q 628 477 701 534 l 580 440 q 528 369 541 410 q 519 289 519 343 l 336 289 q 357 447 340 404 q 448 548 375 491 l 498 587 q 537 627 522 605 q 564 709 564 664 q 534 803 564 760 q 424 845 504 845 q 312 793 345 845 q 279 684 279 741 l 83 684 z "},"@":{"ha":1354,"x_min":135,"x_max":1227,"o":"m 805 616 q 783 676 805 652 q 725 701 762 701 q 604 613 654 701 q 553 443 553 525 q 575 363 553 393 q 640 332 598 332 q 759 443 712 332 q 805 616 805 553 m 596 233 q 459 292 514 233 q 405 456 405 351 q 488 686 405 579 q 693 793 572 793 q 804 754 764 793 q 844 684 833 724 l 868 770 l 996 770 l 909 475 q 895 422 899 439 q 890 392 890 405 q 904 354 890 372 q 947 336 918 336 q 1064 412 1006 336 q 1123 614 1123 488 q 963 882 1123 801 q 737 934 863 934 q 367 793 507 934 q 241 487 241 665 q 389 173 241 289 q 708 71 519 71 q 949 118 837 71 q 1075 189 1010 143 l 1091 201 l 1141 125 q 932 11 1044 50 q 699 -28 820 -28 q 263 147 418 -28 q 135 491 135 292 q 295 868 135 713 q 726 1031 463 1031 q 1080 920 939 1031 q 1227 606 1227 802 q 1134 342 1227 452 q 920 232 1040 232 q 824 267 858 232 q 791 340 791 302 q 791 350 791 345 q 792 363 791 356 q 734 285 766 314 q 596 233 677 233 z "},"A":{"ha":1003,"x_min":35,"x_max":982,"o":"m 379 378 l 633 378 l 508 771 l 379 378 m 392 1000 l 628 1000 l 982 0 l 755 0 l 691 205 l 323 205 l 254 0 l 35 0 l 392 1000 m 509 1000 z "},"B":{"ha":1003,"x_min":109,"x_max":934,"o":"m 309 826 l 309 606 l 554 606 q 661 630 620 606 q 702 718 702 655 q 648 810 702 788 q 528 826 601 826 l 309 826 m 309 440 l 309 174 l 554 174 q 656 191 620 174 q 723 316 723 224 q 659 423 723 394 q 557 440 623 439 l 309 440 m 595 1000 q 855 893 779 997 q 901 741 901 829 q 855 593 901 649 q 779 536 829 562 q 895 448 856 509 q 934 302 934 388 q 889 142 934 213 q 818 64 861 96 q 704 14 770 27 q 562 0 639 0 l 109 0 l 109 1000 l 595 1000 z "},"C":{"ha":1003,"x_min":62,"x_max":951,"o":"m 62 492 q 203 895 62 753 q 513 1019 325 1019 q 882 853 766 1019 q 951 667 947 760 l 743 667 q 690 775 722 739 q 522 840 633 840 q 342 748 408 840 q 276 488 276 656 q 346 236 276 320 q 522 153 415 153 q 690 224 632 153 q 743 340 722 263 l 949 340 q 811 75 922 177 q 525 -28 699 -28 q 186 111 309 -28 q 62 492 62 250 m 507 1030 z "},"D":{"ha":1003,"x_min":106,"x_max":951,"o":"m 309 826 l 309 174 l 501 174 q 707 319 649 174 q 739 510 739 399 q 691 744 739 663 q 501 826 644 826 l 309 826 m 536 1000 q 691 978 629 998 q 861 851 796 943 q 932 690 913 777 q 951 524 951 603 q 871 186 951 325 q 536 0 763 0 l 106 0 l 106 1000 l 536 1000 z "},"E":{"ha":926,"x_min":112,"x_max":869,"o":"m 845 823 l 316 823 l 316 610 l 802 610 l 802 437 l 316 437 l 316 180 l 869 180 l 869 0 l 112 0 l 112 1000 l 845 1000 l 845 823 z "},"F":{"ha":848,"x_min":106,"x_max":814,"o":"m 106 998 l 814 998 l 814 823 l 313 823 l 313 593 l 752 593 l 752 419 l 313 419 l 313 0 l 106 0 l 106 998 z "},"G":{"ha":1080,"x_min":58,"x_max":987,"o":"m 778 688 q 662 831 754 790 q 547 853 610 853 q 349 762 427 853 q 271 488 271 671 q 355 227 271 303 q 547 150 439 150 q 719 211 652 150 q 802 370 786 271 l 570 370 l 570 536 l 987 536 l 987 0 l 848 0 l 827 125 q 719 24 767 54 q 515 -26 636 -26 q 190 111 317 -26 q 58 490 58 250 q 191 879 58 732 q 545 1025 325 1025 q 851 929 735 1025 q 983 688 966 832 l 778 688 m 544 1025 z "},"H":{"ha":1003,"x_min":104,"x_max":909,"o":"m 104 0 l 104 1000 l 311 1000 l 311 618 l 702 618 l 702 1000 l 909 1000 l 909 0 l 702 0 l 702 446 l 311 446 l 311 0 l 104 0 z "},"I":{"ha":386,"x_min":90,"x_max":297,"o":"m 297 0 l 90 0 l 90 1000 l 297 1000 l 297 0 m 193 1019 z "},"J":{"ha":772,"x_min":31,"x_max":671,"o":"m 228 379 l 228 356 q 253 193 231 240 q 351 146 276 146 q 448 197 425 146 q 463 300 463 228 l 463 1000 l 671 1000 l 671 304 q 627 102 671 176 q 358 -24 553 -24 q 97 78 163 -24 q 31 356 31 180 l 31 379 l 228 379 z "},"K":{"ha":1003,"x_min":109,"x_max":991,"o":"m 109 1000 l 315 1000 l 315 588 l 701 1000 l 970 1000 l 561 588 l 991 0 l 723 0 l 414 437 l 315 334 l 315 0 l 109 0 l 109 1000 z "},"L":{"ha":848,"x_min":106,"x_max":810,"o":"m 106 1000 l 315 1000 l 315 180 l 810 180 l 810 0 l 106 0 l 106 1000 z "},"M":{"ha":1157,"x_min":102,"x_max":1069,"o":"m 768 1000 l 1069 1000 l 1069 0 l 874 0 l 874 676 q 875 758 874 705 q 876 839 876 810 l 686 0 l 484 0 l 296 839 q 296 758 296 810 q 297 676 297 705 l 297 0 l 102 0 l 102 1000 l 406 1000 l 588 214 l 768 1000 z "},"N":{"ha":1003,"x_min":102,"x_max":914,"o":"m 102 1000 l 321 1000 l 720 302 l 720 1000 l 914 1000 l 914 0 l 705 0 l 297 710 l 297 0 l 102 0 l 102 1000 m 516 1002 z "},"O":{"ha":1080,"x_min":68,"x_max":1027,"o":"m 548 149 q 745 241 672 149 q 818 501 818 332 q 745 761 818 669 q 548 853 672 853 q 350 762 424 853 q 276 501 276 670 q 350 241 276 332 q 548 149 424 149 m 1027 501 q 876 89 1027 232 q 548 -28 762 -28 q 220 89 334 -28 q 68 501 68 232 q 220 913 68 776 q 548 1030 334 1030 q 876 913 762 1030 q 1027 501 1027 776 m 548 1030 z "},"P":{"ha":926,"x_min":111,"x_max":876,"o":"m 669 682 q 628 793 669 760 q 513 826 587 826 l 318 826 l 318 532 l 513 532 q 628 568 587 532 q 669 682 669 604 m 876 683 q 786 433 876 506 q 530 359 696 359 l 318 359 l 318 0 l 111 0 l 111 1000 l 546 1000 q 786 922 696 1000 q 876 683 876 845 z "},"Q":{"ha":1080,"x_min":68,"x_max":1031,"o":"m 546 149 q 615 158 582 149 q 662 175 633 163 l 561 271 l 669 384 l 770 288 q 803 373 793 336 q 818 501 818 428 q 749 761 818 669 q 548 853 680 853 q 350 765 424 853 q 276 501 276 677 q 382 207 276 296 q 546 149 450 149 m 1027 516 q 994 292 1027 382 q 916 149 968 206 l 1031 41 l 922 -73 l 802 41 q 707 -5 747 8 q 546 -28 640 -28 q 223 89 351 -28 q 68 501 68 229 q 227 916 68 775 q 549 1030 357 1030 q 875 909 743 1030 q 1027 516 1027 768 z "},"R":{"ha":1003,"x_min":111,"x_max":945,"o":"m 315 826 l 315 557 l 551 557 q 657 574 622 557 q 720 686 720 602 q 659 808 720 777 q 557 826 625 826 l 315 826 m 601 1000 q 763 974 706 998 q 859 904 819 950 q 910 820 891 866 q 929 715 929 774 q 893 575 929 644 q 774 477 857 506 q 872 398 844 450 q 901 242 901 347 l 901 175 q 907 82 901 106 q 945 25 915 43 l 945 0 l 715 0 q 701 54 705 33 q 692 140 693 96 l 691 233 q 656 360 690 328 q 530 392 623 392 l 315 392 l 315 0 l 111 0 l 111 1000 l 601 1000 z "},"S":{"ha":926,"x_min":58,"x_max":878,"o":"m 257 309 q 294 206 267 240 q 469 144 345 144 q 589 161 543 144 q 676 277 676 192 q 633 353 676 326 q 496 400 589 380 l 391 424 q 175 500 235 459 q 74 717 74 570 q 172 940 74 851 q 458 1029 269 1029 q 728 945 616 1029 q 845 702 840 861 l 644 702 q 566 830 639 792 q 444 855 517 855 q 315 823 363 855 q 267 732 267 790 q 315 652 267 678 q 445 610 345 634 l 617 569 q 788 496 730 542 q 878 292 878 426 q 773 65 878 155 q 477 -26 668 -26 q 170 63 281 -26 q 58 309 58 153 l 257 309 m 460 1030 z "},"T":{"ha":848,"x_min":22,"x_max":832,"o":"m 832 1000 l 832 823 l 533 823 l 533 0 l 323 0 l 323 823 l 22 823 l 22 1000 l 832 1000 z "},"U":{"ha":1003,"x_min":106,"x_max":909,"o":"m 106 1000 l 318 1000 l 318 385 q 342 235 318 282 q 508 151 380 151 q 673 235 635 151 q 697 385 697 282 l 697 1000 l 909 1000 l 909 385 q 860 137 909 226 q 508 -26 768 -26 q 155 137 248 -26 q 106 385 106 226 l 106 1000 m 508 1000 z "},"V":{"ha":926,"x_min":32,"x_max":908,"o":"m 691 1000 l 908 1000 l 567 0 l 370 0 l 32 1000 l 255 1000 l 472 241 l 691 1000 z "},"W":{"ha":1311,"x_min":20,"x_max":1291,"o":"m 242 1000 l 374 427 l 403 268 l 432 424 l 545 1000 l 765 1000 l 884 427 l 914 268 l 945 421 l 1078 1000 l 1291 1000 l 1009 0 l 810 0 l 689 585 l 654 778 l 618 585 l 498 0 l 304 0 l 20 1000 l 242 1000 z "},"X":{"ha":926,"x_min":22,"x_max":909,"o":"m 265 0 l 22 0 l 344 509 l 38 1000 l 288 1000 l 466 675 l 649 1000 l 890 1000 l 585 517 l 909 0 l 656 0 l 466 340 l 265 0 z "},"Y":{"ha":926,"x_min":24,"x_max":913,"o":"m 676 1000 l 913 1000 l 578 376 l 578 0 l 370 0 l 370 376 l 24 1000 l 270 1000 l 477 564 l 676 1000 m 469 1000 z "},"Z":{"ha":848,"x_min":35,"x_max":813,"o":"m 35 176 l 551 823 l 48 823 l 48 1000 l 812 1000 l 812 832 l 289 176 l 813 176 l 813 0 l 35 0 l 35 176 m 430 1000 z "},"[":{"ha":463,"x_min":87,"x_max":427,"o":"m 87 1009 l 427 1009 l 427 868 l 270 868 l 270 -125 l 427 -125 l 427 -267 l 87 -267 l 87 1009 z "},"\\":{"ha":386,"x_min":-76,"x_max":472,"o":"m 83 1030 l 472 0 l 311 0 l -76 1030 l 83 1030 z "},"]":{"ha":463,"x_min":32,"x_max":372,"o":"m 32 -125 l 189 -125 l 189 871 l 32 871 l 32 1009 l 372 1009 l 372 -267 l 32 -267 l 32 -125 z "},"^":{"ha":811,"x_min":94,"x_max":745,"o":"m 496 1000 l 745 400 l 575 400 l 421 784 l 265 400 l 94 400 l 344 1000 l 496 1000 z "},"_":{"ha":772,"x_min":0,"x_max":772,"o":"m 0 -174 l 0 -105 l 772 -105 l 772 -174 l 0 -174 z "},"`":{"ha":463,"x_min":-34,"x_max":311,"o":"m 311 839 l 172 839 l -34 1042 l 181 1042 l 311 839 m 197 759 z "},"a":{"ha":772,"x_min":40,"x_max":732,"o":"m 498 359 q 461 341 479 348 q 410 328 442 334 l 366 319 q 279 293 305 309 q 234 211 234 267 q 261 139 234 161 q 328 117 289 117 q 443 154 391 117 q 498 288 496 191 l 498 359 m 380 450 q 457 467 434 456 q 498 522 498 484 q 467 584 498 567 q 374 602 435 602 q 277 568 306 602 q 250 500 257 543 l 64 500 q 118 659 70 597 q 381 757 195 757 q 597 709 503 757 q 691 527 691 661 l 691 188 q 692 102 691 153 q 704 51 694 64 q 732 28 713 37 l 732 0 l 522 0 q 510 42 513 22 q 505 87 507 62 q 412 13 465 43 q 271 -23 350 -23 q 105 34 171 -23 q 40 197 40 92 q 145 394 40 333 q 315 441 203 427 l 380 450 m 391 759 z "},"b":{"ha":848,"x_min":83,"x_max":800,"o":"m 490 755 q 718 650 635 755 q 800 379 800 545 q 719 94 800 207 q 492 -20 637 -20 q 345 17 400 -20 q 273 93 311 39 l 273 0 l 83 0 l 83 998 l 276 998 l 276 643 q 357 722 313 694 q 490 755 409 755 m 440 140 q 556 200 515 140 q 597 359 597 260 q 577 489 597 437 q 435 587 538 587 q 290 491 330 587 q 270 359 270 440 q 312 202 270 264 q 440 140 354 140 z "},"c":{"ha":772,"x_min":48,"x_max":730,"o":"m 532 474 q 504 549 526 515 q 403 593 471 593 q 269 496 305 593 q 250 359 250 445 q 269 229 250 278 q 399 136 304 136 q 496 173 467 136 q 530 268 524 210 l 728 268 q 664 101 721 180 q 395 -26 573 -26 q 132 80 216 -26 q 48 355 48 186 q 141 651 48 545 q 397 757 234 757 q 625 694 536 757 q 730 474 713 632 l 532 474 m 401 759 z "},"d":{"ha":848,"x_min":43,"x_max":763,"o":"m 363 757 q 482 727 430 757 q 567 646 534 698 l 567 998 l 763 998 l 763 0 l 575 0 l 575 102 q 481 7 534 37 q 349 -23 428 -23 q 131 82 220 -23 q 43 351 43 186 q 130 648 43 540 q 363 757 217 757 m 405 140 q 530 201 487 140 q 572 359 572 262 q 504 553 572 494 q 406 588 462 588 q 282 524 321 588 q 242 365 242 460 q 282 201 242 262 q 405 140 323 140 z "},"e":{"ha":772,"x_min":32,"x_max":734,"o":"m 382 600 q 278 557 315 600 q 231 444 241 515 l 532 444 q 485 560 527 520 q 382 600 444 600 m 382 759 q 548 724 474 759 q 670 615 622 690 q 726 463 713 549 q 732 316 734 412 l 227 316 q 296 160 231 205 q 393 132 336 132 q 490 166 452 132 q 526 217 510 184 l 723 217 q 654 83 715 151 q 389 -24 559 -24 q 140 66 248 -24 q 32 362 32 157 q 129 656 32 554 q 382 759 227 759 m 395 759 z "},"f":{"ha":463,"x_min":14,"x_max":441,"o":"m 363 1010 q 396 1009 381 1010 q 437 1006 411 1008 l 437 848 q 382 851 420 850 q 329 834 344 852 q 315 795 315 817 q 315 732 315 773 l 441 732 l 441 596 l 315 596 l 315 0 l 122 0 l 122 596 l 14 596 l 14 732 l 120 732 l 120 780 q 160 943 120 899 q 363 1010 202 1010 z "},"g":{"ha":848,"x_min":45,"x_max":758,"o":"m 408 159 q 522 210 475 159 q 569 373 569 261 q 525 533 569 478 q 406 588 480 588 q 265 492 304 588 q 245 367 245 441 q 267 252 245 302 q 408 159 306 159 m 359 757 q 456 740 415 757 q 570 633 527 711 l 570 739 l 758 739 l 758 38 q 710 -178 758 -105 q 393 -302 627 -302 q 161 -247 251 -302 q 62 -81 72 -191 l 273 -81 q 299 -130 281 -115 q 404 -156 330 -156 q 544 -86 509 -156 q 567 64 567 -41 l 567 112 q 507 41 539 64 q 357 -3 450 -3 q 130 97 215 -3 q 45 368 45 197 q 127 645 45 532 q 359 757 209 757 m 421 759 z "},"h":{"ha":848,"x_min":92,"x_max":758,"o":"m 498 758 q 622 734 566 758 q 714 662 678 711 q 751 577 745 621 q 758 434 758 533 l 758 0 l 561 0 l 561 450 q 541 546 561 509 q 440 597 514 597 q 324 546 363 597 q 284 400 284 495 l 284 0 l 92 0 l 92 996 l 284 996 l 284 643 q 381 733 326 707 q 498 758 437 758 z "},"i":{"ha":386,"x_min":93,"x_max":289,"o":"m 289 827 l 93 827 l 93 1006 l 289 1006 l 289 827 m 93 739 l 289 739 l 289 0 l 93 0 l 93 739 z "},"j":{"ha":386,"x_min":6,"x_max":292,"o":"m 292 827 l 99 827 l 99 1006 l 292 1006 l 292 827 m 6 -142 q 29 -143 22 -143 q 41 -144 36 -144 q 84 -130 70 -144 q 99 -76 99 -116 l 99 736 l 292 736 l 292 -79 q 248 -245 292 -191 q 75 -298 204 -298 q 49 -298 66 -298 q 6 -296 32 -297 l 6 -142 z "},"k":{"ha":772,"x_min":88,"x_max":768,"o":"m 88 996 l 278 996 l 278 458 l 519 736 l 758 736 l 500 453 l 768 0 l 535 0 l 358 316 l 278 233 l 278 0 l 88 0 l 88 996 z "},"l":{"ha":386,"x_min":94,"x_max":288,"o":"m 288 0 l 94 0 l 94 1000 l 288 1000 l 288 0 z "},"m":{"ha":1235,"x_min":87,"x_max":1147,"o":"m 916 755 q 1013 736 965 755 q 1099 670 1060 718 q 1141 575 1130 631 q 1147 466 1147 538 l 1146 0 l 948 0 l 948 471 q 935 540 948 513 q 840 591 909 591 q 729 525 760 591 q 713 440 713 490 l 713 0 l 519 0 l 519 440 q 505 536 519 506 q 410 589 481 589 q 298 536 327 589 q 283 445 283 505 l 283 0 l 87 0 l 87 738 l 275 738 l 275 630 q 342 712 311 688 q 488 755 399 755 q 625 718 573 755 q 689 629 667 684 q 783 725 727 694 q 916 755 843 755 z "},"n":{"ha":848,"x_min":92,"x_max":760,"o":"m 500 757 q 687 697 614 757 q 760 498 760 637 l 760 0 l 562 0 l 562 450 q 547 539 562 508 q 438 596 518 596 q 303 513 340 596 q 284 400 284 469 l 284 0 l 92 0 l 92 738 l 278 738 l 278 630 q 349 712 315 687 q 500 757 408 757 m 429 759 z "},"o":{"ha":848,"x_min":45,"x_max":800,"o":"m 422 136 q 552 197 507 136 q 597 368 597 257 q 552 539 597 479 q 422 600 507 600 q 291 539 337 600 q 245 368 245 479 q 291 197 245 257 q 422 136 337 136 m 800 368 q 707 90 800 205 q 422 -26 613 -26 q 138 90 232 -26 q 45 368 45 205 q 138 646 45 528 q 422 763 232 763 q 707 646 613 763 q 800 368 800 528 m 422 759 z "},"p":{"ha":848,"x_min":85,"x_max":799,"o":"m 600 370 q 561 521 600 455 q 434 587 522 587 q 290 487 329 587 q 269 353 269 434 q 338 172 269 224 q 434 141 378 141 q 557 203 515 141 q 600 370 600 266 m 490 755 q 709 660 619 755 q 799 379 799 564 q 711 81 799 184 q 485 -21 623 -21 q 338 23 397 -21 q 276 94 307 47 l 276 -291 l 85 -291 l 85 739 l 270 739 l 270 630 q 336 706 301 678 q 490 755 401 755 z "},"q":{"ha":848,"x_min":41,"x_max":758,"o":"m 404 142 q 545 228 503 142 q 572 370 572 284 q 549 492 572 438 q 404 588 508 588 q 287 532 331 588 q 242 361 242 475 q 262 235 242 284 q 404 142 300 142 m 355 758 q 504 713 447 758 q 572 628 537 687 l 572 738 l 758 738 l 758 -293 l 567 -293 l 567 92 q 493 12 545 47 q 349 -23 440 -23 q 131 79 221 -23 q 41 353 41 182 q 131 648 41 537 q 355 758 222 758 z "},"r":{"ha":541,"x_min":88,"x_max":517,"o":"m 492 757 q 501 756 497 757 q 517 755 505 756 l 517 557 q 485 560 499 559 q 462 561 471 561 q 305 485 345 561 q 283 353 283 442 l 283 0 l 88 0 l 88 739 l 273 739 l 273 610 q 351 711 317 684 q 492 757 405 757 z "},"s":{"ha":772,"x_min":45,"x_max":720,"o":"m 241 236 q 267 163 247 184 q 400 124 303 124 q 491 141 457 124 q 524 192 524 158 q 497 241 524 224 q 296 300 470 258 q 119 378 170 331 q 67 511 67 424 q 148 687 67 613 q 374 760 228 760 q 599 705 512 760 q 699 514 686 650 l 506 514 q 485 573 502 551 q 376 612 453 612 q 287 593 313 612 q 260 547 260 573 q 288 498 260 513 q 490 445 317 483 q 663 363 605 418 q 720 224 720 307 q 638 44 720 114 q 385 -25 556 -25 q 128 48 211 -25 q 45 236 45 122 l 241 236 m 389 759 z "},"t":{"ha":463,"x_min":14,"x_max":429,"o":"m 14 595 l 14 732 l 117 732 l 117 939 l 309 939 l 309 732 l 429 732 l 429 595 l 309 595 l 309 204 q 320 148 309 159 q 391 136 332 136 q 409 137 399 136 q 429 138 419 137 l 429 -7 l 337 -10 q 150 37 200 -15 q 117 140 117 71 l 117 595 l 14 595 z "},"u":{"ha":848,"x_min":85,"x_max":752,"o":"m 283 739 l 283 294 q 298 199 283 231 q 401 142 324 142 q 537 222 500 142 q 556 337 556 266 l 556 739 l 752 739 l 752 0 l 564 0 l 564 104 q 551 84 562 101 q 525 54 540 67 q 437 -1 479 14 q 338 -16 395 -16 q 117 102 174 -16 q 85 294 85 167 l 85 739 l 283 739 m 418 759 z "},"v":{"ha":772,"x_min":18,"x_max":753,"o":"m 546 739 l 753 739 l 487 0 l 283 0 l 18 739 l 235 739 l 389 194 l 546 739 z "},"w":{"ha":1080,"x_min":9,"x_max":1064,"o":"m 439 739 l 635 739 l 747 207 l 863 739 l 1064 739 l 850 0 l 651 0 l 535 538 l 418 0 l 217 0 l 9 739 l 217 739 l 332 209 l 439 739 z "},"x":{"ha":772,"x_min":18,"x_max":749,"o":"m 18 0 l 270 374 l 28 738 l 265 738 l 389 524 l 509 738 l 739 738 l 496 378 l 749 0 l 508 0 l 380 222 l 252 0 l 18 0 z "},"y":{"ha":772,"x_min":14,"x_max":749,"o":"m 120 -142 l 144 -143 q 199 -141 173 -144 q 242 -125 224 -138 q 274 -77 259 -114 q 286 -33 288 -41 l 14 739 l 229 739 l 391 194 l 543 739 l 749 739 l 495 12 q 379 -249 422 -198 q 208 -299 336 -299 q 167 -299 182 -299 q 120 -296 151 -298 l 120 -142 m 382 759 z "},"z":{"ha":694,"x_min":22,"x_max":661,"o":"m 48 582 l 48 739 l 648 739 l 648 578 l 273 159 l 661 159 l 661 0 l 22 0 l 22 151 l 401 582 l 48 582 m 348 759 z "},"{":{"ha":541,"x_min":0,"x_max":432,"o":"m 141 153 q 90 283 141 238 q 0 328 58 311 l 0 410 q 93 459 66 432 q 141 602 141 506 l 141 784 q 153 857 141 819 q 222 961 173 922 q 327 1008 267 996 q 432 1016 363 1015 l 432 908 q 355 876 376 896 q 324 766 324 844 l 324 609 q 304 488 324 533 q 168 366 269 413 q 291 279 260 329 q 324 142 323 230 l 324 -29 q 361 -138 324 -104 q 432 -172 381 -157 l 432 -280 l 384 -279 q 214 -221 287 -276 q 141 -60 141 -165 l 141 153 z "},"|":{"ha":389,"x_min":72,"x_max":250,"o":"m 250 1009 l 250 0 l 72 0 l 72 1009 l 250 1009 z "},"}":{"ha":541,"x_min":31,"x_max":463,"o":"m 31 -280 l 31 -172 q 102 -137 81 -157 q 138 -29 136 -103 l 138 142 q 175 285 138 239 q 294 366 212 332 q 171 465 205 410 q 138 609 138 520 l 138 766 q 114 869 138 842 q 31 908 90 896 l 31 1016 q 135 1008 98 1015 q 241 961 195 996 q 304 874 286 926 q 321 784 321 823 l 321 602 q 366 460 321 505 q 463 410 393 433 l 463 328 q 375 286 405 311 q 321 153 321 239 l 321 -60 q 250 -219 321 -163 q 79 -279 179 -276 l 31 -280 z "},"~":{"ha":811,"x_min":3,"x_max":827,"o":"m 3 207 q 36 346 14 288 q 88 441 57 404 q 157 497 121 481 q 229 513 192 513 q 272 509 245 513 q 350 488 314 502 l 508 427 q 562 412 536 416 q 602 408 588 408 q 673 443 647 408 q 712 527 700 477 l 827 527 q 752 311 809 401 q 600 220 696 220 q 559 224 581 220 q 463 253 519 230 l 321 307 q 273 320 302 314 q 231 326 245 326 q 163 297 193 326 q 120 207 133 267 l 3 207 z "}," ":{"ha":386,"x_min":0,"x_max":0,"o":""},"¡":{"ha":463,"x_min":153,"x_max":365,"o":"m 365 -260 l 153 -260 l 153 -7 l 207 459 l 309 459 l 365 -7 l 365 -260 m 359 540 l 157 540 l 157 736 l 359 736 l 359 540 z "},"¢":{"ha":772,"x_min":47,"x_max":730,"o":"m 416 591 q 392 593 404 593 q 287 524 324 593 q 249 361 249 454 q 266 237 249 282 q 300 175 282 192 l 416 591 m 47 358 q 142 649 47 541 q 385 757 237 757 q 428 755 416 757 q 461 750 441 754 l 495 873 l 567 873 l 527 736 q 646 665 600 711 q 730 474 716 596 l 532 474 q 507 541 524 515 q 480 570 497 559 l 361 140 q 380 136 372 138 q 398 135 389 135 q 482 167 444 135 q 530 268 520 199 l 728 268 q 637 57 716 141 q 380 -28 558 -28 q 347 -26 360 -28 q 315 -23 334 -25 l 275 -166 l 199 -166 l 249 -2 q 105 123 163 31 q 47 358 47 216 z "},"£":{"ha":772,"x_min":45,"x_max":750,"o":"m 45 119 q 146 204 94 145 q 198 319 198 262 q 187 387 198 349 q 167 445 181 408 l 46 445 l 46 521 l 123 521 q 77 628 92 582 q 62 728 62 675 q 149 916 62 833 q 395 998 235 998 q 626 925 528 998 q 730 676 724 851 l 546 676 q 515 785 539 743 q 393 842 479 842 q 294 803 330 842 q 257 713 257 764 q 270 649 257 683 q 328 521 283 616 l 522 521 l 522 445 l 357 445 q 361 401 359 418 q 363 366 363 383 q 323 245 363 300 q 222 140 298 210 q 302 165 276 159 q 382 176 343 176 q 430 172 407 176 q 480 161 454 168 l 508 152 q 539 144 526 146 q 560 142 551 142 q 633 160 591 142 q 694 191 658 170 l 750 40 q 655 -3 716 18 q 538 -24 594 -24 q 475 -17 508 -24 q 405 3 443 -9 l 366 16 q 325 28 341 24 q 269 33 298 33 q 203 21 239 33 q 119 -16 180 12 l 45 119 z "},"¤":{"ha":772,"x_min":37,"x_max":735,"o":"m 227 486 q 227 453 227 486 q 273 374 227 420 q 386 328 319 328 q 498 374 452 328 q 545 486 545 420 q 498 599 545 553 q 386 645 452 645 q 273 599 319 645 q 227 486 227 553 m 83 486 q 83 527 83 486 q 132 646 83 568 l 37 741 l 132 836 l 227 741 q 386 789 304 789 q 545 741 467 789 l 640 836 l 735 741 l 640 646 q 688 486 688 568 q 640 327 688 405 l 735 232 l 640 137 l 545 232 q 386 184 467 184 q 227 232 304 184 l 132 137 l 37 232 l 132 327 q 83 486 83 405 z "},"¥":{"ha":772,"x_min":-15,"x_max":787,"o":"m 787 970 l 633 651 l 730 651 l 730 559 l 588 559 l 515 411 l 707 411 l 707 319 l 490 319 l 490 0 l 292 0 l 292 319 l 77 319 l 77 411 l 267 411 l 193 559 l 48 559 l 48 651 l 148 651 l -15 970 l 215 970 l 395 548 l 567 970 l 787 970 z "},"¦":{"ha":389,"x_min":72,"x_max":250,"o":"m 72 612 l 72 1009 l 250 1009 l 250 612 l 72 612 m 250 0 l 72 0 l 72 398 l 250 398 l 250 0 z "},"§":{"ha":772,"x_min":44,"x_max":721,"o":"m 174 589 q 127 644 152 604 q 101 752 101 692 q 173 926 101 853 q 384 1000 245 1000 q 618 891 549 1000 q 662 745 656 833 l 487 745 q 467 810 482 786 q 375 852 439 852 q 305 831 332 852 q 278 770 278 810 q 326 701 278 724 q 500 620 373 678 q 721 378 721 515 q 671 235 721 292 q 589 176 643 204 q 645 115 627 144 q 676 -1 676 66 q 587 -199 676 -131 q 386 -267 497 -267 q 181 -207 265 -267 q 85 -7 96 -146 l 268 -7 q 295 -79 277 -57 q 391 -117 324 -117 q 460 -92 431 -117 q 490 -27 490 -67 q 459 36 490 9 q 286 135 429 63 q 117 235 162 196 q 44 389 44 298 q 93 529 44 473 q 174 589 121 562 m 552 330 q 519 389 552 361 q 471 419 502 403 l 268 522 q 218 478 233 507 q 208 437 208 459 q 237 378 208 404 q 297 340 254 363 l 490 239 q 528 267 512 249 q 552 330 552 294 z "},"¨":{"ha":463,"x_min":-29,"x_max":419,"o":"m 242 1013 l 419 1013 l 419 852 l 242 852 l 242 1013 m -29 1013 l 148 1013 l 148 852 l -29 852 l -29 1013 m 195 759 z "},"©":{"ha":1023,"x_min":18,"x_max":1017,"o":"m 517 914 q 224 789 345 914 q 104 500 104 667 q 226 205 104 326 q 517 83 347 83 q 808 205 688 83 q 929 500 929 328 q 809 789 929 667 q 517 914 688 914 m 1017 500 q 867 141 1017 287 q 517 0 722 0 q 162 144 307 0 q 18 500 18 289 q 174 864 18 719 q 517 1000 320 1000 q 871 853 724 1000 q 1017 500 1017 707 m 770 416 q 678 251 749 298 q 530 203 606 203 q 333 285 416 203 q 250 498 250 366 q 321 709 250 622 q 517 795 393 795 q 655 763 597 795 q 773 578 750 710 l 646 580 q 597 662 634 641 q 528 682 566 682 q 436 635 472 682 q 400 495 400 589 q 440 360 400 402 q 535 318 479 318 q 612 346 586 318 q 646 416 638 374 l 770 416 z "},"ª":{"ha":514,"x_min":27,"x_max":477,"o":"m 326 793 q 304 782 314 785 q 273 774 294 778 l 241 770 q 173 745 192 762 q 153 703 153 728 q 172 662 153 675 q 218 648 190 648 q 269 659 242 648 q 297 676 287 667 q 317 699 310 686 q 326 750 324 713 l 326 793 m 283 852 q 314 863 302 854 q 326 888 326 872 q 294 932 326 920 q 244 939 276 939 q 191 923 208 939 q 165 878 173 908 l 43 878 q 80 974 52 939 q 241 1030 127 1030 q 368 1014 324 1030 q 450 882 450 983 l 450 663 q 455 619 450 637 q 477 595 460 601 l 477 570 l 342 570 q 334 594 337 582 q 331 622 331 606 q 272 578 296 591 q 180 556 230 556 q 50 614 87 556 q 27 692 27 647 q 83 805 27 766 q 196 840 119 831 l 283 852 z "},"«":{"ha":772,"x_min":119,"x_max":651,"o":"m 119 463 l 351 662 l 351 500 l 212 382 l 351 264 l 351 102 l 119 301 l 119 463 m 419 463 l 651 662 l 651 500 l 513 382 l 651 264 l 651 102 l 419 301 l 419 463 z "},"¬":{"ha":811,"x_min":50,"x_max":784,"o":"m 784 615 l 784 120 l 606 120 l 606 437 l 50 437 l 50 615 l 784 615 z "},"­":{"ha":463,"x_min":32,"x_max":421,"o":"m 32 479 l 421 479 l 421 296 l 32 296 l 32 479 z "},"®":{"ha":1023,"x_min":18,"x_max":1017,"o":"m 517 914 q 224 789 345 914 q 104 500 104 667 q 226 205 104 326 q 517 83 347 83 q 808 205 688 83 q 929 500 929 328 q 809 789 929 667 q 517 914 688 914 m 1017 500 q 867 141 1017 287 q 517 0 722 0 q 162 144 307 0 q 18 500 18 289 q 174 864 18 719 q 517 1000 320 1000 q 871 853 724 1000 q 1017 500 1017 707 m 608 604 q 563 667 608 649 q 479 678 533 678 l 444 678 l 444 517 l 500 517 q 579 538 551 517 q 608 604 608 558 m 298 222 l 298 776 q 453 775 350 776 q 567 774 555 775 q 676 746 633 770 q 750 614 750 705 q 711 513 750 544 q 615 475 672 481 q 694 444 667 465 q 743 319 743 404 l 743 270 q 744 254 743 262 q 747 237 745 245 l 752 222 l 614 222 q 605 298 607 248 q 596 366 603 349 q 555 407 585 395 q 506 416 539 414 l 474 418 l 444 418 l 444 222 l 298 222 z "},"¯":{"ha":463,"x_min":-45,"x_max":437,"o":"m -45 985 l 437 985 l 437 882 l -45 882 l -45 985 z "},"°":{"ha":555,"x_min":64,"x_max":502,"o":"m 283 990 q 328 990 283 990 q 437 925 372 990 q 502 771 502 861 q 437 617 502 682 q 283 552 372 552 q 129 617 193 552 q 64 771 64 682 q 129 925 64 861 q 283 990 193 990 m 174 771 q 174 748 174 771 q 205 694 174 726 q 283 662 237 662 q 360 694 328 662 q 392 771 392 726 q 360 848 392 817 q 283 880 328 880 q 205 848 237 880 q 174 771 174 817 z "},"±":{"ha":762,"x_min":50,"x_max":784,"o":"m 784 167 l 784 0 l 50 0 l 50 167 l 784 167 m 50 384 l 50 549 l 328 549 l 328 734 l 506 734 l 506 549 l 784 549 l 784 384 l 506 384 l 506 210 l 328 210 l 328 384 l 50 384 z "},"²":{"ha":463,"x_min":18,"x_max":454,"o":"m 326 806 q 302 870 326 848 q 239 892 279 892 q 161 856 181 892 q 148 781 149 834 l 25 781 q 83 939 27 887 q 237 990 138 990 q 392 940 329 990 q 454 802 454 890 q 423 700 454 745 q 319 607 392 654 l 270 576 q 222 544 240 557 q 176 500 185 517 l 454 500 l 454 393 l 18 393 q 172 637 18 532 q 297 734 269 702 q 326 806 326 766 z "},"³":{"ha":463,"x_min":12,"x_max":454,"o":"m 136 578 q 151 515 139 535 q 233 477 174 477 q 281 490 258 477 q 324 569 324 513 q 281 643 324 625 q 181 657 254 654 l 181 739 q 266 751 241 741 q 309 821 309 769 q 285 877 309 858 q 226 897 261 897 q 163 870 185 897 q 141 800 141 843 l 25 800 q 89 949 22 892 q 231 990 140 990 q 380 946 325 990 q 435 829 435 901 q 414 756 435 785 q 358 710 393 728 q 425 673 395 705 q 454 574 454 641 q 392 434 454 484 q 241 384 329 384 q 75 430 138 384 q 12 578 12 475 l 136 578 z "},"´":{"ha":463,"x_min":80,"x_max":426,"o":"m 426 1042 l 220 839 l 80 839 l 210 1042 l 426 1042 m 195 759 z "},"µ":{"ha":800,"x_min":-36,"x_max":823,"o":"m 353 739 l 265 245 q 264 235 264 241 q 263 224 263 230 q 296 160 263 178 q 362 142 329 142 q 453 171 411 142 q 519 237 495 199 q 547 309 535 264 q 576 452 558 353 l 630 739 l 823 739 l 691 1 l 513 1 l 532 125 q 439 27 501 76 q 304 -22 377 -22 q 254 -14 276 -22 q 220 5 231 -5 l 161 -322 l -36 -322 l 157 739 l 353 739 z "},"¶":{"ha":772,"x_min":-41,"x_max":729,"o":"m 644 -251 l 507 -251 l 507 884 l 374 884 l 374 -251 l 237 -251 l 237 336 q 34 423 110 336 q -41 659 -41 511 q 42 902 -41 804 q 288 1000 125 1000 l 729 1000 l 729 884 l 644 884 l 644 -251 z "},"·":{"ha":386,"x_min":77,"x_max":304,"o":"m 304 487 q 271 407 304 440 q 191 374 237 374 q 110 407 144 374 q 77 487 77 440 q 110 566 77 533 q 189 600 143 600 q 270 567 236 600 q 304 487 304 534 z "},"¸":{"ha":463,"x_min":12,"x_max":340,"o":"m 220 -81 q 308 -107 275 -81 q 340 -184 340 -134 q 290 -283 340 -247 q 159 -319 239 -319 q 75 -305 124 -319 q 12 -283 53 -298 l 38 -225 q 91 -240 77 -237 q 144 -248 123 -248 q 202 -231 184 -248 q 220 -195 220 -214 q 200 -155 220 -166 q 158 -143 180 -143 q 132 -146 145 -143 q 101 -155 118 -149 l 14 -75 l 154 0 l 228 0 l 168 -89 q 200 -82 191 -84 q 220 -81 210 -81 z "},"¹":{"ha":463,"x_min":54,"x_max":340,"o":"m 54 800 l 54 879 q 150 888 129 882 q 186 906 171 895 q 217 940 205 920 q 229 983 229 960 l 340 983 l 340 393 l 205 393 l 205 800 l 54 800 z "},"º":{"ha":507,"x_min":9,"x_max":500,"o":"m 255 654 q 284 654 255 654 q 340 692 313 654 q 368 793 368 730 q 340 895 368 857 q 255 932 313 932 q 169 895 197 932 q 140 793 140 857 q 169 692 140 730 q 255 654 197 654 m 500 793 q 500 740 500 793 q 435 621 500 686 q 255 556 370 556 q 75 621 140 556 q 9 793 9 686 q 75 966 9 901 q 255 1031 140 1031 q 435 966 370 1031 q 500 793 500 901 z "},"»":{"ha":772,"x_min":0,"x_max":532,"o":"m 532 301 l 300 102 l 300 264 l 439 382 l 300 500 l 300 662 l 532 463 l 532 301 m 232 301 l 0 102 l 0 264 l 138 382 l 0 500 l 0 662 l 232 463 l 232 301 z "},"¼":{"ha":1158,"x_min":61,"x_max":1105,"o":"m 1105 127 l 1040 127 l 1040 0 l 911 0 l 911 127 l 657 127 l 657 228 l 893 585 l 1040 585 l 1040 217 l 1105 217 l 1105 127 m 911 217 l 911 469 l 750 217 l 911 217 m 844 980 l 953 980 l 359 -26 l 250 -26 l 844 980 m 61 800 l 61 879 q 173 897 138 883 q 236 983 236 921 l 347 983 l 347 393 l 212 393 l 212 800 l 61 800 z "},"½":{"ha":1158,"x_min":32,"x_max":1099,"o":"m 783 980 l 892 980 l 298 -26 l 189 -26 l 783 980 m 32 800 l 32 879 q 131 890 107 882 q 169 909 154 897 q 199 948 191 926 q 207 983 207 970 l 318 983 l 318 393 l 183 393 l 183 800 l 32 800 m 970 412 q 948 474 970 450 q 883 498 926 498 q 805 460 825 498 q 792 387 793 439 l 670 387 q 730 544 670 485 q 882 596 787 596 q 1040 543 981 596 q 1099 408 1099 490 q 1065 302 1099 349 q 966 215 1031 255 l 914 183 q 888 166 898 173 q 863 148 879 159 q 839 127 850 138 q 821 106 827 116 l 1099 106 l 1099 0 l 662 0 q 818 244 664 142 q 946 345 922 317 q 970 412 970 373 z "},"¾":{"ha":1158,"x_min":53,"x_max":1138,"o":"m 176 578 q 191 517 178 539 q 273 477 214 477 q 323 490 300 477 q 365 570 365 513 q 320 644 365 625 q 222 657 294 654 l 222 739 q 307 751 283 741 q 349 824 349 770 q 328 874 349 851 q 266 897 307 897 q 194 860 214 897 q 181 800 183 839 l 66 800 q 136 955 62 899 q 271 990 186 990 q 421 945 366 990 q 475 832 475 901 q 456 759 475 787 q 398 710 437 730 q 457 675 419 711 q 495 572 495 639 q 434 435 495 487 q 281 384 372 384 q 87 459 141 384 q 53 578 58 500 l 176 578 m 1138 127 l 1072 127 l 1072 0 l 943 0 l 943 127 l 689 127 l 689 228 l 926 585 l 1072 585 l 1072 217 l 1138 217 l 1138 127 m 943 217 l 943 469 l 783 217 l 943 217 m 888 980 l 998 980 l 408 -26 l 298 -26 l 888 980 z "},"¿":{"ha":848,"x_min":74,"x_max":762,"o":"m 514 540 l 311 540 l 311 736 l 514 736 l 514 540 m 762 51 q 652 -207 753 -139 q 431 -274 550 -274 q 175 -200 275 -274 q 74 16 74 -126 q 117 165 74 104 q 217 258 144 202 l 265 296 q 317 367 304 326 q 326 446 326 393 l 509 446 q 487 289 505 334 q 397 188 469 245 l 347 149 q 290 79 305 116 q 281 25 281 56 q 317 -73 281 -37 q 416 -110 353 -110 q 546 -35 508 -110 q 566 51 566 5 l 762 51 z "},"À":{"ha":1003,"x_min":35,"x_max":982,"o":"m 379 378 l 633 378 l 508 771 l 379 378 m 392 1000 l 628 1000 l 982 0 l 755 0 l 691 205 l 323 205 l 254 0 l 35 0 l 392 1000 m 509 1000 m 623 1080 l 484 1080 l 278 1282 l 493 1282 l 623 1080 m 509 1000 z "},"Á":{"ha":1003,"x_min":35,"x_max":982,"o":"m 379 378 l 633 378 l 508 771 l 379 378 m 392 1000 l 628 1000 l 982 0 l 755 0 l 691 205 l 323 205 l 254 0 l 35 0 l 392 1000 m 509 1000 m 740 1282 l 534 1080 l 394 1080 l 524 1282 l 740 1282 m 509 1000 z "},"Â":{"ha":1003,"x_min":35,"x_max":982,"o":"m 379 378 l 633 378 l 508 771 l 379 378 m 392 1000 l 628 1000 l 982 0 l 755 0 l 691 205 l 323 205 l 254 0 l 35 0 l 392 1000 m 509 1000 m 754 1080 l 597 1080 l 509 1194 l 420 1080 l 262 1080 l 422 1282 l 595 1282 l 754 1080 m 509 1000 z "},"Ã":{"ha":1003,"x_min":35,"x_max":982,"o":"m 379 378 l 633 378 l 508 771 l 379 378 m 392 1000 l 628 1000 l 982 0 l 755 0 l 691 205 l 323 205 l 254 0 l 35 0 l 392 1000 m 509 1000 m 421 1259 q 457 1255 439 1259 q 487 1246 475 1251 l 551 1223 q 588 1211 579 1213 q 608 1208 597 1208 q 653 1225 640 1208 q 673 1266 667 1242 l 763 1266 q 714 1147 751 1195 q 608 1099 678 1099 q 549 1109 587 1099 q 506 1121 526 1114 l 451 1139 q 429 1145 439 1143 q 407 1147 418 1147 q 365 1132 381 1147 q 342 1089 349 1116 l 254 1089 q 292 1195 269 1159 q 421 1259 336 1259 m 509 1000 z "},"Ä":{"ha":1003,"x_min":35,"x_max":982,"o":"m 379 378 l 633 378 l 508 771 l 379 378 m 392 1000 l 628 1000 l 982 0 l 755 0 l 691 205 l 323 205 l 254 0 l 35 0 l 392 1000 m 509 1000 m 555 1253 l 732 1253 l 732 1093 l 555 1093 l 555 1253 m 284 1253 l 461 1253 l 461 1093 l 284 1093 l 284 1253 m 509 1000 z "},"Å":{"ha":1003,"x_min":35,"x_max":982,"o":"m 379 378 l 633 378 l 508 771 l 379 378 m 392 1000 l 628 1000 l 982 0 l 755 0 l 691 205 l 323 205 l 254 0 l 35 0 l 392 1000 m 509 1000 m 436 1185 q 460 1129 436 1152 q 517 1105 484 1105 q 573 1129 550 1105 q 597 1185 597 1152 q 573 1242 597 1219 q 517 1266 550 1266 q 460 1242 484 1266 q 436 1185 436 1219 m 369 1185 q 412 1290 369 1246 q 517 1333 456 1333 q 621 1290 578 1333 q 665 1185 665 1246 q 621 1081 665 1124 q 517 1038 578 1038 q 412 1081 456 1038 q 369 1185 369 1124 m 517 966 z "},"Æ":{"ha":1389,"x_min":12,"x_max":1331,"o":"m 601 826 l 511 826 l 357 376 l 601 376 l 601 826 m 376 996 l 1321 996 l 1321 823 l 806 823 l 806 608 l 1270 608 l 1270 437 l 806 437 l 806 176 l 1331 176 l 1331 0 l 601 0 l 601 212 l 302 212 l 229 0 l 12 0 l 376 996 z "},"Ç":{"ha":1003,"x_min":62,"x_max":951,"o":"m 62 492 q 203 895 62 753 q 513 1019 325 1019 q 882 853 766 1019 q 951 667 947 760 l 743 667 q 690 775 722 739 q 522 840 633 840 q 342 748 408 840 q 276 488 276 656 q 346 236 276 320 q 522 153 415 153 q 690 224 632 153 q 743 340 722 263 l 949 340 q 811 75 922 177 q 544 -28 699 -28 l 503 -89 q 534 -82 525 -84 q 555 -81 544 -81 q 642 -107 610 -81 q 675 -184 675 -134 q 624 -283 675 -247 q 493 -319 573 -319 q 410 -305 458 -319 q 347 -283 387 -298 l 372 -225 q 425 -240 411 -237 q 478 -248 458 -248 q 536 -231 519 -248 q 554 -195 554 -214 q 534 -155 554 -166 q 492 -143 515 -143 q 466 -146 479 -143 q 435 -155 452 -149 l 406 -127 l 470 -28 q 186 111 309 -28 q 62 492 62 250 z "},"È":{"ha":926,"x_min":112,"x_max":869,"o":"m 845 823 l 316 823 l 316 610 l 802 610 l 802 437 l 316 437 l 316 180 l 869 180 l 869 0 l 112 0 l 112 1000 l 845 1000 l 845 823 m 598 1080 l 458 1080 l 253 1282 l 468 1282 l 598 1080 m 484 1000 z "},"É":{"ha":926,"x_min":112,"x_max":869,"o":"m 845 823 l 316 823 l 316 610 l 802 610 l 802 437 l 316 437 l 316 180 l 869 180 l 869 0 l 112 0 l 112 1000 l 845 1000 l 845 823 m 715 1282 l 509 1080 l 369 1080 l 499 1282 l 715 1282 m 484 1000 z "},"Ê":{"ha":926,"x_min":112,"x_max":869,"o":"m 845 823 l 316 823 l 316 610 l 802 610 l 802 437 l 316 437 l 316 180 l 869 180 l 869 0 l 112 0 l 112 1000 l 845 1000 l 845 823 m 729 1080 l 572 1080 l 484 1194 l 395 1080 l 237 1080 l 397 1282 l 570 1282 l 729 1080 m 484 1000 z "},"Ë":{"ha":926,"x_min":112,"x_max":869,"o":"m 845 823 l 316 823 l 316 610 l 802 610 l 802 437 l 316 437 l 316 180 l 869 180 l 869 0 l 112 0 l 112 1000 l 845 1000 l 845 823 m 530 1253 l 707 1253 l 707 1093 l 530 1093 l 530 1253 m 259 1253 l 436 1253 l 436 1093 l 259 1093 l 259 1253 m 484 1000 z "},"Ì":{"ha":386,"x_min":-34,"x_max":311,"o":"m 297 0 l 90 0 l 90 1000 l 297 1000 l 297 0 m 193 1019 m 311 1099 l 172 1099 l -34 1302 l 181 1302 l 311 1099 m 197 1019 z "},"Í":{"ha":386,"x_min":80,"x_max":426,"o":"m 297 0 l 90 0 l 90 1000 l 297 1000 l 297 0 m 193 1019 m 426 1302 l 220 1099 l 80 1099 l 210 1302 l 426 1302 m 195 1019 z "},"Î":{"ha":386,"x_min":-50,"x_max":441,"o":"m 297 0 l 90 0 l 90 1000 l 297 1000 l 297 0 m 193 1019 m 441 1099 l 284 1099 l 196 1213 l 107 1099 l -50 1099 l 109 1302 l 283 1302 l 441 1099 m 196 1019 z "},"Ï":{"ha":386,"x_min":-29,"x_max":419,"o":"m 297 0 l 90 0 l 90 1000 l 297 1000 l 297 0 m 193 1019 m 242 1273 l 419 1273 l 419 1112 l 242 1112 l 242 1273 m -29 1273 l 148 1273 l 148 1112 l -29 1112 l -29 1273 m 195 1019 z "},"Ð":{"ha":1003,"x_min":12,"x_max":951,"o":"m 453 174 q 574 184 538 174 q 675 258 635 201 q 725 382 711 311 q 739 509 739 454 q 637 787 739 715 q 463 826 581 826 l 309 826 l 309 620 l 519 620 l 519 446 l 309 446 l 309 174 l 453 174 m 951 524 q 884 212 951 343 q 522 0 777 0 l 106 0 l 106 446 l 12 446 l 12 620 l 106 620 l 106 998 l 524 998 q 721 963 640 998 q 863 846 803 928 q 930 702 908 783 q 951 524 951 621 z "},"Ñ":{"ha":1003,"x_min":102,"x_max":914,"o":"m 102 1000 l 321 1000 l 720 302 l 720 1000 l 914 1000 l 914 0 l 705 0 l 297 710 l 297 0 l 102 0 l 102 1000 m 516 1002 m 429 1261 q 465 1257 447 1261 q 494 1249 482 1253 l 558 1225 q 595 1213 587 1215 q 615 1210 604 1210 q 661 1227 648 1210 q 680 1268 674 1244 l 770 1268 q 722 1149 758 1197 q 616 1101 686 1101 q 556 1111 595 1101 q 513 1123 534 1116 l 458 1141 q 436 1147 447 1145 q 414 1149 425 1149 q 372 1134 389 1149 q 349 1091 356 1118 l 261 1091 q 300 1197 276 1161 q 429 1261 343 1261 m 516 1002 z "},"Ò":{"ha":1080,"x_min":68,"x_max":1027,"o":"m 548 149 q 745 241 672 149 q 818 501 818 332 q 745 761 818 669 q 548 853 672 853 q 350 762 424 853 q 276 501 276 670 q 350 241 276 332 q 548 149 424 149 m 1027 501 q 876 89 1027 232 q 548 -28 762 -28 q 220 89 334 -28 q 68 501 68 232 q 220 913 68 776 q 548 1030 334 1030 q 876 913 762 1030 q 1027 501 1027 776 m 548 1030 m 663 1110 l 523 1110 l 317 1313 l 532 1313 l 663 1110 m 548 1030 z "},"Ó":{"ha":1080,"x_min":68,"x_max":1027,"o":"m 548 149 q 745 241 672 149 q 818 501 818 332 q 745 761 818 669 q 548 853 672 853 q 350 762 424 853 q 276 501 276 670 q 350 241 276 332 q 548 149 424 149 m 1027 501 q 876 89 1027 232 q 548 -28 762 -28 q 220 89 334 -28 q 68 501 68 232 q 220 913 68 776 q 548 1030 334 1030 q 876 913 762 1030 q 1027 501 1027 776 m 548 1030 m 779 1313 l 573 1110 l 433 1110 l 564 1313 l 779 1313 m 548 1030 z "},"Ô":{"ha":1080,"x_min":68,"x_max":1027,"o":"m 548 149 q 745 241 672 149 q 818 501 818 332 q 745 761 818 669 q 548 853 672 853 q 350 762 424 853 q 276 501 276 670 q 350 241 276 332 q 548 149 424 149 m 1027 501 q 876 89 1027 232 q 548 -28 762 -28 q 220 89 334 -28 q 68 501 68 232 q 220 913 68 776 q 548 1030 334 1030 q 876 913 762 1030 q 1027 501 1027 776 m 548 1030 m 793 1110 l 636 1110 l 548 1224 l 459 1110 l 302 1110 l 461 1313 l 635 1313 l 793 1110 m 548 1030 z "},"Õ":{"ha":1080,"x_min":68,"x_max":1027,"o":"m 548 149 q 745 241 672 149 q 818 501 818 332 q 745 761 818 669 q 548 853 672 853 q 350 762 424 853 q 276 501 276 670 q 350 241 276 332 q 548 149 424 149 m 1027 501 q 876 89 1027 232 q 548 -28 762 -28 q 220 89 334 -28 q 68 501 68 232 q 220 913 68 776 q 548 1030 334 1030 q 876 913 762 1030 q 1027 501 1027 776 m 548 1030 m 460 1290 q 496 1286 479 1290 q 526 1277 514 1282 l 590 1253 q 627 1241 618 1244 q 647 1238 636 1238 q 693 1256 680 1238 q 712 1297 706 1273 l 802 1297 q 754 1177 790 1225 q 648 1129 718 1129 q 588 1139 627 1129 q 545 1152 566 1145 l 490 1170 q 468 1176 479 1174 q 446 1177 457 1177 q 404 1162 420 1177 q 381 1120 388 1147 l 293 1120 q 332 1225 308 1190 q 460 1290 375 1290 m 548 1030 z "},"Ö":{"ha":1080,"x_min":68,"x_max":1027,"o":"m 548 149 q 745 241 672 149 q 818 501 818 332 q 745 761 818 669 q 548 853 672 853 q 350 762 424 853 q 276 501 276 670 q 350 241 276 332 q 548 149 424 149 m 1027 501 q 876 89 1027 232 q 548 -28 762 -28 q 220 89 334 -28 q 68 501 68 232 q 220 913 68 776 q 548 1030 334 1030 q 876 913 762 1030 q 1027 501 1027 776 m 548 1030 m 595 1284 l 772 1284 l 772 1123 l 595 1123 l 595 1284 m 323 1284 l 500 1284 l 500 1123 l 323 1123 l 323 1284 m 548 1030 z "},"×":{"ha":811,"x_min":58,"x_max":776,"o":"m 651 726 l 776 601 l 541 368 l 776 135 l 651 7 l 416 242 l 183 7 l 58 135 l 291 368 l 58 601 l 183 726 l 416 493 l 651 726 z "},"Ø":{"ha":1080,"x_min":48,"x_max":1040,"o":"m 741 771 q 667 826 714 803 q 546 853 618 853 q 338 757 401 853 q 275 501 275 661 q 287 379 275 435 q 311 298 294 347 l 741 771 m 358 231 q 446 168 398 186 q 546 149 494 149 q 754 258 691 149 q 818 501 818 368 q 812 588 818 546 q 784 699 804 652 l 358 231 m 546 1030 q 720 1000 635 1030 q 871 914 805 970 l 982 1035 l 1040 980 l 926 853 q 995 723 964 806 q 1025 501 1025 636 q 892 118 1025 267 q 546 -28 760 -28 q 381 -2 463 -28 q 224 87 298 23 l 106 -39 l 48 16 l 172 144 q 102 278 132 197 q 67 501 67 374 q 215 904 67 736 q 546 1030 342 1030 z "},"Ù":{"ha":1003,"x_min":106,"x_max":909,"o":"m 106 1000 l 318 1000 l 318 385 q 342 235 318 282 q 508 151 380 151 q 673 235 635 151 q 697 385 697 282 l 697 1000 l 909 1000 l 909 385 q 860 137 909 226 q 508 -26 768 -26 q 155 137 248 -26 q 106 385 106 226 l 106 1000 m 508 1000 m 623 1080 l 483 1080 l 277 1282 l 492 1282 l 623 1080 m 508 1000 z "},"Ú":{"ha":1003,"x_min":106,"x_max":909,"o":"m 106 1000 l 318 1000 l 318 385 q 342 235 318 282 q 508 151 380 151 q 673 235 635 151 q 697 385 697 282 l 697 1000 l 909 1000 l 909 385 q 860 137 909 226 q 508 -26 768 -26 q 155 137 248 -26 q 106 385 106 226 l 106 1000 m 508 1000 m 739 1282 l 533 1080 l 393 1080 l 524 1282 l 739 1282 m 508 1000 z "},"Û":{"ha":1003,"x_min":106,"x_max":909,"o":"m 106 1000 l 318 1000 l 318 385 q 342 235 318 282 q 508 151 380 151 q 673 235 635 151 q 697 385 697 282 l 697 1000 l 909 1000 l 909 385 q 860 137 909 226 q 508 -26 768 -26 q 155 137 248 -26 q 106 385 106 226 l 106 1000 m 508 1000 m 753 1080 l 596 1080 l 508 1194 l 419 1080 l 262 1080 l 421 1282 l 595 1282 l 753 1080 m 508 1000 z "},"Ü":{"ha":1003,"x_min":106,"x_max":909,"o":"m 106 1000 l 318 1000 l 318 385 q 342 235 318 282 q 508 151 380 151 q 673 235 635 151 q 697 385 697 282 l 697 1000 l 909 1000 l 909 385 q 860 137 909 226 q 508 -26 768 -26 q 155 137 248 -26 q 106 385 106 226 l 106 1000 m 508 1000 m 555 1253 l 732 1253 l 732 1093 l 555 1093 l 555 1253 m 283 1253 l 460 1253 l 460 1093 l 283 1093 l 283 1253 m 508 1000 z "},"Ý":{"ha":926,"x_min":24,"x_max":913,"o":"m 676 1000 l 913 1000 l 578 376 l 578 0 l 370 0 l 370 376 l 24 1000 l 270 1000 l 477 564 l 676 1000 m 469 1000 m 700 1282 l 494 1080 l 354 1080 l 484 1282 l 700 1282 m 469 1000 z "},"Þ":{"ha":926,"x_min":87,"x_max":831,"o":"m 87 998 l 290 998 l 290 848 l 481 848 q 743 771 654 848 q 831 563 831 694 q 678 292 831 365 q 460 254 596 254 l 290 254 l 290 0 l 87 0 l 87 998 m 568 670 q 447 686 531 686 l 290 686 l 290 414 l 436 414 q 560 432 520 414 q 632 556 632 464 q 568 670 632 642 z "},"ß":{"ha":848,"x_min":93,"x_max":799,"o":"m 93 702 q 134 896 93 829 q 417 1016 207 1016 q 653 945 564 1016 q 743 754 743 875 q 730 674 743 709 q 640 570 705 610 q 762 470 724 534 q 799 319 799 406 q 722 88 799 194 q 455 -18 645 -18 q 426 -17 446 -18 q 382 -10 406 -15 l 382 144 q 408 143 397 143 q 426 142 418 142 q 576 205 533 142 q 603 313 603 245 q 533 452 603 414 q 392 482 492 474 l 392 617 q 494 633 465 618 q 543 736 543 659 q 505 830 543 801 q 412 860 467 860 q 300 802 327 860 q 284 680 284 768 l 284 0 l 93 0 l 93 702 z "},"à":{"ha":772,"x_min":40,"x_max":732,"o":"m 498 359 q 461 341 479 348 q 410 328 442 334 l 366 319 q 279 293 305 309 q 234 211 234 267 q 261 139 234 161 q 328 117 289 117 q 443 154 391 117 q 498 288 496 191 l 498 359 m 380 450 q 457 467 434 456 q 498 522 498 484 q 467 584 498 567 q 374 602 435 602 q 277 568 306 602 q 250 500 257 543 l 64 500 q 118 659 70 597 q 381 757 195 757 q 597 709 503 757 q 691 527 691 661 l 691 188 q 692 102 691 153 q 704 51 694 64 q 732 28 713 37 l 732 0 l 522 0 q 510 42 513 22 q 505 87 507 62 q 412 13 465 43 q 271 -23 350 -23 q 105 34 171 -23 q 40 197 40 92 q 145 394 40 333 q 315 441 203 427 l 380 450 m 391 759 m 505 839 l 366 839 l 160 1042 l 375 1042 l 505 839 m 391 759 z "},"á":{"ha":772,"x_min":40,"x_max":732,"o":"m 498 359 q 461 341 479 348 q 410 328 442 334 l 366 319 q 279 293 305 309 q 234 211 234 267 q 261 139 234 161 q 328 117 289 117 q 443 154 391 117 q 498 288 496 191 l 498 359 m 380 450 q 457 467 434 456 q 498 522 498 484 q 467 584 498 567 q 374 602 435 602 q 277 568 306 602 q 250 500 257 543 l 64 500 q 118 659 70 597 q 381 757 195 757 q 597 709 503 757 q 691 527 691 661 l 691 188 q 692 102 691 153 q 704 51 694 64 q 732 28 713 37 l 732 0 l 522 0 q 510 42 513 22 q 505 87 507 62 q 412 13 465 43 q 271 -23 350 -23 q 105 34 171 -23 q 40 197 40 92 q 145 394 40 333 q 315 441 203 427 l 380 450 m 391 759 m 622 1042 l 416 839 l 276 839 l 406 1042 l 622 1042 m 391 759 z "},"â":{"ha":772,"x_min":40,"x_max":732,"o":"m 498 359 q 461 341 479 348 q 410 328 442 334 l 366 319 q 279 293 305 309 q 234 211 234 267 q 261 139 234 161 q 328 117 289 117 q 443 154 391 117 q 498 288 496 191 l 498 359 m 380 450 q 457 467 434 456 q 498 522 498 484 q 467 584 498 567 q 374 602 435 602 q 277 568 306 602 q 250 500 257 543 l 64 500 q 118 659 70 597 q 381 757 195 757 q 597 709 503 757 q 691 527 691 661 l 691 188 q 692 102 691 153 q 704 51 694 64 q 732 28 713 37 l 732 0 l 522 0 q 510 42 513 22 q 505 87 507 62 q 412 13 465 43 q 271 -23 350 -23 q 105 34 171 -23 q 40 197 40 92 q 145 394 40 333 q 315 441 203 427 l 380 450 m 391 759 m 636 839 l 479 839 l 391 953 l 302 839 l 144 839 l 304 1042 l 477 1042 l 636 839 m 391 759 z "},"ã":{"ha":772,"x_min":40,"x_max":732,"o":"m 498 359 q 461 341 479 348 q 410 328 442 334 l 366 319 q 279 293 305 309 q 234 211 234 267 q 261 139 234 161 q 328 117 289 117 q 443 154 391 117 q 498 288 496 191 l 498 359 m 380 450 q 457 467 434 456 q 498 522 498 484 q 467 584 498 567 q 374 602 435 602 q 277 568 306 602 q 250 500 257 543 l 64 500 q 118 659 70 597 q 381 757 195 757 q 597 709 503 757 q 691 527 691 661 l 691 188 q 692 102 691 153 q 704 51 694 64 q 732 28 713 37 l 732 0 l 522 0 q 510 42 513 22 q 505 87 507 62 q 412 13 465 43 q 271 -23 350 -23 q 105 34 171 -23 q 40 197 40 92 q 145 394 40 333 q 315 441 203 427 l 380 450 m 391 759 m 303 1019 q 339 1015 321 1019 q 369 1006 357 1010 l 433 982 q 470 970 461 972 q 490 967 479 967 q 535 984 522 967 q 555 1025 549 1002 l 645 1025 q 596 906 633 954 q 490 858 560 858 q 431 868 469 858 q 388 880 408 873 l 333 899 q 311 904 321 903 q 289 906 300 906 q 247 891 263 906 q 224 848 231 876 l 136 848 q 174 954 151 918 q 303 1019 218 1019 m 391 759 z "},"ä":{"ha":772,"x_min":40,"x_max":732,"o":"m 498 359 q 461 341 479 348 q 410 328 442 334 l 366 319 q 279 293 305 309 q 234 211 234 267 q 261 139 234 161 q 328 117 289 117 q 443 154 391 117 q 498 288 496 191 l 498 359 m 380 450 q 457 467 434 456 q 498 522 498 484 q 467 584 498 567 q 374 602 435 602 q 277 568 306 602 q 250 500 257 543 l 64 500 q 118 659 70 597 q 381 757 195 757 q 597 709 503 757 q 691 527 691 661 l 691 188 q 692 102 691 153 q 704 51 694 64 q 732 28 713 37 l 732 0 l 522 0 q 510 42 513 22 q 505 87 507 62 q 412 13 465 43 q 271 -23 350 -23 q 105 34 171 -23 q 40 197 40 92 q 145 394 40 333 q 315 441 203 427 l 380 450 m 391 759 m 437 1013 l 614 1013 l 614 852 l 437 852 l 437 1013 m 166 1013 l 343 1013 l 343 852 l 166 852 l 166 1013 m 391 759 z "},"å":{"ha":772,"x_min":40,"x_max":732,"o":"m 498 359 q 461 341 479 348 q 410 328 442 334 l 366 319 q 279 293 305 309 q 234 211 234 267 q 261 139 234 161 q 328 117 289 117 q 443 154 391 117 q 498 288 496 191 l 498 359 m 380 450 q 457 467 434 456 q 498 522 498 484 q 467 584 498 567 q 374 602 435 602 q 277 568 306 602 q 250 500 257 543 l 64 500 q 118 659 70 597 q 381 757 195 757 q 597 709 503 757 q 691 527 691 661 l 691 188 q 692 102 691 153 q 704 51 694 64 q 732 28 713 37 l 732 0 l 522 0 q 510 42 513 22 q 505 87 507 62 q 412 13 465 43 q 271 -23 350 -23 q 105 34 171 -23 q 40 197 40 92 q 145 394 40 333 q 315 441 203 427 l 380 450 m 391 759 m 310 979 q 334 922 310 945 q 391 899 357 899 q 447 922 424 899 q 471 979 471 945 q 447 1036 471 1012 q 391 1059 424 1059 q 334 1036 357 1059 q 310 979 310 1012 m 243 979 q 286 1083 243 1040 q 391 1126 330 1126 q 495 1083 452 1126 q 538 979 538 1040 q 495 874 538 918 q 391 831 452 831 q 286 874 330 831 q 243 979 243 918 m 391 759 z "},"æ":{"ha":1235,"x_min":38,"x_max":1191,"o":"m 987 446 q 946 560 982 517 q 838 602 910 602 q 726 564 764 602 q 684 446 688 526 l 987 446 m 505 353 q 479 339 490 343 q 427 326 467 334 l 353 311 q 268 283 290 298 q 231 203 231 259 q 255 143 231 171 q 336 115 279 115 q 434 137 395 115 q 505 279 505 176 l 505 353 m 406 448 q 473 467 452 455 q 506 519 506 484 q 452 593 506 573 q 374 603 422 603 q 270 561 299 603 q 252 498 254 538 l 64 498 q 191 713 71 650 q 393 755 270 755 q 547 726 480 755 q 625 676 585 709 q 720 733 667 711 q 844 755 774 755 q 1149 570 1069 755 q 1187 321 1191 472 l 682 321 q 700 204 682 245 q 830 130 734 130 q 924 148 884 130 q 983 222 964 167 l 1179 222 q 1112 86 1171 154 q 837 -24 1015 -24 q 680 10 745 -24 q 578 99 614 45 q 458 5 528 35 q 297 -25 388 -25 q 99 41 160 -25 q 38 200 38 108 q 131 383 38 326 q 288 431 182 414 l 406 448 z "},"ç":{"ha":772,"x_min":48,"x_max":730,"o":"m 532 474 q 504 549 526 515 q 403 593 471 593 q 269 496 305 593 q 250 359 250 445 q 269 229 250 278 q 399 136 304 136 q 496 173 467 136 q 530 268 524 210 l 728 268 q 664 101 721 180 q 416 -26 573 -26 l 373 -89 q 405 -82 395 -84 q 425 -81 414 -81 q 513 -107 480 -81 q 545 -184 545 -134 q 494 -283 545 -247 q 363 -319 444 -319 q 280 -305 329 -319 q 217 -283 258 -298 l 243 -225 q 296 -240 281 -237 q 349 -248 328 -248 q 407 -231 389 -248 q 425 -195 425 -214 q 405 -155 425 -166 q 363 -143 385 -143 q 336 -146 350 -143 q 306 -155 323 -149 l 277 -127 l 344 -26 q 132 80 216 -26 q 48 355 48 186 q 141 651 48 545 q 397 757 234 757 q 625 694 536 757 q 730 474 713 632 l 532 474 z "},"è":{"ha":772,"x_min":32,"x_max":734,"o":"m 382 600 q 278 557 315 600 q 231 444 241 515 l 532 444 q 485 560 527 520 q 382 600 444 600 m 382 759 q 548 724 474 759 q 670 615 622 690 q 726 463 713 549 q 732 316 734 412 l 227 316 q 296 160 231 205 q 393 132 336 132 q 490 166 452 132 q 526 217 510 184 l 723 217 q 654 83 715 151 q 389 -24 559 -24 q 140 66 248 -24 q 32 362 32 157 q 129 656 32 554 q 382 759 227 759 m 395 759 m 510 839 l 370 839 l 165 1042 l 380 1042 l 510 839 m 395 759 z "},"é":{"ha":772,"x_min":32,"x_max":734,"o":"m 382 600 q 278 557 315 600 q 231 444 241 515 l 532 444 q 485 560 527 520 q 382 600 444 600 m 382 759 q 548 724 474 759 q 670 615 622 690 q 726 463 713 549 q 732 316 734 412 l 227 316 q 296 160 231 205 q 393 132 336 132 q 490 166 452 132 q 526 217 510 184 l 723 217 q 654 83 715 151 q 389 -24 559 -24 q 140 66 248 -24 q 32 362 32 157 q 129 656 32 554 q 382 759 227 759 m 395 759 m 627 1042 l 420 839 l 281 839 l 411 1042 l 627 1042 m 395 759 z "},"ê":{"ha":772,"x_min":32,"x_max":734,"o":"m 382 600 q 278 557 315 600 q 231 444 241 515 l 532 444 q 485 560 527 520 q 382 600 444 600 m 382 759 q 548 724 474 759 q 670 615 622 690 q 726 463 713 549 q 732 316 734 412 l 227 316 q 296 160 231 205 q 393 132 336 132 q 490 166 452 132 q 526 217 510 184 l 723 217 q 654 83 715 151 q 389 -24 559 -24 q 140 66 248 -24 q 32 362 32 157 q 129 656 32 554 q 382 759 227 759 m 395 759 m 641 839 l 484 839 l 395 953 l 307 839 l 149 839 l 309 1042 l 482 1042 l 641 839 m 395 759 z "},"ë":{"ha":772,"x_min":32,"x_max":734,"o":"m 382 600 q 278 557 315 600 q 231 444 241 515 l 532 444 q 485 560 527 520 q 382 600 444 600 m 382 759 q 548 724 474 759 q 670 615 622 690 q 726 463 713 549 q 732 316 734 412 l 227 316 q 296 160 231 205 q 393 132 336 132 q 490 166 452 132 q 526 217 510 184 l 723 217 q 654 83 715 151 q 389 -24 559 -24 q 140 66 248 -24 q 32 362 32 157 q 129 656 32 554 q 382 759 227 759 m 395 759 m 442 1013 l 619 1013 l 619 852 l 442 852 l 442 1013 m 171 1013 l 348 1013 l 348 852 l 171 852 l 171 1013 m 395 759 z "},"ì":{"ha":386,"x_min":-34,"x_max":311,"o":"m 93 739 l 289 739 l 289 0 l 93 0 l 93 739 m 191 759 m 311 839 l 172 839 l -34 1042 l 181 1042 l 311 839 m 197 759 z "},"í":{"ha":386,"x_min":80,"x_max":426,"o":"m 93 739 l 289 739 l 289 0 l 93 0 l 93 739 m 191 759 m 426 1042 l 220 839 l 80 839 l 210 1042 l 426 1042 m 195 759 z "},"î":{"ha":386,"x_min":-50,"x_max":441,"o":"m 93 739 l 289 739 l 289 0 l 93 0 l 93 739 m 191 759 m 441 839 l 284 839 l 196 953 l 107 839 l -50 839 l 109 1042 l 283 1042 l 441 839 m 196 759 z "},"ï":{"ha":386,"x_min":-29,"x_max":419,"o":"m 93 739 l 289 739 l 289 0 l 93 0 l 93 739 m 191 759 m 242 1013 l 419 1013 l 419 852 l 242 852 l 242 1013 m -29 1013 l 148 1013 l 148 852 l -29 852 l -29 1013 m 195 759 z "},"ð":{"ha":848,"x_min":74,"x_max":789,"o":"m 383 683 q 427 681 409 683 q 479 670 445 679 q 406 747 427 727 q 349 799 385 767 l 199 731 l 130 801 l 283 868 q 235 904 245 895 q 197 935 224 913 l 357 1006 q 395 979 379 991 q 442 943 411 967 l 566 997 l 635 927 l 514 878 q 620 763 591 798 q 694 663 666 709 q 769 493 750 567 q 789 340 789 418 q 696 84 789 187 q 437 -20 604 -20 q 169 81 264 -20 q 74 338 74 182 q 164 586 74 489 q 383 683 254 683 m 597 345 q 559 484 597 423 q 435 544 522 544 q 314 492 359 544 q 268 334 268 440 q 315 181 268 231 q 432 131 362 131 q 554 187 511 131 q 597 345 597 243 z "},"ñ":{"ha":848,"x_min":92,"x_max":760,"o":"m 500 757 q 687 697 614 757 q 760 498 760 637 l 760 0 l 562 0 l 562 450 q 547 539 562 508 q 438 596 518 596 q 303 513 340 596 q 284 400 284 469 l 284 0 l 92 0 l 92 738 l 278 738 l 278 630 q 349 712 315 687 q 500 757 408 757 m 429 759 m 341 1019 q 377 1015 359 1019 q 407 1006 395 1010 l 471 982 q 508 970 499 972 q 528 967 517 967 q 573 984 560 967 q 593 1025 587 1002 l 683 1025 q 634 906 671 954 q 528 858 598 858 q 469 868 507 858 q 426 880 446 873 l 371 899 q 349 904 359 903 q 327 906 338 906 q 285 891 301 906 q 262 848 269 876 l 174 848 q 212 954 189 918 q 341 1019 256 1019 m 429 759 z "},"ò":{"ha":848,"x_min":45,"x_max":800,"o":"m 422 136 q 552 197 507 136 q 597 368 597 257 q 552 539 597 479 q 422 600 507 600 q 291 539 337 600 q 245 368 245 479 q 291 197 245 257 q 422 136 337 136 m 800 368 q 707 90 800 205 q 422 -26 613 -26 q 138 90 232 -26 q 45 368 45 205 q 138 646 45 528 q 422 763 232 763 q 707 646 613 763 q 800 368 800 528 m 422 759 m 537 839 l 397 839 l 192 1042 l 407 1042 l 537 839 m 422 759 z "},"ó":{"ha":848,"x_min":45,"x_max":800,"o":"m 422 136 q 552 197 507 136 q 597 368 597 257 q 552 539 597 479 q 422 600 507 600 q 291 539 337 600 q 245 368 245 479 q 291 197 245 257 q 422 136 337 136 m 800 368 q 707 90 800 205 q 422 -26 613 -26 q 138 90 232 -26 q 45 368 45 205 q 138 646 45 528 q 422 763 232 763 q 707 646 613 763 q 800 368 800 528 m 422 759 m 654 1042 l 448 839 l 308 839 l 438 1042 l 654 1042 m 422 759 z "},"ô":{"ha":848,"x_min":45,"x_max":800,"o":"m 422 136 q 552 197 507 136 q 597 368 597 257 q 552 539 597 479 q 422 600 507 600 q 291 539 337 600 q 245 368 245 479 q 291 197 245 257 q 422 136 337 136 m 800 368 q 707 90 800 205 q 422 -26 613 -26 q 138 90 232 -26 q 45 368 45 205 q 138 646 45 528 q 422 763 232 763 q 707 646 613 763 q 800 368 800 528 m 422 759 m 668 839 l 511 839 l 422 953 l 334 839 l 176 839 l 336 1042 l 509 1042 l 668 839 m 422 759 z "},"õ":{"ha":848,"x_min":45,"x_max":800,"o":"m 422 136 q 552 197 507 136 q 597 368 597 257 q 552 539 597 479 q 422 600 507 600 q 291 539 337 600 q 245 368 245 479 q 291 197 245 257 q 422 136 337 136 m 800 368 q 707 90 800 205 q 422 -26 613 -26 q 138 90 232 -26 q 45 368 45 205 q 138 646 45 528 q 422 763 232 763 q 707 646 613 763 q 800 368 800 528 m 422 759 m 335 1019 q 371 1015 353 1019 q 401 1006 389 1010 l 465 982 q 502 970 493 972 q 522 967 511 967 q 567 984 554 967 q 587 1025 581 1002 l 677 1025 q 628 906 665 954 q 522 858 592 858 q 463 868 501 858 q 420 880 440 873 l 365 899 q 342 904 353 903 q 321 906 332 906 q 279 891 295 906 q 256 848 262 876 l 168 848 q 206 954 182 918 q 335 1019 250 1019 m 422 759 z "},"ö":{"ha":848,"x_min":45,"x_max":800,"o":"m 422 136 q 552 197 507 136 q 597 368 597 257 q 552 539 597 479 q 422 600 507 600 q 291 539 337 600 q 245 368 245 479 q 291 197 245 257 q 422 136 337 136 m 800 368 q 707 90 800 205 q 422 -26 613 -26 q 138 90 232 -26 q 45 368 45 205 q 138 646 45 528 q 422 763 232 763 q 707 646 613 763 q 800 368 800 528 m 422 759 m 469 1013 l 646 1013 l 646 852 l 469 852 l 469 1013 m 198 1013 l 375 1013 l 375 852 l 198 852 l 198 1013 m 422 759 z "},"÷":{"ha":762,"x_min":50,"x_max":784,"o":"m 313 0 l 313 202 l 521 202 l 521 0 l 313 0 m 784 456 l 784 279 l 50 279 l 50 456 l 784 456 m 521 734 l 521 533 l 313 533 l 313 734 l 521 734 z "},"ø":{"ha":848,"x_min":28,"x_max":817,"o":"m 548 548 q 476 591 524 578 q 419 600 447 600 q 292 539 338 600 q 245 372 245 478 q 250 306 245 339 q 267 249 255 273 l 548 548 m 302 189 q 349 151 330 161 q 428 135 380 135 q 554 200 511 135 q 597 366 597 265 q 594 421 597 399 q 582 487 591 442 l 302 189 m 800 374 q 697 84 800 195 q 414 -28 595 -28 q 255 2 325 -28 q 170 54 216 19 l 79 -42 l 28 0 l 125 98 q 61 234 78 161 q 45 368 45 307 q 144 650 45 537 q 408 763 243 763 q 564 742 505 763 q 675 680 624 722 l 768 778 l 817 732 l 720 631 q 782 506 764 572 q 800 374 800 439 z "},"ù":{"ha":848,"x_min":85,"x_max":752,"o":"m 283 739 l 283 294 q 298 199 283 231 q 401 142 324 142 q 537 222 500 142 q 556 337 556 266 l 556 739 l 752 739 l 752 0 l 564 0 l 564 104 q 551 84 562 101 q 525 54 540 67 q 437 -1 479 14 q 338 -16 395 -16 q 117 102 174 -16 q 85 294 85 167 l 85 739 l 283 739 m 418 759 m 533 839 l 393 839 l 188 1042 l 403 1042 l 533 839 m 418 759 z "},"ú":{"ha":848,"x_min":85,"x_max":752,"o":"m 283 739 l 283 294 q 298 199 283 231 q 401 142 324 142 q 537 222 500 142 q 556 337 556 266 l 556 739 l 752 739 l 752 0 l 564 0 l 564 104 q 551 84 562 101 q 525 54 540 67 q 437 -1 479 14 q 338 -16 395 -16 q 117 102 174 -16 q 85 294 85 167 l 85 739 l 283 739 m 418 759 m 650 1042 l 444 839 l 304 839 l 434 1042 l 650 1042 m 418 759 z "},"û":{"ha":848,"x_min":85,"x_max":752,"o":"m 283 739 l 283 294 q 298 199 283 231 q 401 142 324 142 q 537 222 500 142 q 556 337 556 266 l 556 739 l 752 739 l 752 0 l 564 0 l 564 104 q 551 84 562 101 q 525 54 540 67 q 437 -1 479 14 q 338 -16 395 -16 q 117 102 174 -16 q 85 294 85 167 l 85 739 l 283 739 m 418 759 m 664 839 l 507 839 l 418 953 l 330 839 l 172 839 l 332 1042 l 505 1042 l 664 839 m 418 759 z "},"ü":{"ha":848,"x_min":85,"x_max":752,"o":"m 283 739 l 283 294 q 298 199 283 231 q 401 142 324 142 q 537 222 500 142 q 556 337 556 266 l 556 739 l 752 739 l 752 0 l 564 0 l 564 104 q 551 84 562 101 q 525 54 540 67 q 437 -1 479 14 q 338 -16 395 -16 q 117 102 174 -16 q 85 294 85 167 l 85 739 l 283 739 m 418 759 m 465 1013 l 642 1013 l 642 852 l 465 852 l 465 1013 m 194 1013 l 371 1013 l 371 852 l 194 852 l 194 1013 m 418 759 z "},"ý":{"ha":772,"x_min":14,"x_max":749,"o":"m 120 -142 l 144 -143 q 199 -141 173 -144 q 242 -125 224 -138 q 274 -77 259 -114 q 286 -33 288 -41 l 14 739 l 229 739 l 391 194 l 543 739 l 749 739 l 495 12 q 379 -249 422 -198 q 208 -299 336 -299 q 167 -299 182 -299 q 120 -296 151 -298 l 120 -142 m 382 759 m 613 1042 l 407 839 l 267 839 l 397 1042 l 613 1042 m 382 759 z "},"þ":{"ha":848,"x_min":87,"x_max":800,"o":"m 439 142 q 583 243 544 142 q 603 375 603 296 q 559 531 603 474 q 436 588 515 588 q 322 536 370 588 q 275 368 275 484 q 316 202 275 262 q 439 142 357 142 m 279 998 l 279 640 q 367 729 314 700 q 488 759 419 759 q 715 663 631 759 q 800 374 800 567 q 721 94 800 208 q 491 -20 641 -20 q 392 -4 432 -20 q 279 98 323 22 l 279 -290 l 87 -290 l 87 998 l 279 998 z "},"ÿ":{"ha":772,"x_min":14,"x_max":749,"o":"m 120 -142 l 144 -143 q 199 -141 173 -144 q 242 -125 224 -138 q 274 -77 259 -114 q 286 -33 288 -41 l 14 739 l 229 739 l 391 194 l 543 739 l 749 739 l 495 12 q 379 -249 422 -198 q 208 -299 336 -299 q 167 -299 182 -299 q 120 -296 151 -298 l 120 -142 m 382 759 m 429 1013 l 606 1013 l 606 852 l 429 852 l 429 1013 m 157 1013 l 334 1013 l 334 852 l 157 852 l 157 1013 m 382 759 z "},"Ā":{"ha":1003,"x_min":35,"x_max":982,"o":"m 379 378 l 633 378 l 508 771 l 379 378 m 392 1000 l 628 1000 l 982 0 l 755 0 l 691 205 l 323 205 l 254 0 l 35 0 l 392 1000 m 509 1000 m 269 1211 l 751 1211 l 751 1108 l 269 1108 l 269 1211 z "},"ā":{"ha":772,"x_min":40,"x_max":732,"o":"m 498 359 q 461 341 479 348 q 410 328 442 334 l 366 319 q 279 293 305 309 q 234 211 234 267 q 261 139 234 161 q 328 117 289 117 q 443 154 391 117 q 498 288 496 191 l 498 359 m 380 450 q 457 467 434 456 q 498 522 498 484 q 467 584 498 567 q 374 602 435 602 q 277 568 306 602 q 250 500 257 543 l 64 500 q 118 659 70 597 q 381 757 195 757 q 597 709 503 757 q 691 527 691 661 l 691 188 q 692 102 691 153 q 704 51 694 64 q 732 28 713 37 l 732 0 l 522 0 q 510 42 513 22 q 505 87 507 62 q 412 13 465 43 q 271 -23 350 -23 q 105 34 171 -23 q 40 197 40 92 q 145 394 40 333 q 315 441 203 427 l 380 450 m 391 759 m 139 972 l 621 972 l 621 869 l 139 869 l 139 972 z "},"Ă":{"ha":1003,"x_min":35,"x_max":982,"o":"m 379 378 l 633 378 l 508 771 l 379 378 m 392 1000 l 628 1000 l 982 0 l 755 0 l 691 205 l 323 205 l 254 0 l 35 0 l 392 1000 m 509 1000 m 753 1304 q 684 1151 745 1200 q 519 1102 624 1102 q 355 1151 415 1102 q 286 1304 294 1200 l 377 1304 q 442 1219 387 1242 q 519 1206 473 1206 q 597 1219 566 1206 q 662 1304 652 1242 l 753 1304 m 519 1021 z "},"ă":{"ha":772,"x_min":40,"x_max":732,"o":"m 498 359 q 461 341 479 348 q 410 328 442 334 l 366 319 q 279 293 305 309 q 234 211 234 267 q 261 139 234 161 q 328 117 289 117 q 443 154 391 117 q 498 288 496 191 l 498 359 m 380 450 q 457 467 434 456 q 498 522 498 484 q 467 584 498 567 q 374 602 435 602 q 277 568 306 602 q 250 500 257 543 l 64 500 q 118 659 70 597 q 381 757 195 757 q 597 709 503 757 q 691 527 691 661 l 691 188 q 692 102 691 153 q 704 51 694 64 q 732 28 713 37 l 732 0 l 522 0 q 510 42 513 22 q 505 87 507 62 q 412 13 465 43 q 271 -23 350 -23 q 105 34 171 -23 q 40 197 40 92 q 145 394 40 333 q 315 441 203 427 l 380 450 m 391 759 m 633 1059 q 564 906 624 956 q 399 857 503 857 q 234 906 294 857 q 165 1059 174 956 l 256 1059 q 321 975 266 997 q 399 962 353 962 q 476 975 445 962 q 541 1059 532 997 l 633 1059 m 399 777 z "},"Ą":{"ha":1003,"x_min":35,"x_max":982,"o":"m 379 378 l 633 378 l 508 771 l 379 378 m 392 1000 l 628 1000 l 982 0 l 755 0 l 691 205 l 323 205 l 254 0 l 35 0 l 392 1000 m 509 1000 m 972 0 l 927 -33 q 858 -91 880 -66 q 836 -145 836 -115 q 858 -194 836 -176 q 913 -212 880 -212 q 945 -208 928 -212 q 982 -197 961 -204 l 982 -294 q 931 -311 951 -306 q 848 -319 895 -319 q 732 -280 777 -319 q 686 -185 686 -240 q 743 -71 686 -123 q 850 0 777 -41 l 972 0 z "},"ą":{"ha":772,"x_min":40,"x_max":732,"o":"m 498 359 q 461 341 479 348 q 410 328 442 334 l 366 319 q 279 293 305 309 q 234 211 234 267 q 261 139 234 161 q 328 117 289 117 q 443 154 391 117 q 498 288 496 191 l 498 359 m 380 450 q 457 467 434 456 q 498 522 498 484 q 467 584 498 567 q 374 602 435 602 q 277 568 306 602 q 250 500 257 543 l 64 500 q 118 659 70 597 q 381 757 195 757 q 597 709 503 757 q 691 527 691 661 l 691 188 q 692 102 691 153 q 704 51 694 64 q 732 28 713 37 l 732 0 l 522 0 q 510 42 513 22 q 505 87 507 62 q 412 13 465 43 q 271 -23 350 -23 q 105 34 171 -23 q 40 197 40 92 q 145 394 40 333 q 315 441 203 427 l 380 450 m 391 759 m 723 5 l 677 -28 q 608 -86 631 -62 q 586 -140 586 -111 q 608 -190 586 -172 q 664 -208 631 -208 q 695 -203 679 -208 q 732 -192 711 -199 l 732 -290 q 682 -306 702 -301 q 599 -315 645 -315 q 482 -275 528 -315 q 437 -180 437 -235 q 494 -66 437 -119 q 601 5 527 -36 l 723 5 z "},"Ć":{"ha":1003,"x_min":62,"x_max":951,"o":"m 62 492 q 203 895 62 753 q 513 1019 325 1019 q 882 853 766 1019 q 951 667 947 760 l 743 667 q 690 775 722 739 q 522 840 633 840 q 342 748 408 840 q 276 488 276 656 q 346 236 276 320 q 522 153 415 153 q 690 224 632 153 q 743 340 722 263 l 949 340 q 811 75 922 177 q 525 -28 699 -28 q 186 111 309 -28 q 62 492 62 250 m 507 1030 m 722 1289 l 516 1086 l 376 1086 l 507 1289 l 722 1289 m 491 1006 z "},"ć":{"ha":772,"x_min":48,"x_max":730,"o":"m 532 474 q 504 549 526 515 q 403 593 471 593 q 269 496 305 593 q 250 359 250 445 q 269 229 250 278 q 399 136 304 136 q 496 173 467 136 q 530 268 524 210 l 728 268 q 664 101 721 180 q 395 -26 573 -26 q 132 80 216 -26 q 48 355 48 186 q 141 651 48 545 q 397 757 234 757 q 625 694 536 757 q 730 474 713 632 l 532 474 m 401 759 m 624 1017 l 418 814 l 278 814 l 408 1017 l 624 1017 m 393 734 z "},"Ĉ":{"ha":1003,"x_min":62,"x_max":951,"o":"m 62 492 q 203 895 62 753 q 513 1019 325 1019 q 882 853 766 1019 q 951 667 947 760 l 743 667 q 690 775 722 739 q 522 840 633 840 q 342 748 408 840 q 276 488 276 656 q 346 236 276 320 q 522 153 415 153 q 690 224 632 153 q 743 340 722 263 l 949 340 q 811 75 922 177 q 525 -28 699 -28 q 186 111 309 -28 q 62 492 62 250 m 507 1030 m 770 1099 l 612 1099 l 524 1213 l 435 1099 l 278 1099 l 437 1302 l 611 1302 l 770 1099 m 524 1019 z "},"ĉ":{"ha":772,"x_min":48,"x_max":730,"o":"m 532 474 q 504 549 526 515 q 403 593 471 593 q 269 496 305 593 q 250 359 250 445 q 269 229 250 278 q 399 136 304 136 q 496 173 467 136 q 530 268 524 210 l 728 268 q 664 101 721 180 q 395 -26 573 -26 q 132 80 216 -26 q 48 355 48 186 q 141 651 48 545 q 397 757 234 757 q 625 694 536 757 q 730 474 713 632 l 532 474 m 401 759 m 649 853 l 492 853 l 404 967 l 315 853 l 157 853 l 317 1056 l 490 1056 l 649 853 m 404 773 z "},"Ċ":{"ha":1003,"x_min":62,"x_max":951,"o":"m 62 492 q 203 895 62 753 q 513 1019 325 1019 q 882 853 766 1019 q 951 667 947 760 l 743 667 q 690 775 722 739 q 522 840 633 840 q 342 748 408 840 q 276 488 276 656 q 346 236 276 320 q 522 153 415 153 q 690 224 632 153 q 743 340 722 263 l 949 340 q 811 75 922 177 q 525 -28 699 -28 q 186 111 309 -28 q 62 492 62 250 m 507 1030 m 431 1265 l 607 1265 l 607 1104 l 431 1104 l 431 1265 m 519 1011 z "},"ċ":{"ha":772,"x_min":48,"x_max":730,"o":"m 532 474 q 504 549 526 515 q 403 593 471 593 q 269 496 305 593 q 250 359 250 445 q 269 229 250 278 q 399 136 304 136 q 496 173 467 136 q 530 268 524 210 l 728 268 q 664 101 721 180 q 395 -26 573 -26 q 132 80 216 -26 q 48 355 48 186 q 141 651 48 545 q 397 757 234 757 q 625 694 536 757 q 730 474 713 632 l 532 474 m 401 759 m 304 997 l 481 997 l 481 836 l 304 836 l 304 997 m 393 743 z "},"Č":{"ha":1003,"x_min":62,"x_max":951,"o":"m 62 492 q 203 895 62 753 q 513 1019 325 1019 q 882 853 766 1019 q 951 667 947 760 l 743 667 q 690 775 722 739 q 522 840 633 840 q 342 748 408 840 q 276 488 276 656 q 346 236 276 320 q 522 153 415 153 q 690 224 632 153 q 743 340 722 263 l 949 340 q 811 75 922 177 q 525 -28 699 -28 q 186 111 309 -28 q 62 492 62 250 m 507 1030 m 425 1074 l 265 1276 l 422 1276 l 511 1162 l 600 1276 l 757 1276 l 598 1074 l 425 1074 m 511 994 z "},"č":{"ha":772,"x_min":48,"x_max":730,"o":"m 532 474 q 504 549 526 515 q 403 593 471 593 q 269 496 305 593 q 250 359 250 445 q 269 229 250 278 q 399 136 304 136 q 496 173 467 136 q 530 268 524 210 l 728 268 q 664 101 721 180 q 395 -26 573 -26 q 132 80 216 -26 q 48 355 48 186 q 141 651 48 545 q 397 757 234 757 q 625 694 536 757 q 730 474 713 632 l 532 474 m 401 759 m 310 826 l 151 1029 l 308 1029 l 397 914 l 485 1029 l 642 1029 l 484 826 l 310 826 m 397 746 z "},"Ď":{"ha":1003,"x_min":106,"x_max":951,"o":"m 309 826 l 309 174 l 501 174 q 707 319 649 174 q 739 510 739 399 q 691 744 739 663 q 501 826 644 826 l 309 826 m 536 1000 q 691 978 629 998 q 861 851 796 943 q 932 690 913 777 q 951 524 951 603 q 871 186 951 325 q 536 0 763 0 l 106 0 l 106 1000 l 536 1000 m 397 1094 l 238 1297 l 395 1297 l 484 1182 l 572 1297 l 730 1297 l 571 1094 l 397 1094 m 484 1014 z "},"ď":{"ha":1042,"x_min":43,"x_max":1041,"o":"m 832 888 q 918 943 890 905 q 949 1049 945 981 l 832 1049 l 832 1251 l 1041 1251 l 1041 1076 q 1029 980 1041 1030 q 983 893 1017 930 q 899 834 947 854 q 832 814 850 814 l 832 888 m 567 646 l 567 998 l 763 998 l 763 0 l 575 0 l 575 102 q 481 7 534 37 q 349 -23 428 -23 q 131 82 220 -23 q 43 351 43 186 q 130 648 43 540 q 363 757 217 757 q 482 727 430 757 q 567 646 534 698 m 572 359 q 504 553 572 494 q 406 588 462 588 q 282 524 321 588 q 242 365 242 460 q 282 201 242 262 q 405 140 323 140 q 530 201 487 140 q 572 359 572 262 z "},"Đ":{"ha":1003,"x_min":12,"x_max":951,"o":"m 453 174 q 574 184 538 174 q 675 258 635 201 q 725 382 711 311 q 739 509 739 454 q 637 787 739 715 q 463 826 581 826 l 309 826 l 309 620 l 519 620 l 519 446 l 309 446 l 309 174 l 453 174 m 951 524 q 884 212 951 343 q 522 0 777 0 l 106 0 l 106 446 l 12 446 l 12 620 l 106 620 l 106 998 l 524 998 q 721 963 640 998 q 863 846 803 928 q 930 702 908 783 q 951 524 951 621 z "},"đ":{"ha":848,"x_min":43,"x_max":849,"o":"m 363 757 q 482 727 430 757 q 567 646 534 698 l 567 817 l 367 817 l 367 920 l 567 920 l 567 998 l 763 998 l 763 920 l 849 920 l 849 817 l 763 817 l 763 0 l 575 0 l 575 102 q 481 7 534 37 q 349 -23 428 -23 q 131 82 220 -23 q 43 351 43 186 q 130 648 43 540 q 363 757 217 757 m 405 140 q 530 201 487 140 q 572 359 572 262 q 504 553 572 494 q 406 588 462 588 q 282 524 321 588 q 242 365 242 460 q 282 201 242 262 q 405 140 323 140 z "},"Ē":{"ha":926,"x_min":112,"x_max":869,"o":"m 845 823 l 316 823 l 316 610 l 802 610 l 802 437 l 316 437 l 316 180 l 869 180 l 869 0 l 112 0 l 112 1000 l 845 1000 l 845 823 m 256 1215 l 738 1215 l 738 1112 l 256 1112 l 256 1215 z "},"ē":{"ha":772,"x_min":32,"x_max":734,"o":"m 382 600 q 278 557 315 600 q 231 444 241 515 l 532 444 q 485 560 527 520 q 382 600 444 600 m 382 759 q 548 724 474 759 q 670 615 622 690 q 726 463 713 549 q 732 316 734 412 l 227 316 q 296 160 231 205 q 393 132 336 132 q 490 166 452 132 q 526 217 510 184 l 723 217 q 654 83 715 151 q 389 -24 559 -24 q 140 66 248 -24 q 32 362 32 157 q 129 656 32 554 q 382 759 227 759 m 395 759 m 129 950 l 611 950 l 611 847 l 129 847 l 129 950 z "},"Ĕ":{"ha":926,"x_min":112,"x_max":869,"o":"m 845 823 l 316 823 l 316 610 l 802 610 l 802 437 l 316 437 l 316 180 l 869 180 l 869 0 l 112 0 l 112 1000 l 845 1000 l 845 823 m 715 1300 q 646 1147 707 1196 q 481 1098 586 1098 q 317 1147 377 1098 q 248 1300 256 1196 l 339 1300 q 404 1215 349 1238 q 481 1202 435 1202 q 559 1215 528 1202 q 624 1300 614 1238 l 715 1300 m 481 1017 z "},"ĕ":{"ha":772,"x_min":32,"x_max":734,"o":"m 382 600 q 278 557 315 600 q 231 444 241 515 l 532 444 q 485 560 527 520 q 382 600 444 600 m 382 759 q 548 724 474 759 q 670 615 622 690 q 726 463 713 549 q 732 316 734 412 l 227 316 q 296 160 231 205 q 393 132 336 132 q 490 166 452 132 q 526 217 510 184 l 723 217 q 654 83 715 151 q 389 -24 559 -24 q 140 66 248 -24 q 32 362 32 157 q 129 656 32 554 q 382 759 227 759 m 395 759 m 631 1068 q 562 915 623 964 q 397 866 502 866 q 233 915 293 866 q 163 1068 172 964 l 255 1068 q 320 983 264 1006 q 397 970 351 970 q 475 983 444 970 q 540 1068 530 1006 l 631 1068 m 397 785 z "},"Ė":{"ha":926,"x_min":112,"x_max":869,"o":"m 845 823 l 316 823 l 316 610 l 802 610 l 802 437 l 316 437 l 316 180 l 869 180 l 869 0 l 112 0 l 112 1000 l 845 1000 l 845 823 m 424 1290 l 600 1290 l 600 1129 l 424 1129 l 424 1290 m 512 1036 z "},"ė":{"ha":772,"x_min":32,"x_max":734,"o":"m 382 600 q 278 557 315 600 q 231 444 241 515 l 532 444 q 485 560 527 520 q 382 600 444 600 m 382 759 q 548 724 474 759 q 670 615 622 690 q 726 463 713 549 q 732 316 734 412 l 227 316 q 296 160 231 205 q 393 132 336 132 q 490 166 452 132 q 526 217 510 184 l 723 217 q 654 83 715 151 q 389 -24 559 -24 q 140 66 248 -24 q 32 362 32 157 q 129 656 32 554 q 382 759 227 759 m 395 759 m 290 1013 l 467 1013 l 467 852 l 290 852 l 290 1013 m 378 759 z "},"Ę":{"ha":926,"x_min":112,"x_max":869,"o":"m 845 823 l 316 823 l 316 610 l 802 610 l 802 437 l 316 437 l 316 180 l 869 180 l 869 0 l 112 0 l 112 1000 l 845 1000 l 845 823 m 629 0 l 583 -33 q 514 -91 536 -66 q 492 -145 492 -115 q 514 -194 492 -176 q 570 -212 536 -212 q 601 -208 585 -212 q 638 -197 617 -204 l 638 -294 q 587 -311 608 -306 q 505 -319 551 -319 q 388 -280 433 -319 q 342 -185 342 -240 q 399 -71 342 -123 q 507 0 433 -41 l 629 0 z "},"ę":{"ha":772,"x_min":32,"x_max":734,"o":"m 382 600 q 278 557 315 600 q 231 444 241 515 l 532 444 q 485 560 527 520 q 382 600 444 600 m 382 759 q 548 724 474 759 q 670 615 622 690 q 726 463 713 549 q 732 316 734 412 l 227 316 q 296 160 231 205 q 393 132 336 132 q 490 166 452 132 q 526 217 510 184 l 723 217 q 654 83 715 151 q 389 -24 559 -24 q 140 66 248 -24 q 32 362 32 157 q 129 656 32 554 q 382 759 227 759 m 395 759 m 492 -4 l 447 -37 q 378 -95 400 -71 q 355 -149 355 -119 q 378 -198 355 -180 q 433 -216 400 -216 q 465 -212 448 -216 q 502 -201 481 -208 l 502 -298 q 451 -315 471 -310 q 368 -323 414 -323 q 252 -284 297 -323 q 206 -189 206 -244 q 263 -75 206 -127 q 370 -4 296 -45 l 492 -4 z "},"Ě":{"ha":926,"x_min":112,"x_max":869,"o":"m 845 823 l 316 823 l 316 610 l 802 610 l 802 437 l 316 437 l 316 180 l 869 180 l 869 0 l 112 0 l 112 1000 l 845 1000 l 845 823 m 396 1107 l 237 1310 l 394 1310 l 483 1195 l 571 1310 l 728 1310 l 570 1107 l 396 1107 m 483 1027 z "},"ě":{"ha":772,"x_min":32,"x_max":734,"o":"m 382 600 q 278 557 315 600 q 231 444 241 515 l 532 444 q 485 560 527 520 q 382 600 444 600 m 382 759 q 548 724 474 759 q 670 615 622 690 q 726 463 713 549 q 732 316 734 412 l 227 316 q 296 160 231 205 q 393 132 336 132 q 490 166 452 132 q 526 217 510 184 l 723 217 q 654 83 715 151 q 389 -24 559 -24 q 140 66 248 -24 q 32 362 32 157 q 129 656 32 554 q 382 759 227 759 m 395 759 m 298 859 l 139 1061 l 296 1061 l 385 947 l 473 1061 l 631 1061 l 472 859 l 298 859 m 385 779 z "},"Ĝ":{"ha":1080,"x_min":58,"x_max":987,"o":"m 778 688 q 662 831 754 790 q 547 853 610 853 q 349 762 427 853 q 271 488 271 671 q 355 227 271 303 q 547 150 439 150 q 719 211 652 150 q 802 370 786 271 l 570 370 l 570 536 l 987 536 l 987 0 l 848 0 l 827 125 q 719 24 767 54 q 515 -26 636 -26 q 190 111 317 -26 q 58 490 58 250 q 191 879 58 732 q 545 1025 325 1025 q 851 929 735 1025 q 983 688 966 832 l 778 688 m 544 1025 m 770 1112 l 612 1112 l 524 1225 l 435 1112 l 278 1112 l 437 1314 l 611 1314 l 770 1112 m 524 1031 z "},"ĝ":{"ha":848,"x_min":45,"x_max":758,"o":"m 408 159 q 522 210 475 159 q 569 373 569 261 q 525 533 569 478 q 406 588 480 588 q 265 492 304 588 q 245 367 245 441 q 267 252 245 302 q 408 159 306 159 m 359 757 q 456 740 415 757 q 570 633 527 711 l 570 739 l 758 739 l 758 38 q 710 -178 758 -105 q 393 -302 627 -302 q 161 -247 251 -302 q 62 -81 72 -191 l 273 -81 q 299 -130 281 -115 q 404 -156 330 -156 q 544 -86 509 -156 q 567 64 567 -41 l 567 112 q 507 41 539 64 q 357 -3 450 -3 q 130 97 215 -3 q 45 368 45 197 q 127 645 45 532 q 359 757 209 757 m 421 759 m 671 873 l 513 873 l 425 987 l 336 873 l 179 873 l 338 1076 l 512 1076 l 671 873 m 425 793 z "},"Ğ":{"ha":1080,"x_min":58,"x_max":987,"o":"m 778 688 q 662 831 754 790 q 547 853 610 853 q 349 762 427 853 q 271 488 271 671 q 355 227 271 303 q 547 150 439 150 q 719 211 652 150 q 802 370 786 271 l 570 370 l 570 536 l 987 536 l 987 0 l 848 0 l 827 125 q 719 24 767 54 q 515 -26 636 -26 q 190 111 317 -26 q 58 490 58 250 q 191 879 58 732 q 545 1025 325 1025 q 851 929 735 1025 q 983 688 966 832 l 778 688 m 544 1025 m 778 1308 q 709 1155 769 1204 q 544 1106 648 1106 q 379 1155 439 1106 q 310 1308 319 1204 l 401 1308 q 467 1223 411 1246 q 544 1211 498 1211 q 621 1223 590 1211 q 686 1308 677 1246 l 778 1308 m 544 1025 z "},"ğ":{"ha":848,"x_min":45,"x_max":758,"o":"m 408 159 q 522 210 475 159 q 569 373 569 261 q 525 533 569 478 q 406 588 480 588 q 265 492 304 588 q 245 367 245 441 q 267 252 245 302 q 408 159 306 159 m 359 757 q 456 740 415 757 q 570 633 527 711 l 570 739 l 758 739 l 758 38 q 710 -178 758 -105 q 393 -302 627 -302 q 161 -247 251 -302 q 62 -81 72 -191 l 273 -81 q 299 -130 281 -115 q 404 -156 330 -156 q 544 -86 509 -156 q 567 64 567 -41 l 567 112 q 507 41 539 64 q 357 -3 450 -3 q 130 97 215 -3 q 45 368 45 197 q 127 645 45 532 q 359 757 209 757 m 421 759 m 655 1042 q 586 889 646 938 q 421 840 526 840 q 256 889 317 840 q 187 1042 196 938 l 279 1042 q 344 957 288 979 q 421 944 375 944 q 498 957 467 944 q 564 1042 554 979 l 655 1042 m 421 759 z "},"Ġ":{"ha":1080,"x_min":58,"x_max":987,"o":"m 778 688 q 662 831 754 790 q 547 853 610 853 q 349 762 427 853 q 271 488 271 671 q 355 227 271 303 q 547 150 439 150 q 719 211 652 150 q 802 370 786 271 l 570 370 l 570 536 l 987 536 l 987 0 l 848 0 l 827 125 q 719 24 767 54 q 515 -26 636 -26 q 190 111 317 -26 q 58 490 58 250 q 191 879 58 732 q 545 1025 325 1025 q 851 929 735 1025 q 983 688 966 832 l 778 688 m 544 1025 m 448 1303 l 625 1303 l 625 1142 l 448 1142 l 448 1303 m 536 1049 z "},"ġ":{"ha":848,"x_min":45,"x_max":758,"o":"m 408 159 q 522 210 475 159 q 569 373 569 261 q 525 533 569 478 q 406 588 480 588 q 265 492 304 588 q 245 367 245 441 q 267 252 245 302 q 408 159 306 159 m 359 757 q 456 740 415 757 q 570 633 527 711 l 570 739 l 758 739 l 758 38 q 710 -178 758 -105 q 393 -302 627 -302 q 161 -247 251 -302 q 62 -81 72 -191 l 273 -81 q 299 -130 281 -115 q 404 -156 330 -156 q 544 -86 509 -156 q 567 64 567 -41 l 567 112 q 507 41 539 64 q 357 -3 450 -3 q 130 97 215 -3 q 45 368 45 197 q 127 645 45 532 q 359 757 209 757 m 421 759 m 310 1043 l 486 1043 l 486 882 l 310 882 l 310 1043 m 398 789 z "},"Ģ":{"ha":1080,"x_min":58,"x_max":987,"o":"m 778 688 q 662 831 754 790 q 547 853 610 853 q 349 762 427 853 q 271 488 271 671 q 355 227 271 303 q 547 150 439 150 q 719 211 652 150 q 802 370 786 271 l 570 370 l 570 536 l 987 536 l 987 0 l 848 0 l 827 125 q 719 24 767 54 q 515 -26 636 -26 q 190 111 317 -26 q 58 490 58 250 q 191 879 58 732 q 545 1025 325 1025 q 851 929 735 1025 q 983 688 966 832 l 778 688 m 544 1025 m 422 -484 q 508 -429 481 -467 q 540 -323 536 -391 l 422 -323 l 422 -121 l 631 -121 l 631 -296 q 619 -392 631 -342 q 574 -479 607 -442 q 489 -538 538 -518 q 422 -558 441 -558 l 422 -484 z "},"ģ":{"ha":848,"x_min":45,"x_max":758,"o":"m 408 159 q 522 210 475 159 q 569 373 569 261 q 525 533 569 478 q 406 588 480 588 q 265 492 304 588 q 245 367 245 441 q 267 252 245 302 q 408 159 306 159 m 359 757 q 456 740 415 757 q 570 633 527 711 l 570 739 l 758 739 l 758 38 q 710 -178 758 -105 q 393 -302 627 -302 q 161 -247 251 -302 q 62 -81 72 -191 l 273 -81 q 299 -130 281 -115 q 404 -156 330 -156 q 544 -86 509 -156 q 567 64 567 -41 l 567 112 q 507 41 539 64 q 357 -3 450 -3 q 130 97 215 -3 q 45 368 45 197 q 127 645 45 532 q 359 757 209 757 m 421 759 m 496 1234 q 411 1179 438 1217 q 379 1073 383 1141 l 496 1073 l 496 871 l 288 871 l 288 1046 q 300 1142 288 1092 q 345 1229 312 1192 q 430 1288 381 1268 q 496 1308 478 1308 l 496 1234 z "},"Ĥ":{"ha":1003,"x_min":104,"x_max":909,"o":"m 104 0 l 104 1000 l 311 1000 l 311 618 l 702 618 l 702 1000 l 909 1000 l 909 0 l 702 0 l 702 446 l 311 446 l 311 0 l 104 0 m 749 1100 l 591 1100 l 503 1214 l 414 1100 l 257 1100 l 416 1303 l 590 1303 l 749 1100 m 503 1020 z "},"ĥ":{"ha":848,"x_min":92,"x_max":758,"o":"m 498 758 q 622 734 566 758 q 714 662 678 711 q 751 577 745 621 q 758 434 758 533 l 758 0 l 561 0 l 561 450 q 541 546 561 509 q 440 597 514 597 q 324 546 363 597 q 284 400 284 495 l 284 0 l 92 0 l 92 996 l 284 996 l 284 643 q 381 733 326 707 q 498 758 437 758 m 634 1082 l 477 1082 l 389 1196 l 300 1082 l 142 1082 l 302 1284 l 475 1284 l 634 1082 m 389 1002 z "},"Ħ":{"ha":1003,"x_min":10,"x_max":991,"o":"m 104 0 l 104 733 l 10 733 l 10 881 l 104 881 l 104 1000 l 311 1000 l 311 881 l 702 881 l 702 1000 l 909 1000 l 909 881 l 991 881 l 991 733 l 909 733 l 909 0 l 702 0 l 702 446 l 311 446 l 311 0 l 104 0 m 702 618 l 702 733 l 311 733 l 311 618 l 702 618 z "},"ħ":{"ha":848,"x_min":-10,"x_max":758,"o":"m 498 758 q 622 734 566 758 q 714 662 678 711 q 751 577 745 621 q 758 434 758 533 l 758 0 l 561 0 l 561 450 q 541 546 561 509 q 440 597 514 597 q 324 546 363 597 q 284 400 284 495 l 284 0 l 92 0 l 92 996 l 284 996 l 284 643 q 381 733 326 707 q 498 758 437 758 m -10 917 l 472 917 l 472 814 l -10 814 l -10 917 z "},"Ĩ":{"ha":583,"x_min":-3,"x_max":507,"o":"m 351 0 l 144 0 l 144 1000 l 351 1000 l 351 0 m 248 1019 m 165 1274 q 201 1270 183 1274 q 231 1261 218 1265 l 294 1237 q 332 1225 323 1227 q 351 1222 340 1222 q 397 1239 384 1222 q 416 1280 410 1257 l 507 1280 q 458 1161 494 1209 q 352 1113 422 1113 q 292 1123 331 1113 q 250 1135 270 1128 l 195 1154 q 172 1159 183 1158 q 151 1161 161 1161 q 109 1146 125 1161 q 85 1103 92 1131 l -3 1103 q 36 1209 12 1173 q 165 1274 79 1274 m 252 1014 z "},"ĩ":{"ha":597,"x_min":1,"x_max":510,"o":"m 156 739 l 352 739 l 352 0 l 156 0 l 156 739 m 254 759 m 168 1088 q 204 1084 186 1088 q 234 1075 222 1080 l 298 1051 q 335 1039 326 1042 q 355 1036 344 1036 q 400 1054 387 1036 q 420 1095 414 1071 l 510 1095 q 461 975 498 1023 q 355 927 425 927 q 296 937 334 927 q 253 949 273 943 l 198 968 q 176 974 186 972 q 154 975 165 975 q 112 960 128 975 q 89 918 96 945 l 1 918 q 39 1023 16 987 q 168 1088 83 1088 m 256 828 z "},"Ī":{"ha":590,"x_min":7,"x_max":489,"o":"m 343 0 l 136 0 l 136 1000 l 343 1000 l 343 0 m 239 1019 m 7 1237 l 489 1237 l 489 1134 l 7 1134 l 7 1237 z "},"ī":{"ha":583,"x_min":8,"x_max":490,"o":"m 143 739 l 339 739 l 339 0 l 143 0 l 143 739 m 241 759 m 8 998 l 490 998 l 490 895 l 8 895 l 8 998 z "},"Ĭ":{"ha":386,"x_min":-35,"x_max":433,"o":"m 297 0 l 90 0 l 90 1000 l 297 1000 l 297 0 m 193 1019 m 433 1252 q 363 1099 424 1148 q 199 1050 303 1050 q 34 1099 94 1050 q -35 1252 -26 1148 l 56 1252 q 121 1167 66 1190 q 199 1154 153 1154 q 276 1167 245 1154 q 341 1252 332 1190 l 433 1252 m 199 969 z "},"ĭ":{"ha":386,"x_min":-37,"x_max":431,"o":"m 93 739 l 289 739 l 289 0 l 93 0 l 93 739 m 191 759 m 431 1062 q 361 909 422 958 q 197 860 301 860 q 32 909 92 860 q -37 1062 -28 958 l 54 1062 q 119 977 64 1000 q 197 964 151 964 q 274 977 243 964 q 339 1062 330 1000 l 431 1062 m 197 779 z "},"Į":{"ha":386,"x_min":7,"x_max":303,"o":"m 297 0 l 90 0 l 90 1000 l 297 1000 l 297 0 m 193 1019 m 294 0 l 248 -33 q 179 -91 201 -66 q 157 -145 157 -115 q 179 -194 157 -176 q 235 -212 201 -212 q 266 -208 250 -212 q 303 -197 282 -204 l 303 -294 q 252 -311 273 -306 q 170 -319 216 -319 q 53 -280 98 -319 q 7 -185 7 -240 q 64 -71 7 -123 q 172 0 98 -41 l 294 0 z "},"į":{"ha":386,"x_min":2,"x_max":298,"o":"m 289 827 l 93 827 l 93 1006 l 289 1006 l 289 827 m 93 739 l 289 739 l 289 0 l 93 0 l 93 739 m 288 0 l 243 -33 q 174 -91 196 -66 q 151 -145 151 -115 q 174 -194 151 -176 q 229 -212 196 -212 q 260 -208 244 -212 q 298 -197 277 -204 l 298 -294 q 247 -311 267 -306 q 164 -319 210 -319 q 47 -280 93 -319 q 2 -185 2 -240 q 59 -71 2 -123 q 166 0 92 -41 l 288 0 z "},"İ":{"ha":386,"x_min":90,"x_max":297,"o":"m 297 0 l 90 0 l 90 1000 l 297 1000 l 297 0 m 193 1019 m 105 1273 l 281 1273 l 281 1112 l 105 1112 l 105 1273 m 193 1019 z "},"ı":{"ha":386,"x_min":93,"x_max":289,"o":"m 93 739 l 289 739 l 289 0 l 93 0 l 93 739 m 191 759 z "},"Ĳ":{"ha":1158,"x_min":90,"x_max":1057,"o":"m 297 0 l 90 0 l 90 1000 l 297 1000 l 297 0 m 193 1019 m 614 379 l 614 356 q 639 193 616 240 q 736 146 662 146 q 834 197 810 146 q 848 300 848 228 l 848 1000 l 1057 1000 l 1057 304 q 1013 102 1057 176 q 744 -24 939 -24 q 483 78 549 -24 q 416 356 416 180 l 416 379 l 614 379 z "},"ĳ":{"ha":772,"x_min":93,"x_max":678,"o":"m 289 827 l 93 827 l 93 1006 l 289 1006 l 289 827 m 93 739 l 289 739 l 289 0 l 93 0 l 93 739 m 678 827 l 485 827 l 485 1006 l 678 1006 l 678 827 m 392 -142 q 415 -143 408 -143 q 427 -144 422 -144 q 470 -130 456 -144 q 485 -76 485 -116 l 485 736 l 678 736 l 678 -79 q 634 -245 678 -191 q 461 -298 590 -298 q 435 -298 452 -298 q 392 -296 418 -297 l 392 -142 z "},"Ĵ":{"ha":772,"x_min":31,"x_max":806,"o":"m 228 379 l 228 356 q 253 193 231 240 q 351 146 276 146 q 448 197 425 146 q 463 300 463 228 l 463 1000 l 671 1000 l 671 304 q 627 102 671 176 q 358 -24 553 -24 q 97 78 163 -24 q 31 356 31 180 l 31 379 l 228 379 m 806 1091 l 649 1091 l 561 1205 l 472 1091 l 315 1091 l 474 1294 l 648 1294 l 806 1091 m 561 1011 z "},"ĵ":{"ha":431,"x_min":-37,"x_max":454,"o":"m 6 -142 q 29 -143 22 -143 q 41 -144 36 -144 q 84 -130 70 -144 q 99 -76 99 -116 l 99 736 l 292 736 l 292 -79 q 248 -245 292 -191 q 75 -298 204 -298 q 49 -298 66 -298 q 6 -296 32 -297 l 6 -142 m 454 840 l 297 840 l 209 954 l 120 840 l -37 840 l 122 1042 l 296 1042 l 454 840 m 209 760 z "},"Ķ":{"ha":1003,"x_min":109,"x_max":991,"o":"m 109 1000 l 315 1000 l 315 588 l 701 1000 l 970 1000 l 561 588 l 991 0 l 723 0 l 414 437 l 315 334 l 315 0 l 109 0 l 109 1000 m 365 -469 q 451 -415 423 -453 q 482 -309 478 -377 l 365 -309 l 365 -106 l 574 -106 l 574 -281 q 562 -378 574 -328 q 516 -465 549 -428 q 432 -524 480 -504 q 365 -544 383 -544 l 365 -469 z "},"ķ":{"ha":772,"x_min":88,"x_max":768,"o":"m 88 996 l 278 996 l 278 458 l 519 736 l 758 736 l 500 453 l 768 0 l 535 0 l 358 316 l 278 233 l 278 0 l 88 0 l 88 996 m 291 -456 q 377 -401 349 -439 q 408 -295 404 -363 l 291 -295 l 291 -93 l 500 -93 l 500 -268 q 488 -364 500 -314 q 442 -451 475 -414 q 358 -510 406 -490 q 291 -530 309 -530 l 291 -456 z "},"ĸ":{"ha":772,"x_min":88,"x_max":768,"o":"m 88 736 l 278 736 l 278 458 l 519 736 l 758 736 l 500 453 l 768 0 l 535 0 l 358 316 l 278 233 l 278 0 l 88 0 l 88 736 z "},"Ĺ":{"ha":848,"x_min":106,"x_max":810,"o":"m 106 1000 l 315 1000 l 315 180 l 810 180 l 810 0 l 106 0 l 106 1000 m 470 1295 l 264 1092 l 124 1092 l 254 1295 l 470 1295 m 239 1012 z "},"ĺ":{"ha":424,"x_min":94,"x_max":443,"o":"m 288 0 l 94 0 l 94 1000 l 288 1000 l 288 0 m 443 1291 l 237 1088 l 97 1088 l 227 1291 l 443 1291 m 212 1008 z "},"Ļ":{"ha":848,"x_min":106,"x_max":810,"o":"m 106 1000 l 315 1000 l 315 180 l 810 180 l 810 0 l 106 0 l 106 1000 m 331 -476 q 417 -422 389 -460 q 448 -315 444 -384 l 331 -315 l 331 -113 l 540 -113 l 540 -288 q 528 -385 540 -334 q 482 -471 515 -435 q 398 -531 446 -511 q 331 -551 349 -551 l 331 -476 z "},"ļ":{"ha":386,"x_min":94,"x_max":309,"o":"m 288 0 l 94 0 l 94 1000 l 288 1000 l 288 0 m 100 -483 q 186 -429 159 -467 q 218 -322 214 -391 l 100 -322 l 100 -120 l 309 -120 l 309 -295 q 297 -391 309 -341 q 252 -478 285 -441 q 167 -537 216 -517 q 100 -557 119 -557 l 100 -483 z "},"Ľ":{"ha":848,"x_min":106,"x_max":810,"o":"m 106 1000 l 315 1000 l 315 180 l 810 180 l 810 0 l 106 0 l 106 1000 m 601 637 q 687 691 659 653 q 718 798 714 729 l 601 798 l 601 1000 l 810 1000 l 810 825 q 798 728 810 779 q 752 642 785 678 q 668 582 716 602 q 601 562 619 562 l 601 637 z "},"ľ":{"ha":579,"x_min":94,"x_max":566,"o":"m 357 637 q 443 691 415 653 q 474 798 470 729 l 357 798 l 357 1000 l 566 1000 l 566 825 q 553 728 566 779 q 508 642 541 678 q 424 582 472 602 q 357 562 375 562 l 357 637 m 288 0 l 94 0 l 94 1000 l 288 1000 l 288 0 z "},"Ŀ":{"ha":848,"x_min":106,"x_max":810,"o":"m 106 1000 l 315 1000 l 315 180 l 810 180 l 810 0 l 106 0 l 106 1000 m 447 633 l 623 633 l 623 473 l 447 473 l 447 633 m 535 380 z "},"ŀ":{"ha":549,"x_min":94,"x_max":533,"o":"m 288 0 l 94 0 l 94 1000 l 288 1000 l 288 0 m 357 635 l 533 635 l 533 475 l 357 475 l 357 635 m 445 382 z "},"Ł":{"ha":848,"x_min":-10,"x_max":810,"o":"m 810 0 l 106 0 l 106 384 l -10 310 l -10 441 l 106 513 l 106 1000 l 315 1000 l 315 638 l 521 762 l 521 635 l 315 511 l 315 180 l 810 180 l 810 0 z "},"ł":{"ha":386,"x_min":-16,"x_max":398,"o":"m 288 0 l 94 0 l 94 385 l -16 315 l -16 435 l 94 506 l 94 1000 l 288 1000 l 288 625 l 398 696 l 398 576 l 288 506 l 288 0 z "},"Ń":{"ha":1003,"x_min":102,"x_max":914,"o":"m 102 1000 l 321 1000 l 720 302 l 720 1000 l 914 1000 l 914 0 l 705 0 l 297 710 l 297 0 l 102 0 l 102 1000 m 516 1002 m 733 1275 l 527 1072 l 387 1072 l 517 1275 l 733 1275 m 502 992 z "},"ń":{"ha":848,"x_min":92,"x_max":760,"o":"m 500 757 q 687 697 614 757 q 760 498 760 637 l 760 0 l 562 0 l 562 450 q 547 539 562 508 q 438 596 518 596 q 303 513 340 596 q 284 400 284 469 l 284 0 l 92 0 l 92 738 l 278 738 l 278 630 q 349 712 315 687 q 500 757 408 757 m 429 759 m 706 1069 l 500 866 l 360 866 l 490 1069 l 706 1069 m 475 786 z "},"Ņ":{"ha":1003,"x_min":102,"x_max":914,"o":"m 102 1000 l 321 1000 l 720 302 l 720 1000 l 914 1000 l 914 0 l 705 0 l 297 710 l 297 0 l 102 0 l 102 1000 m 516 1002 m 378 -437 q 464 -382 437 -420 q 496 -276 492 -345 l 378 -276 l 378 -74 l 587 -74 l 587 -249 q 575 -345 587 -295 q 530 -432 563 -395 q 445 -491 494 -471 q 378 -511 397 -511 l 378 -437 z "},"ņ":{"ha":848,"x_min":92,"x_max":760,"o":"m 500 757 q 687 697 614 757 q 760 498 760 637 l 760 0 l 562 0 l 562 450 q 547 539 562 508 q 438 596 518 596 q 303 513 340 596 q 284 400 284 469 l 284 0 l 92 0 l 92 738 l 278 738 l 278 630 q 349 712 315 687 q 500 757 408 757 m 429 759 m 311 -436 q 396 -382 369 -420 q 428 -275 424 -344 l 311 -275 l 311 -73 l 519 -73 l 519 -248 q 507 -345 519 -294 q 462 -431 495 -395 q 377 -491 426 -471 q 311 -511 329 -511 l 311 -436 z "},"Ň":{"ha":1003,"x_min":102,"x_max":914,"o":"m 102 1000 l 321 1000 l 720 302 l 720 1000 l 914 1000 l 914 0 l 705 0 l 297 710 l 297 0 l 102 0 l 102 1000 m 516 1002 m 451 1065 l 292 1267 l 449 1267 l 538 1153 l 626 1267 l 783 1267 l 625 1065 l 451 1065 m 538 985 z "},"ň":{"ha":848,"x_min":92,"x_max":760,"o":"m 500 757 q 687 697 614 757 q 760 498 760 637 l 760 0 l 562 0 l 562 450 q 547 539 562 508 q 438 596 518 596 q 303 513 340 596 q 284 400 284 469 l 284 0 l 92 0 l 92 738 l 278 738 l 278 630 q 349 712 315 687 q 500 757 408 757 m 429 759 m 374 863 l 214 1065 l 372 1065 l 460 951 l 549 1065 l 706 1065 l 547 863 l 374 863 m 460 783 z "},"ŉ":{"ha":848,"x_min":92,"x_max":760,"o":"m 500 757 q 687 697 614 757 q 760 498 760 637 l 760 0 l 562 0 l 562 450 q 547 539 562 508 q 438 596 518 596 q 303 513 340 596 q 284 400 284 469 l 284 0 l 92 0 l 92 738 l 278 738 l 278 630 q 349 712 315 687 q 500 757 408 757 m 429 759 m 92 903 q 177 957 150 919 q 209 1063 205 995 l 92 1063 l 92 1265 l 300 1265 l 300 1090 q 288 994 300 1044 q 243 907 276 944 q 158 848 207 868 q 92 828 110 828 l 92 903 z "},"Ŋ":{"ha":1003,"x_min":102,"x_max":914,"o":"m 628 -142 q 651 -143 644 -143 q 663 -144 658 -144 q 706 -130 692 -144 q 721 -76 721 -116 l 721 0 l 705 0 l 297 710 l 297 0 l 102 0 l 102 1000 l 321 1000 l 720 302 l 720 1000 l 914 1000 l 914 -79 q 870 -245 914 -191 q 697 -298 826 -298 q 671 -298 688 -298 q 628 -296 654 -297 l 628 -142 z "},"ŋ":{"ha":848,"x_min":92,"x_max":760,"o":"m 474 -142 q 497 -143 490 -143 q 509 -144 504 -144 q 552 -130 538 -144 q 567 -76 567 -116 l 567 0 l 562 0 l 562 450 q 547 539 562 508 q 438 596 518 596 q 303 513 340 596 q 284 400 284 469 l 284 0 l 92 0 l 92 738 l 278 738 l 278 630 q 349 712 315 687 q 500 757 408 757 q 687 697 614 757 q 760 498 760 637 l 760 -79 q 716 -245 760 -191 q 543 -298 672 -298 q 517 -298 534 -298 q 474 -296 500 -297 l 474 -142 z "},"Ō":{"ha":1080,"x_min":68,"x_max":1027,"o":"m 548 149 q 745 241 672 149 q 818 501 818 332 q 745 761 818 669 q 548 853 672 853 q 350 762 424 853 q 276 501 276 670 q 350 241 276 332 q 548 149 424 149 m 1027 501 q 876 89 1027 232 q 548 -28 762 -28 q 220 89 334 -28 q 68 501 68 232 q 220 913 68 776 q 548 1030 334 1030 q 876 913 762 1030 q 1027 501 1027 776 m 548 1030 m 287 1238 l 769 1238 l 769 1135 l 287 1135 l 287 1238 z "},"ō":{"ha":848,"x_min":45,"x_max":800,"o":"m 422 136 q 552 197 507 136 q 597 368 597 257 q 552 539 597 479 q 422 600 507 600 q 291 539 337 600 q 245 368 245 479 q 291 197 245 257 q 422 136 337 136 m 800 368 q 707 90 800 205 q 422 -26 613 -26 q 138 90 232 -26 q 45 368 45 205 q 138 646 45 528 q 422 763 232 763 q 707 646 613 763 q 800 368 800 528 m 422 759 m 176 1002 l 658 1002 l 658 899 l 176 899 l 176 1002 z "},"Ŏ":{"ha":1080,"x_min":68,"x_max":1027,"o":"m 548 149 q 745 241 672 149 q 818 501 818 332 q 745 761 818 669 q 548 853 672 853 q 350 762 424 853 q 276 501 276 670 q 350 241 276 332 q 548 149 424 149 m 1027 501 q 876 89 1027 232 q 548 -28 762 -28 q 220 89 334 -28 q 68 501 68 232 q 220 913 68 776 q 548 1030 334 1030 q 876 913 762 1030 q 1027 501 1027 776 m 548 1030 m 764 1334 q 695 1181 755 1230 q 530 1132 635 1132 q 366 1181 426 1132 q 296 1334 305 1230 l 388 1334 q 453 1249 397 1272 q 530 1236 484 1236 q 608 1249 576 1236 q 673 1334 663 1272 l 764 1334 m 530 1051 z "},"ŏ":{"ha":848,"x_min":45,"x_max":800,"o":"m 422 136 q 552 197 507 136 q 597 368 597 257 q 552 539 597 479 q 422 600 507 600 q 291 539 337 600 q 245 368 245 479 q 291 197 245 257 q 422 136 337 136 m 800 368 q 707 90 800 205 q 422 -26 613 -26 q 138 90 232 -26 q 45 368 45 205 q 138 646 45 528 q 422 763 232 763 q 707 646 613 763 q 800 368 800 528 m 422 759 m 645 1074 q 576 921 636 970 q 411 872 515 872 q 246 921 307 872 q 177 1074 186 970 l 269 1074 q 334 989 278 1012 q 411 977 365 977 q 488 989 457 977 q 553 1074 544 1012 l 645 1074 m 411 791 z "},"Ő":{"ha":1080,"x_min":68,"x_max":1027,"o":"m 548 149 q 745 241 672 149 q 818 501 818 332 q 745 761 818 669 q 548 853 672 853 q 350 762 424 853 q 276 501 276 670 q 350 241 276 332 q 548 149 424 149 m 1027 501 q 876 89 1027 232 q 548 -28 762 -28 q 220 89 334 -28 q 68 501 68 232 q 220 913 68 776 q 548 1030 334 1030 q 876 913 762 1030 q 1027 501 1027 776 m 548 1030 m 699 1324 l 897 1324 l 731 1126 l 598 1126 l 699 1324 m 599 1324 l 433 1126 l 300 1126 l 401 1324 l 599 1324 z "},"ő":{"ha":848,"x_min":45,"x_max":800,"o":"m 422 136 q 552 197 507 136 q 597 368 597 257 q 552 539 597 479 q 422 600 507 600 q 291 539 337 600 q 245 368 245 479 q 291 197 245 257 q 422 136 337 136 m 800 368 q 707 90 800 205 q 422 -26 613 -26 q 138 90 232 -26 q 45 368 45 205 q 138 646 45 528 q 422 763 232 763 q 707 646 613 763 q 800 368 800 528 m 422 759 m 595 1087 l 793 1087 l 627 889 l 494 889 l 595 1087 m 495 1087 l 330 889 l 197 889 l 298 1087 l 495 1087 z "},"Œ":{"ha":1389,"x_min":51,"x_max":1334,"o":"m 492 142 q 618 183 568 142 q 669 271 669 224 l 669 715 q 623 806 669 768 q 490 845 576 845 q 312 740 369 845 q 255 488 255 635 q 314 244 255 347 q 492 142 373 142 m 51 498 q 176 897 51 730 q 456 1021 287 1021 q 606 988 543 1021 q 682 930 640 970 l 682 996 l 1334 996 l 1334 823 l 871 823 l 871 604 l 1302 604 l 1302 437 l 871 437 l 871 176 l 1334 176 l 1334 0 l 682 0 l 682 68 q 588 -5 646 16 q 458 -26 530 -26 q 176 99 287 -26 q 51 498 51 265 z "},"œ":{"ha":1311,"x_min":43,"x_max":1263,"o":"m 406 130 q 543 197 503 130 q 583 364 583 263 q 545 537 583 474 q 409 600 506 600 q 263 501 302 600 q 242 368 242 450 q 283 191 242 251 q 406 130 325 130 m 410 755 q 570 726 507 755 q 675 648 633 696 q 768 722 729 701 q 926 755 833 755 q 1082 721 1013 755 q 1200 621 1151 686 q 1253 486 1239 569 q 1263 321 1263 431 l 758 321 q 801 183 762 235 q 912 132 840 132 q 1010 151 972 132 q 1061 218 1047 170 l 1253 218 q 1154 50 1240 123 q 907 -23 1067 -23 q 748 14 816 -23 q 662 83 709 36 q 583 17 625 40 q 401 -24 510 -24 q 139 83 236 -24 q 43 363 43 191 q 144 652 43 549 q 410 755 245 755 m 1067 446 q 1045 538 1065 503 q 909 606 1007 606 q 829 586 864 606 q 760 446 764 547 l 1067 446 z "},"Ŕ":{"ha":1003,"x_min":111,"x_max":945,"o":"m 315 826 l 315 557 l 551 557 q 657 574 622 557 q 720 686 720 602 q 659 808 720 777 q 557 826 625 826 l 315 826 m 601 1000 q 763 974 706 998 q 859 904 819 950 q 910 820 891 866 q 929 715 929 774 q 893 575 929 644 q 774 477 857 506 q 872 398 844 450 q 901 242 901 347 l 901 175 q 907 82 901 106 q 945 25 915 43 l 945 0 l 715 0 q 701 54 705 33 q 692 140 693 96 l 691 233 q 656 360 690 328 q 530 392 623 392 l 315 392 l 315 0 l 111 0 l 111 1000 l 601 1000 m 717 1314 l 511 1111 l 371 1111 l 501 1314 l 717 1314 m 486 1031 z "},"ŕ":{"ha":541,"x_min":88,"x_max":517,"o":"m 492 757 q 501 756 497 757 q 517 755 505 756 l 517 557 q 485 560 499 559 q 462 561 471 561 q 305 485 345 561 q 283 353 283 442 l 283 0 l 88 0 l 88 739 l 273 739 l 273 610 q 351 711 317 684 q 492 757 405 757 m 463 1068 l 256 865 l 117 865 l 247 1068 l 463 1068 m 231 785 z "},"Ŗ":{"ha":1003,"x_min":111,"x_max":945,"o":"m 315 826 l 315 557 l 551 557 q 657 574 622 557 q 720 686 720 602 q 659 808 720 777 q 557 826 625 826 l 315 826 m 601 1000 q 763 974 706 998 q 859 904 819 950 q 910 820 891 866 q 929 715 929 774 q 893 575 929 644 q 774 477 857 506 q 872 398 844 450 q 901 242 901 347 l 901 175 q 907 82 901 106 q 945 25 915 43 l 945 0 l 715 0 q 701 54 705 33 q 692 140 693 96 l 691 233 q 656 360 690 328 q 530 392 623 392 l 315 392 l 315 0 l 111 0 l 111 1000 l 601 1000 m 392 -435 q 478 -381 450 -419 q 509 -275 505 -343 l 392 -275 l 392 -73 l 601 -73 l 601 -248 q 589 -344 601 -294 q 543 -431 576 -394 q 459 -490 507 -470 q 392 -510 410 -510 l 392 -435 z "},"ŗ":{"ha":541,"x_min":87,"x_max":517,"o":"m 492 757 q 501 756 497 757 q 517 755 505 756 l 517 557 q 485 560 499 559 q 462 561 471 561 q 305 485 345 561 q 283 353 283 442 l 283 0 l 88 0 l 88 739 l 273 739 l 273 610 q 351 711 317 684 q 492 757 405 757 m 87 -463 q 173 -408 145 -446 q 204 -302 200 -370 l 87 -302 l 87 -100 l 296 -100 l 296 -275 q 283 -371 296 -321 q 238 -458 271 -421 q 154 -517 202 -497 q 87 -537 105 -537 l 87 -463 z "},"Ř":{"ha":1003,"x_min":111,"x_max":945,"o":"m 315 826 l 315 557 l 551 557 q 657 574 622 557 q 720 686 720 602 q 659 808 720 777 q 557 826 625 826 l 315 826 m 601 1000 q 763 974 706 998 q 859 904 819 950 q 910 820 891 866 q 929 715 929 774 q 893 575 929 644 q 774 477 857 506 q 872 398 844 450 q 901 242 901 347 l 901 175 q 907 82 901 106 q 945 25 915 43 l 945 0 l 715 0 q 701 54 705 33 q 692 140 693 96 l 691 233 q 656 360 690 328 q 530 392 623 392 l 315 392 l 315 0 l 111 0 l 111 1000 l 601 1000 m 396 1114 l 237 1316 l 394 1316 l 483 1202 l 571 1316 l 728 1316 l 570 1114 l 396 1114 m 483 1034 z "},"ř":{"ha":541,"x_min":37,"x_max":528,"o":"m 492 757 q 501 756 497 757 q 517 755 505 756 l 517 557 q 485 560 499 559 q 462 561 471 561 q 305 485 345 561 q 283 353 283 442 l 283 0 l 88 0 l 88 739 l 273 739 l 273 610 q 351 711 317 684 q 492 757 405 757 m 196 862 l 37 1065 l 194 1065 l 283 950 l 371 1065 l 528 1065 l 370 862 l 196 862 m 283 782 z "},"Ś":{"ha":926,"x_min":58,"x_max":878,"o":"m 257 309 q 294 206 267 240 q 469 144 345 144 q 589 161 543 144 q 676 277 676 192 q 633 353 676 326 q 496 400 589 380 l 391 424 q 175 500 235 459 q 74 717 74 570 q 172 940 74 851 q 458 1029 269 1029 q 728 945 616 1029 q 845 702 840 861 l 644 702 q 566 830 639 792 q 444 855 517 855 q 315 823 363 855 q 267 732 267 790 q 315 652 267 678 q 445 610 345 634 l 617 569 q 788 496 730 542 q 878 292 878 426 q 773 65 878 155 q 477 -26 668 -26 q 170 63 281 -26 q 58 309 58 153 l 257 309 m 460 1030 m 709 1337 l 503 1134 l 363 1134 l 493 1337 l 709 1337 m 477 1054 z "},"ś":{"ha":772,"x_min":45,"x_max":720,"o":"m 241 236 q 267 163 247 184 q 400 124 303 124 q 491 141 457 124 q 524 192 524 158 q 497 241 524 224 q 296 300 470 258 q 119 378 170 331 q 67 511 67 424 q 148 687 67 613 q 374 760 228 760 q 599 705 512 760 q 699 514 686 650 l 506 514 q 485 573 502 551 q 376 612 453 612 q 287 593 313 612 q 260 547 260 573 q 288 498 260 513 q 490 445 317 483 q 663 363 605 418 q 720 224 720 307 q 638 44 720 114 q 385 -25 556 -25 q 128 48 211 -25 q 45 236 45 122 l 241 236 m 389 759 m 625 1074 l 419 871 l 279 871 l 410 1074 l 625 1074 m 394 791 z "},"Ŝ":{"ha":926,"x_min":58,"x_max":878,"o":"m 257 309 q 294 206 267 240 q 469 144 345 144 q 589 161 543 144 q 676 277 676 192 q 633 353 676 326 q 496 400 589 380 l 391 424 q 175 500 235 459 q 74 717 74 570 q 172 940 74 851 q 458 1029 269 1029 q 728 945 616 1029 q 845 702 840 861 l 644 702 q 566 830 639 792 q 444 855 517 855 q 315 823 363 855 q 267 732 267 790 q 315 652 267 678 q 445 610 345 634 l 617 569 q 788 496 730 542 q 878 292 878 426 q 773 65 878 155 q 477 -26 668 -26 q 170 63 281 -26 q 58 309 58 153 l 257 309 m 460 1030 m 724 1124 l 567 1124 l 479 1238 l 390 1124 l 233 1124 l 392 1326 l 566 1326 l 724 1124 m 479 1044 z "},"ŝ":{"ha":772,"x_min":45,"x_max":720,"o":"m 241 236 q 267 163 247 184 q 400 124 303 124 q 491 141 457 124 q 524 192 524 158 q 497 241 524 224 q 296 300 470 258 q 119 378 170 331 q 67 511 67 424 q 148 687 67 613 q 374 760 228 760 q 599 705 512 760 q 699 514 686 650 l 506 514 q 485 573 502 551 q 376 612 453 612 q 287 593 313 612 q 260 547 260 573 q 288 498 260 513 q 490 445 317 483 q 663 363 605 418 q 720 224 720 307 q 638 44 720 114 q 385 -25 556 -25 q 128 48 211 -25 q 45 236 45 122 l 241 236 m 389 759 m 632 869 l 475 869 l 387 983 l 298 869 l 140 869 l 300 1072 l 473 1072 l 632 869 m 387 789 z "},"Ş":{"ha":926,"x_min":58,"x_max":878,"o":"m 257 309 q 294 206 267 240 q 469 144 345 144 q 589 161 543 144 q 676 277 676 192 q 633 353 676 326 q 496 400 589 380 l 391 424 q 175 500 235 459 q 74 717 74 570 q 172 940 74 851 q 458 1029 269 1029 q 728 945 616 1029 q 845 702 840 861 l 644 702 q 566 830 639 792 q 444 855 517 855 q 315 823 363 855 q 267 732 267 790 q 315 652 267 678 q 445 610 345 634 l 617 569 q 788 496 730 542 q 878 292 878 426 q 773 65 878 155 q 480 -26 668 -26 l 438 -89 q 470 -82 460 -84 q 490 -81 479 -81 q 578 -107 545 -81 q 610 -184 610 -134 q 559 -283 610 -247 q 429 -319 509 -319 q 345 -305 394 -319 q 282 -283 323 -298 l 308 -225 q 361 -240 347 -237 q 414 -248 393 -248 q 472 -231 454 -248 q 490 -195 490 -214 q 470 -155 490 -166 q 428 -143 450 -143 q 401 -146 415 -143 q 371 -155 388 -149 l 342 -127 l 409 -26 q 170 63 281 -26 q 58 309 58 153 l 257 309 z "},"ş":{"ha":772,"x_min":45,"x_max":720,"o":"m 241 236 q 267 163 247 184 q 400 124 303 124 q 491 141 457 124 q 524 192 524 158 q 497 241 524 224 q 296 300 470 258 q 119 377 170 331 q 67 511 67 424 q 148 687 67 613 q 374 760 228 760 q 599 705 512 760 q 699 514 686 650 l 506 514 q 485 573 502 551 q 376 612 453 612 q 287 593 313 612 q 260 547 260 573 q 288 498 260 513 q 490 445 317 483 q 720 224 720 390 q 638 44 720 114 q 404 -25 556 -25 l 361 -89 q 393 -82 383 -84 q 413 -81 402 -81 q 500 -107 468 -81 q 533 -184 533 -134 q 482 -283 533 -247 q 351 -319 431 -319 q 268 -305 317 -319 q 205 -283 245 -298 l 231 -225 q 283 -240 269 -237 q 336 -248 316 -248 q 395 -231 377 -248 q 412 -195 412 -214 q 393 -155 412 -166 q 351 -143 373 -143 q 324 -146 338 -143 q 294 -155 311 -149 l 264 -127 l 330 -25 q 128 48 211 -25 q 45 236 45 122 l 241 236 z "},"Š":{"ha":926,"x_min":58,"x_max":878,"o":"m 257 309 q 294 206 267 240 q 469 144 345 144 q 589 161 543 144 q 676 277 676 192 q 633 353 676 326 q 496 400 589 380 l 391 424 q 175 500 235 459 q 74 717 74 570 q 172 940 74 851 q 458 1029 269 1029 q 728 945 616 1029 q 845 702 840 861 l 644 702 q 566 830 639 792 q 444 855 517 855 q 315 823 363 855 q 267 732 267 790 q 315 652 267 678 q 445 610 345 634 l 617 569 q 788 496 730 542 q 878 292 878 426 q 773 65 878 155 q 477 -26 668 -26 q 170 63 281 -26 q 58 309 58 153 l 257 309 m 460 1030 m 373 1110 l 214 1313 l 371 1313 l 460 1198 l 548 1313 l 705 1313 l 547 1110 l 373 1110 m 460 1030 z "},"š":{"ha":772,"x_min":45,"x_max":720,"o":"m 241 236 q 267 163 247 184 q 400 124 303 124 q 491 141 457 124 q 524 192 524 158 q 497 241 524 224 q 296 300 470 258 q 119 378 170 331 q 67 511 67 424 q 148 687 67 613 q 374 760 228 760 q 599 705 512 760 q 699 514 686 650 l 506 514 q 485 573 502 551 q 376 612 453 612 q 287 593 313 612 q 260 547 260 573 q 288 498 260 513 q 490 445 317 483 q 663 363 605 418 q 720 224 720 307 q 638 44 720 114 q 385 -25 556 -25 q 128 48 211 -25 q 45 236 45 122 l 241 236 m 389 759 m 302 839 l 142 1042 l 300 1042 l 389 927 l 477 1042 l 634 1042 l 475 839 l 302 839 m 389 759 z "},"Ţ":{"ha":848,"x_min":22,"x_max":832,"o":"m 832 1000 l 832 823 l 533 823 l 533 0 l 323 0 l 323 823 l 22 823 l 22 1000 l 832 1000 m 471 -81 q 559 -107 526 -81 q 591 -184 591 -134 q 541 -283 591 -247 q 410 -319 490 -319 q 326 -305 375 -319 q 263 -283 304 -298 l 289 -225 q 342 -240 328 -237 q 395 -248 374 -248 q 453 -231 435 -248 q 471 -195 471 -214 q 451 -155 471 -166 q 409 -143 431 -143 q 382 -146 396 -143 q 352 -155 369 -149 l 264 -75 l 405 0 l 479 0 l 419 -89 q 451 -82 441 -84 q 471 -81 460 -81 z "},"ţ":{"ha":463,"x_min":14,"x_max":480,"o":"m 14 595 l 14 732 l 117 732 l 117 939 l 309 939 l 309 732 l 429 732 l 429 595 l 309 595 l 309 204 q 320 148 309 159 q 391 136 332 136 q 409 137 399 136 q 429 138 419 137 l 429 -7 l 337 -10 q 150 37 200 -15 q 117 140 117 71 l 117 595 l 14 595 m 360 -81 q 448 -107 415 -81 q 480 -184 480 -134 q 429 -283 480 -247 q 298 -319 378 -319 q 215 -305 264 -319 q 152 -283 193 -298 l 178 -225 q 231 -240 216 -237 q 283 -248 263 -248 q 342 -231 324 -248 q 359 -195 359 -214 q 340 -155 359 -166 q 298 -143 320 -143 q 271 -146 285 -143 q 241 -155 258 -149 l 153 -75 l 294 0 l 368 0 l 308 -89 q 340 -82 330 -84 q 360 -81 349 -81 z "},"Ť":{"ha":848,"x_min":22,"x_max":832,"o":"m 832 1000 l 832 823 l 533 823 l 533 0 l 323 0 l 323 823 l 22 823 l 22 1000 l 832 1000 m 341 1115 l 182 1318 l 339 1318 l 428 1203 l 516 1318 l 673 1318 l 515 1115 l 341 1115 m 428 1035 z "},"ť":{"ha":646,"x_min":14,"x_max":631,"o":"m 422 867 q 508 921 480 883 q 539 1027 535 959 l 422 1027 l 422 1230 l 631 1230 l 631 1055 q 618 958 631 1008 q 573 871 606 908 q 489 812 537 832 q 422 792 440 792 l 422 867 m 14 595 l 14 732 l 117 732 l 117 939 l 309 939 l 309 732 l 429 732 l 429 595 l 309 595 l 309 204 q 320 148 309 159 q 391 136 332 136 q 409 137 399 136 q 429 138 419 137 l 429 -7 l 337 -10 q 150 37 200 -15 q 117 140 117 71 l 117 595 l 14 595 z "},"Ŧ":{"ha":848,"x_min":22,"x_max":832,"o":"m 832 1000 l 832 823 l 533 823 l 533 0 l 323 0 l 323 823 l 22 823 l 22 1000 l 832 1000 m 186 560 l 669 560 l 669 457 l 186 457 l 186 560 z "},"ŧ":{"ha":463,"x_min":-20,"x_max":463,"o":"m 14 595 l 14 732 l 117 732 l 117 939 l 309 939 l 309 732 l 429 732 l 429 595 l 309 595 l 309 204 q 320 148 309 159 q 391 136 332 136 q 409 137 399 136 q 429 138 419 137 l 429 -7 l 337 -10 q 150 37 200 -15 q 117 140 117 71 l 117 595 l 14 595 m -20 522 l 463 522 l 463 419 l -20 419 l -20 522 z "},"Ũ":{"ha":1003,"x_min":106,"x_max":909,"o":"m 106 1000 l 318 1000 l 318 385 q 342 235 318 282 q 508 151 380 151 q 673 235 635 151 q 697 385 697 282 l 697 1000 l 909 1000 l 909 385 q 860 137 909 226 q 508 -26 768 -26 q 155 137 248 -26 q 106 385 106 226 l 106 1000 m 508 1000 m 446 1301 q 481 1297 464 1301 q 511 1289 499 1293 l 575 1265 q 612 1253 604 1255 q 632 1250 621 1250 q 678 1267 665 1250 q 697 1308 691 1284 l 787 1308 q 739 1189 775 1237 q 633 1141 703 1141 q 573 1151 612 1141 q 530 1163 551 1156 l 475 1181 q 453 1187 464 1185 q 431 1189 442 1189 q 389 1174 406 1189 q 366 1131 373 1158 l 278 1131 q 317 1237 293 1201 q 446 1301 360 1301 m 533 1042 z "},"ũ":{"ha":848,"x_min":85,"x_max":752,"o":"m 283 739 l 283 294 q 298 199 283 231 q 401 142 324 142 q 537 222 500 142 q 556 337 556 266 l 556 739 l 752 739 l 752 0 l 564 0 l 564 104 q 551 84 562 101 q 525 54 540 67 q 437 -1 479 14 q 338 -16 395 -16 q 117 102 174 -16 q 85 294 85 167 l 85 739 l 283 739 m 418 759 m 352 1045 q 388 1041 370 1045 q 418 1032 406 1037 l 481 1008 q 519 996 510 999 q 538 994 528 994 q 584 1011 571 994 q 604 1052 597 1028 l 694 1052 q 645 932 682 981 q 539 884 609 884 q 479 895 518 884 q 437 907 457 900 l 382 925 q 359 931 370 929 q 338 932 349 932 q 296 918 312 932 q 273 875 279 902 l 184 875 q 223 981 199 945 q 352 1045 267 1045 m 439 785 z "},"Ū":{"ha":1003,"x_min":106,"x_max":909,"o":"m 106 1000 l 318 1000 l 318 385 q 342 235 318 282 q 508 151 380 151 q 673 235 635 151 q 697 385 697 282 l 697 1000 l 909 1000 l 909 385 q 860 137 909 226 q 508 -26 768 -26 q 155 137 248 -26 q 106 385 106 226 l 106 1000 m 508 1000 m 267 1225 l 749 1225 l 749 1122 l 267 1122 l 267 1225 z "},"ū":{"ha":848,"x_min":85,"x_max":752,"o":"m 283 739 l 283 294 q 298 199 283 231 q 401 142 324 142 q 537 222 500 142 q 556 337 556 266 l 556 739 l 752 739 l 752 0 l 564 0 l 564 104 q 551 84 562 101 q 525 54 540 67 q 437 -1 479 14 q 338 -16 395 -16 q 117 102 174 -16 q 85 294 85 167 l 85 739 l 283 739 m 418 759 m 191 985 l 673 985 l 673 882 l 191 882 l 191 985 z "},"Ŭ":{"ha":1003,"x_min":106,"x_max":909,"o":"m 106 1000 l 318 1000 l 318 385 q 342 235 318 282 q 508 151 380 151 q 673 235 635 151 q 697 385 697 282 l 697 1000 l 909 1000 l 909 385 q 860 137 909 226 q 508 -26 768 -26 q 155 137 248 -26 q 106 385 106 226 l 106 1000 m 508 1000 m 744 1291 q 675 1138 735 1187 q 510 1088 614 1088 q 345 1138 406 1088 q 276 1291 285 1187 l 368 1291 q 433 1206 377 1228 q 510 1193 464 1193 q 587 1206 556 1193 q 652 1291 643 1228 l 744 1291 m 510 1008 z "},"ŭ":{"ha":848,"x_min":85,"x_max":752,"o":"m 283 739 l 283 294 q 298 199 283 231 q 401 142 324 142 q 537 222 500 142 q 556 337 556 266 l 556 739 l 752 739 l 752 0 l 564 0 l 564 104 q 551 84 562 101 q 525 54 540 67 q 437 -1 479 14 q 338 -16 395 -16 q 117 102 174 -16 q 85 294 85 167 l 85 739 l 283 739 m 418 759 m 672 1047 q 603 894 663 943 q 438 845 543 845 q 273 894 334 845 q 204 1047 213 943 l 296 1047 q 361 962 305 985 q 438 949 392 949 q 515 962 484 949 q 581 1047 571 985 l 672 1047 m 438 764 z "},"Ů":{"ha":1003,"x_min":106,"x_max":909,"o":"m 106 1000 l 318 1000 l 318 385 q 342 235 318 282 q 508 151 380 151 q 673 235 635 151 q 697 385 697 282 l 697 1000 l 909 1000 l 909 385 q 860 137 909 226 q 508 -26 768 -26 q 155 137 248 -26 q 106 385 106 226 l 106 1000 m 508 1000 m 433 1215 q 457 1158 433 1181 q 514 1135 481 1135 q 571 1158 547 1135 q 594 1215 594 1181 q 571 1272 594 1248 q 514 1295 547 1295 q 457 1272 481 1295 q 433 1215 433 1248 m 366 1215 q 410 1319 366 1276 q 514 1362 453 1362 q 618 1319 575 1362 q 662 1215 662 1276 q 618 1110 662 1154 q 514 1067 575 1067 q 410 1110 453 1067 q 366 1215 366 1154 m 514 995 z "},"ů":{"ha":848,"x_min":85,"x_max":752,"o":"m 283 739 l 283 294 q 298 199 283 231 q 401 142 324 142 q 537 222 500 142 q 556 337 556 266 l 556 739 l 752 739 l 752 0 l 564 0 l 564 104 q 551 84 562 101 q 525 54 540 67 q 437 -1 479 14 q 338 -16 395 -16 q 117 102 174 -16 q 85 294 85 167 l 85 739 l 283 739 m 418 759 m 340 964 q 364 908 340 931 q 421 884 388 884 q 478 908 454 884 q 501 964 501 931 q 478 1021 501 998 q 421 1045 454 1045 q 364 1021 388 1045 q 340 964 340 998 m 273 964 q 317 1069 273 1025 q 421 1112 360 1112 q 526 1069 482 1112 q 569 964 569 1025 q 526 860 569 903 q 421 817 482 817 q 317 860 360 817 q 273 964 273 903 m 421 745 z "},"Ű":{"ha":1003,"x_min":106,"x_max":909,"o":"m 106 1000 l 318 1000 l 318 385 q 342 235 318 282 q 508 151 380 151 q 673 235 635 151 q 697 385 697 282 l 697 1000 l 909 1000 l 909 385 q 860 137 909 226 q 508 -26 768 -26 q 155 137 248 -26 q 106 385 106 226 l 106 1000 m 508 1000 m 660 1319 l 857 1319 l 692 1121 l 559 1121 l 660 1319 m 559 1319 l 394 1121 l 261 1121 l 362 1319 l 559 1319 z "},"ű":{"ha":848,"x_min":85,"x_max":777,"o":"m 283 739 l 283 294 q 298 199 283 231 q 401 142 324 142 q 537 222 500 142 q 556 337 556 266 l 556 739 l 752 739 l 752 0 l 564 0 l 564 104 q 551 84 562 101 q 525 54 540 67 q 437 -1 479 14 q 338 -16 395 -16 q 117 102 174 -16 q 85 294 85 167 l 85 739 l 283 739 m 418 759 m 580 1073 l 777 1073 l 612 875 l 479 875 l 580 1073 m 479 1073 l 314 875 l 181 875 l 282 1073 l 479 1073 z "},"Ų":{"ha":1003,"x_min":106,"x_max":909,"o":"m 106 1000 l 318 1000 l 318 385 q 342 235 318 282 q 508 151 380 151 q 673 235 635 151 q 697 385 697 282 l 697 1000 l 909 1000 l 909 385 q 860 137 909 226 q 508 -26 768 -26 q 155 137 248 -26 q 106 385 106 226 l 106 1000 m 508 1000 m 589 -17 l 543 -50 q 474 -108 496 -83 q 452 -162 452 -132 q 474 -211 452 -193 q 530 -229 496 -229 q 561 -225 545 -229 q 598 -214 577 -221 l 598 -311 q 547 -328 568 -323 q 465 -336 511 -336 q 348 -297 393 -336 q 302 -202 302 -257 q 359 -88 302 -140 q 467 -17 393 -58 l 589 -17 z "},"ų":{"ha":848,"x_min":85,"x_max":752,"o":"m 283 739 l 283 294 q 298 199 283 231 q 401 142 324 142 q 537 222 500 142 q 556 337 556 266 l 556 739 l 752 739 l 752 0 l 564 0 l 564 104 q 551 84 562 101 q 525 54 540 67 q 437 -1 479 14 q 338 -16 395 -16 q 117 102 174 -16 q 85 294 85 167 l 85 739 l 283 739 m 418 759 m 689 0 l 644 -33 q 574 -91 597 -66 q 552 -145 552 -115 q 574 -194 552 -176 q 630 -212 597 -212 q 661 -208 645 -212 q 699 -197 677 -204 l 699 -294 q 648 -311 668 -306 q 565 -319 611 -319 q 448 -280 494 -319 q 403 -185 403 -240 q 460 -71 403 -123 q 567 0 493 -41 l 689 0 z "},"Ŵ":{"ha":1311,"x_min":20,"x_max":1291,"o":"m 242 1000 l 374 427 l 403 268 l 432 424 l 545 1000 l 765 1000 l 884 427 l 914 268 l 945 421 l 1078 1000 l 1291 1000 l 1009 0 l 810 0 l 689 585 l 654 778 l 618 585 l 498 0 l 304 0 l 20 1000 l 242 1000 m 914 1116 l 757 1116 l 669 1230 l 580 1116 l 422 1116 l 582 1318 l 755 1318 l 914 1116 m 669 1036 z "},"ŵ":{"ha":1080,"x_min":9,"x_max":1064,"o":"m 439 739 l 635 739 l 747 207 l 863 739 l 1064 739 l 850 0 l 651 0 l 535 538 l 418 0 l 217 0 l 9 739 l 217 739 l 332 209 l 439 739 m 795 890 l 638 890 l 550 1004 l 461 890 l 304 890 l 463 1093 l 637 1093 l 795 890 z "},"Ŷ":{"ha":926,"x_min":24,"x_max":913,"o":"m 676 1000 l 913 1000 l 578 376 l 578 0 l 370 0 l 370 376 l 24 1000 l 270 1000 l 477 564 l 676 1000 m 469 1000 m 722 1119 l 565 1119 l 477 1233 l 388 1119 l 231 1119 l 390 1322 l 564 1322 l 722 1119 m 477 1039 z "},"ŷ":{"ha":772,"x_min":14,"x_max":749,"o":"m 120 -142 l 144 -143 q 199 -141 173 -144 q 242 -125 224 -138 q 274 -77 259 -114 q 286 -33 288 -41 l 14 739 l 229 739 l 391 194 l 543 739 l 749 739 l 495 12 q 379 -249 422 -198 q 208 -299 336 -299 q 167 -299 182 -299 q 120 -296 151 -298 l 120 -142 m 382 759 m 646 896 l 488 896 l 400 1010 l 311 896 l 154 896 l 313 1099 l 487 1099 l 646 896 m 400 816 z "},"Ÿ":{"ha":926,"x_min":24,"x_max":913,"o":"m 676 1000 l 913 1000 l 578 376 l 578 0 l 370 0 l 370 376 l 24 1000 l 270 1000 l 477 564 l 676 1000 m 469 1000 m 515 1253 l 692 1253 l 692 1093 l 515 1093 l 515 1253 m 244 1253 l 421 1253 l 421 1093 l 244 1093 l 244 1253 m 469 1000 z "},"Ź":{"ha":848,"x_min":35,"x_max":813,"o":"m 35 176 l 551 823 l 48 823 l 48 1000 l 812 1000 l 812 832 l 289 176 l 813 176 l 813 0 l 35 0 l 35 176 m 430 1000 m 655 1310 l 449 1107 l 309 1107 l 439 1310 l 655 1310 m 424 1027 z "},"ź":{"ha":694,"x_min":22,"x_max":661,"o":"m 48 582 l 48 739 l 648 739 l 648 578 l 273 159 l 661 159 l 661 0 l 22 0 l 22 151 l 401 582 l 48 582 m 348 759 m 568 1060 l 362 857 l 222 857 l 353 1060 l 568 1060 m 337 777 z "},"Ż":{"ha":848,"x_min":35,"x_max":813,"o":"m 35 176 l 551 823 l 48 823 l 48 1000 l 812 1000 l 812 832 l 289 176 l 813 176 l 813 0 l 35 0 l 35 176 m 430 1000 m 328 1268 l 504 1268 l 504 1107 l 328 1107 l 328 1268 m 416 1015 z "},"ż":{"ha":694,"x_min":22,"x_max":661,"o":"m 48 582 l 48 739 l 648 739 l 648 578 l 273 159 l 661 159 l 661 0 l 22 0 l 22 151 l 401 582 l 48 582 m 348 759 m 283 1005 l 459 1005 l 459 844 l 283 844 l 283 1005 m 371 751 z "},"Ž":{"ha":848,"x_min":35,"x_max":813,"o":"m 35 176 l 551 823 l 48 823 l 48 1000 l 812 1000 l 812 832 l 289 176 l 813 176 l 813 0 l 35 0 l 35 176 m 430 1000 m 343 1080 l 184 1282 l 341 1282 l 430 1168 l 518 1282 l 675 1282 l 517 1080 l 343 1080 m 430 1000 z "},"ž":{"ha":694,"x_min":22,"x_max":661,"o":"m 48 582 l 48 739 l 648 739 l 648 578 l 273 159 l 661 159 l 661 0 l 22 0 l 22 151 l 401 582 l 48 582 m 348 759 m 261 839 l 102 1042 l 259 1042 l 348 927 l 436 1042 l 593 1042 l 435 839 l 261 839 m 348 759 z "},"ſ":{"ha":463,"x_min":14,"x_max":437,"o":"m 315 596 l 315 0 l 122 0 l 122 596 l 14 596 l 14 732 l 120 732 l 120 780 q 160 943 120 899 q 363 1010 202 1010 q 396 1009 381 1010 q 437 1006 411 1008 l 437 848 q 382 851 420 850 q 329 834 344 852 q 315 795 315 817 q 315 596 315 773 z "},"ƀ":{"ha":848,"x_min":43,"x_max":849,"o":"m 325 646 q 410 727 357 698 q 529 757 462 757 q 762 648 675 757 q 849 351 849 540 q 761 82 849 186 q 543 -23 672 -23 q 411 7 464 -23 q 317 102 358 37 l 317 0 l 129 0 l 129 817 l 43 817 l 43 920 l 129 920 l 129 998 l 325 998 l 325 920 l 525 920 l 525 817 l 325 817 l 325 646 l 325 646 m 319 359 q 362 201 319 262 q 487 140 405 140 q 609 201 569 140 q 650 365 650 262 q 610 524 650 460 q 486 588 570 588 q 388 553 430 588 q 319 359 319 494 z "},"Ƃ":{"ha":926,"x_min":105,"x_max":876,"o":"m 530 640 q 786 567 696 640 q 876 317 876 494 q 786 77 876 155 q 546 0 696 0 l 111 0 l 111 998 l 105 1002 l 838 1002 l 838 825 l 318 825 l 318 640 l 530 640 l 530 640 m 513 174 q 628 207 587 174 q 669 318 669 240 q 628 432 669 396 q 513 468 587 468 l 318 468 l 318 174 l 513 174 l 513 174 z "},"ƃ":{"ha":848,"x_min":78,"x_max":800,"o":"m 78 1002 l 689 1002 l 689 825 l 282 825 l 276 831 l 276 643 q 357 722 313 694 q 490 755 409 755 q 718 650 635 755 q 800 379 800 545 q 719 94 800 207 q 492 -20 637 -20 q 345 17 400 -20 q 273 93 311 39 l 273 0 l 83 0 l 83 998 l 78 1002 m 597 359 q 577 489 597 437 q 435 587 538 587 q 290 491 330 587 q 270 359 270 440 q 312 202 270 264 q 440 140 354 140 q 556 200 515 140 q 597 359 597 260 z "},"Ɔ":{"ha":1003,"x_min":62,"x_max":951,"o":"m 810 95 q 500 -28 688 -28 q 131 137 248 -28 q 62 323 66 230 l 271 323 q 323 215 291 252 q 492 150 380 150 q 671 242 606 150 q 737 502 737 334 q 668 754 737 670 q 491 838 598 838 q 323 766 381 838 q 271 650 292 727 l 64 650 q 202 916 91 813 q 488 1018 314 1018 q 827 880 704 1018 q 951 498 951 741 q 810 95 951 237 z "},"Ɖ":{"ha":1003,"x_min":12,"x_max":951,"o":"m 453 174 q 574 184 538 174 q 675 258 635 201 q 725 382 711 311 q 739 509 739 454 q 637 787 739 715 q 463 826 581 826 l 309 826 l 309 620 l 519 620 l 519 446 l 309 446 l 309 174 l 453 174 m 884 212 q 522 0 777 0 l 106 0 l 106 446 l 12 446 l 12 620 l 106 620 l 106 998 l 524 998 q 721 963 640 998 q 863 846 803 928 q 930 702 908 783 q 951 524 951 621 q 884 212 951 343 z "},"Ƌ":{"ha":926,"x_min":105,"x_max":876,"o":"m 450 640 l 663 640 l 663 825 l 142 825 l 142 1002 l 876 1002 l 870 998 l 870 0 l 435 0 q 195 77 284 0 q 105 317 105 155 q 195 567 105 494 q 450 640 284 640 m 468 174 l 663 174 l 663 468 l 468 468 q 353 432 394 468 q 312 318 312 396 q 353 207 312 240 q 468 174 394 174 z "},"ƌ":{"ha":848,"x_min":78,"x_max":800,"o":"m 795 998 l 795 0 l 606 0 l 606 93 q 534 17 567 39 q 387 -20 478 -20 q 159 94 241 -20 q 78 379 78 207 q 160 650 78 545 q 389 755 243 755 q 522 722 469 755 q 602 643 566 694 l 602 831 l 596 825 l 189 825 l 189 1002 l 800 1002 l 795 998 m 281 359 q 322 200 281 260 q 438 140 363 140 q 566 202 524 140 q 608 359 608 264 q 588 491 608 440 q 444 587 549 587 q 301 489 340 587 q 281 359 281 437 z "},"ƍ":{"ha":802,"x_min":49,"x_max":743,"o":"m 454 269 l 694 118 l 694 -20 l 110 -20 l 110 135 l 416 135 q 306 214 400 138 q 130 405 212 290 q 49 644 49 519 q 143 896 49 799 q 388 994 238 994 q 648 893 553 994 q 743 627 743 792 q 665 394 743 492 q 454 269 587 296 m 388 407 q 507 475 463 407 q 551 635 551 543 q 509 786 551 724 q 388 849 467 849 q 275 786 314 849 q 235 633 235 722 q 276 474 235 542 q 388 407 317 407 z "},"Ǝ":{"ha":926,"x_min":111,"x_max":869,"o":"m 136 1000 l 869 1000 l 869 0 l 111 0 l 111 180 l 665 180 l 665 437 l 179 437 l 179 610 l 665 610 l 665 823 l 136 823 l 136 1000 z "},"Ə":{"ha":1043,"x_min":43,"x_max":991,"o":"m 789 393 l 248 393 q 345 202 254 290 q 518 115 435 115 q 693 205 609 115 q 789 393 777 296 m 129 161 q 53 367 71 250 q 45 565 43 436 l 795 565 q 708 789 790 715 q 504 881 580 881 q 298 781 423 881 q 250 699 277 743 l 58 699 q 150 879 68 787 q 509 1025 278 1025 q 845 902 699 1025 q 991 503 991 779 q 859 105 991 243 q 518 -33 728 -33 q 294 14 394 -33 q 129 161 194 60 z "},"Ɛ":{"ha":789,"x_min":36,"x_max":733,"o":"m 36 321 q 77 465 36 398 q 194 554 123 541 q 101 640 135 584 q 66 762 66 696 q 159 966 66 897 q 380 1028 241 1028 q 661 899 578 1028 q 690 814 684 861 q 692 749 692 781 l 526 749 q 494 842 526 803 q 374 890 453 890 q 276 852 313 890 q 240 753 240 814 q 289 644 240 686 q 372 610 329 610 l 467 610 l 467 464 l 361 464 q 273 428 317 464 q 219 319 219 385 q 260 182 219 235 q 387 123 305 123 q 558 306 558 123 l 733 306 q 644 62 733 156 q 404 -33 553 -33 q 136 58 233 -33 q 36 321 36 151 z "},"Ƒ":{"ha":848,"x_min":13,"x_max":814,"o":"m 13 -142 q 36 -143 29 -143 q 48 -144 43 -144 q 91 -130 77 -144 q 106 -76 106 -116 l 106 998 l 814 998 l 814 823 l 313 823 l 313 593 l 752 593 l 752 419 l 313 419 l 313 0 l 311 0 l 311 -79 q 267 -245 311 -191 q 82 -298 222 -298 q 56 -298 73 -298 q 13 -296 39 -297 l 13 -142 z "},"ƒ":{"ha":772,"x_min":20,"x_max":750,"o":"m 717 842 q 676 860 694 854 q 642 866 659 866 q 598 857 617 866 q 564 819 578 847 q 543 750 551 790 q 527 662 535 711 l 694 662 l 694 527 l 508 527 l 426 28 q 363 -174 404 -102 q 161 -293 294 -293 q 91 -285 130 -293 q 20 -264 52 -277 l 54 -110 q 95 -131 81 -125 q 128 -136 109 -136 q 196 -94 177 -136 q 235 64 214 -53 l 313 527 l 144 527 l 144 662 l 334 662 q 412 922 373 858 q 612 1022 473 1022 q 683 1016 652 1022 q 750 996 714 1010 l 717 842 z "},"Ɩ":{"ha":386,"x_min":60,"x_max":347,"o":"m 347 -31 q 303 -33 321 -32 q 277 -33 286 -33 q 104 20 149 -33 q 60 186 60 74 l 60 1001 l 254 1001 l 254 189 q 268 135 254 149 q 311 121 283 121 q 323 122 317 121 q 347 123 330 122 l 347 -31 z "},"Ɨ":{"ha":541,"x_min":29,"x_max":511,"o":"m 29 680 l 169 680 l 169 1000 l 362 1000 l 362 680 l 511 680 l 511 577 l 362 577 l 362 0 l 169 0 l 169 577 l 29 577 l 29 680 z "},"ƚ":{"ha":541,"x_min":29,"x_max":511,"o":"m 29 680 l 169 680 l 169 1000 l 362 1000 l 362 680 l 511 680 l 511 577 l 362 577 l 362 0 l 169 0 l 169 577 l 29 577 l 29 680 z "},"ƛ":{"ha":762,"x_min":33,"x_max":739,"o":"m 61 775 l 232 817 l 172 981 l 378 981 l 420 863 l 611 911 l 611 808 l 455 769 l 739 0 l 525 0 l 386 447 l 383 447 l 249 0 l 33 0 l 282 680 l 267 722 l 61 672 l 61 775 z "},"Ɲ":{"ha":1003,"x_min":9,"x_max":914,"o":"m 9 -142 q 32 -143 25 -143 q 44 -144 39 -144 q 87 -130 73 -144 q 102 -76 102 -116 l 102 736 l 102 736 l 102 1000 l 321 1000 l 720 302 l 720 1000 l 914 1000 l 914 0 l 705 0 l 297 710 l 297 0 l 295 0 l 295 -79 q 251 -245 295 -191 q 78 -298 207 -298 q 52 -298 69 -298 q 9 -296 35 -297 l 9 -142 z "},"ƞ":{"ha":848,"x_min":92,"x_max":760,"o":"m 760 498 l 760 -293 l 562 -293 l 562 450 q 547 539 562 508 q 438 596 518 596 q 303 513 340 596 q 284 400 284 469 l 284 0 l 92 0 l 92 738 l 278 738 l 278 630 q 349 712 315 687 q 500 757 408 757 q 687 697 614 757 q 760 498 760 637 z "},"Ɵ":{"ha":1080,"x_min":68,"x_max":1027,"o":"m 876 89 q 548 -28 762 -28 q 220 89 334 -28 q 68 501 68 232 q 220 913 68 776 q 548 1030 334 1030 q 876 913 762 1030 q 1027 501 1027 776 q 876 89 1027 232 m 350 241 q 548 149 424 149 q 745 241 672 149 q 814 430 802 312 l 279 430 q 350 241 292 312 m 745 761 q 548 853 672 853 q 350 762 424 853 q 280 578 294 692 l 814 578 q 745 761 800 691 z "},"Ơ":{"ha":1314,"x_min":68,"x_max":1283,"o":"m 876 89 q 548 -28 762 -28 q 220 89 334 -28 q 68 501 68 232 q 220 913 68 776 q 548 1030 334 1030 q 876 913 762 1030 q 949 823 919 874 l 954 823 q 1063 848 1001 818 l 1004 950 l 1179 1051 l 1283 870 l 1132 783 q 1042 745 1092 760 q 990 736 1016 737 q 1027 501 1027 635 q 876 89 1027 232 m 818 501 q 745 761 818 669 q 548 853 672 853 q 350 762 424 853 q 276 501 276 670 q 350 241 276 332 q 548 149 424 149 q 745 241 672 149 q 818 501 818 332 z "},"ơ":{"ha":1104,"x_min":45,"x_max":1073,"o":"m 422 -26 q 138 90 232 -26 q 45 368 45 205 q 138 646 45 528 q 422 763 232 763 q 707 646 613 763 q 734 606 722 627 q 744 606 739 606 q 852 631 791 601 l 793 733 l 968 834 l 1073 653 l 922 566 q 832 528 882 543 q 776 519 804 519 q 800 368 800 449 q 707 90 800 205 q 422 -26 613 -26 m 597 368 q 552 539 597 479 q 422 600 507 600 q 291 539 337 600 q 245 368 245 479 q 291 197 245 257 q 422 136 337 136 q 552 197 507 136 q 597 368 597 257 z "},"Ʀ":{"ha":903,"x_min":40,"x_max":874,"o":"m 40 1000 l 244 1000 l 244 864 l 530 864 q 692 838 635 862 q 788 768 749 814 q 840 684 821 730 q 859 579 859 638 q 823 439 859 508 q 704 342 787 370 q 802 263 773 314 q 831 106 831 212 l 831 39 q 836 -54 831 -29 q 874 -111 844 -92 l 874 -136 l 644 -136 q 631 -82 635 -102 q 622 4 623 -40 l 621 97 q 586 224 619 193 q 460 256 552 256 l 244 256 l 244 0 l 40 0 l 40 1000 m 244 690 l 244 422 l 481 422 q 587 438 551 422 q 649 551 649 467 q 589 673 649 642 q 487 690 555 690 l 244 690 z "},"Ƨ":{"ha":926,"x_min":58,"x_max":878,"o":"m 878 309 q 766 63 878 153 q 459 -26 654 -26 q 163 65 268 -26 q 58 292 58 155 q 148 496 58 426 q 319 569 205 542 l 491 610 q 621 652 591 634 q 669 732 669 678 q 621 823 669 790 q 492 855 572 855 q 370 830 419 855 q 292 702 297 792 l 91 702 q 208 945 96 861 q 477 1029 319 1029 q 764 940 667 1029 q 862 717 862 851 q 761 500 862 570 q 545 424 701 459 l 439 400 q 303 353 347 380 q 260 277 260 326 q 347 161 260 192 q 467 144 393 144 q 642 206 591 144 q 679 309 669 240 l 878 309 z "},"ƨ":{"ha":772,"x_min":45,"x_max":720,"o":"m 720 236 q 637 48 720 122 q 380 -25 554 -25 q 127 44 209 -25 q 45 224 45 114 q 102 363 45 307 q 275 445 160 418 q 477 498 448 483 q 505 547 505 513 q 478 593 505 573 q 389 612 452 612 q 280 573 312 612 q 259 514 263 551 l 66 514 q 166 705 79 650 q 391 760 253 760 q 617 687 537 760 q 698 511 698 613 q 646 378 698 424 q 469 300 595 331 q 268 241 295 258 q 241 192 241 224 q 274 141 241 158 q 365 124 308 124 q 498 163 462 124 q 524 236 518 184 l 720 236 z "},"Ʃ":{"ha":827,"x_min":41,"x_max":781,"o":"m 635 497 l 319 180 l 781 180 l 781 0 l 41 0 l 41 153 l 382 496 l 41 840 l 41 993 l 781 993 l 781 812 l 319 812 l 635 497 z "},"Ʈ":{"ha":848,"x_min":22,"x_max":832,"o":"m 230 -142 q 253 -143 246 -143 q 265 -144 260 -144 q 308 -130 294 -144 q 323 -76 323 -116 l 323 823 l 22 823 l 22 1000 l 832 1000 l 832 823 l 533 823 l 533 -79 q 480 -245 533 -191 q 299 -298 428 -298 q 273 -298 290 -298 q 230 -296 256 -297 l 230 -142 z "},"Ư":{"ha":1275,"x_min":106,"x_max":1242,"o":"m 106 1000 l 318 1000 l 318 385 q 342 235 318 282 q 508 151 380 151 q 673 235 635 151 q 697 385 697 282 l 697 1000 l 909 1000 l 909 823 q 913 823 911 823 q 1022 848 960 818 l 963 950 l 1138 1051 l 1242 870 l 1091 783 q 1002 745 1051 760 q 909 740 955 731 l 909 385 q 860 137 909 226 q 508 -26 768 -26 q 155 137 248 -26 q 106 385 106 226 l 106 1000 z "},"ư":{"ha":1118,"x_min":85,"x_max":1086,"o":"m 283 739 l 283 294 q 298 199 283 231 q 401 142 324 142 q 537 222 500 142 q 556 337 556 266 l 556 739 l 752 739 l 752 640 q 758 640 755 640 q 866 665 804 635 l 807 767 l 982 868 l 1086 687 l 935 600 q 846 562 895 576 q 752 557 798 548 l 752 0 l 564 0 l 564 104 q 551 84 562 101 q 525 54 540 67 q 437 -1 479 14 q 338 -16 395 -16 q 117 102 174 -16 q 85 294 85 167 l 85 739 l 283 739 z "},"Ʊ":{"ha":1076,"x_min":62,"x_max":1013,"o":"m 534 187 q 705 271 646 187 q 763 472 763 354 q 731 671 763 589 q 617 812 699 754 l 617 993 l 1013 993 l 1013 826 l 805 826 q 979 465 979 688 q 863 135 979 269 q 541 0 747 0 q 219 135 342 0 q 96 465 96 271 q 137 669 96 585 q 270 826 177 753 l 62 826 l 62 993 l 458 993 l 458 812 q 344 672 376 754 q 312 472 312 590 q 367 270 312 353 q 534 187 422 187 z "},"Ƶ":{"ha":848,"x_min":35,"x_max":813,"o":"m 35 176 l 290 496 l 149 496 l 149 599 l 372 599 l 551 823 l 48 823 l 48 1000 l 812 1000 l 812 832 l 625 599 l 740 599 l 740 496 l 543 496 l 289 176 l 813 176 l 813 0 l 35 0 l 35 176 z "},"ƶ":{"ha":694,"x_min":22,"x_max":661,"o":"m 87 456 l 290 456 l 401 582 l 48 582 l 48 739 l 648 739 l 648 578 l 538 456 l 610 456 l 610 353 l 446 353 l 273 159 l 661 159 l 661 0 l 22 0 l 22 151 l 200 353 l 87 353 l 87 456 z "},"Ʒ":{"ha":833,"x_min":38,"x_max":792,"o":"m 514 819 l 53 819 l 53 1000 l 792 1000 l 792 847 l 587 633 q 692 556 648 606 q 785 314 785 505 q 667 66 785 145 q 371 -12 549 -12 q 102 115 193 -12 q 38 281 45 193 l 235 281 q 270 186 241 223 q 366 150 298 150 q 523 194 462 150 q 583 319 583 237 q 564 456 583 404 q 453 497 533 487 l 452 496 l 199 497 l 514 819 z "},"Ƹ":{"ha":833,"x_min":41,"x_max":795,"o":"m 634 497 l 381 496 l 380 497 q 269 456 300 487 q 250 319 250 404 q 310 194 250 237 q 467 150 371 150 q 563 186 534 150 q 597 281 591 223 l 795 281 q 731 115 788 193 q 462 -12 640 -12 q 165 66 283 -12 q 47 314 47 145 q 140 556 47 505 q 245 633 184 606 l 41 847 l 41 1000 l 780 1000 l 780 819 l 319 819 l 634 497 z "},"ƹ":{"ha":765,"x_min":41,"x_max":727,"o":"m 566 233 l 381 232 l 380 233 q 269 192 300 223 q 250 45 250 130 q 287 -86 250 -37 q 419 -136 323 -136 q 505 -100 487 -136 q 530 -5 524 -63 l 727 -5 q 663 -172 720 -93 q 421 -298 600 -298 q 145 -214 243 -298 q 47 40 47 -129 q 140 292 47 231 q 245 369 184 342 l 41 583 l 41 736 l 712 736 l 712 555 l 319 555 l 566 233 z "},"ƻ":{"ha":850,"x_min":54,"x_max":811,"o":"m 99 193 q 294 401 140 292 q 467 538 428 497 q 528 680 528 603 q 493 783 528 742 q 394 825 458 825 q 274 759 306 825 q 252 638 256 721 l 64 638 q 110 841 69 764 q 385 988 187 988 q 633 902 541 988 q 725 673 725 815 q 660 479 725 564 q 519 353 617 422 l 442 298 q 343 224 370 247 q 298 170 316 201 l 727 170 l 727 0 l 54 0 q 99 193 56 106 m 811 543 l 811 406 l 85 406 l 85 543 l 811 543 z "},"ǀ":{"ha":389,"x_min":112,"x_max":290,"o":"m 290 1009 l 290 0 l 112 0 l 112 1009 l 290 1009 z "},"ǁ":{"ha":734,"x_min":112,"x_max":629,"o":"m 290 1009 l 290 0 l 112 0 l 112 1009 l 290 1009 m 629 1009 l 629 0 l 451 0 l 451 1009 l 629 1009 z "},"ǂ":{"ha":795,"x_min":18,"x_max":753,"o":"m 753 724 l 753 545 l 460 545 l 460 407 l 753 407 l 753 229 l 460 229 l 460 0 l 281 0 l 281 229 l 18 229 l 18 407 l 281 407 l 281 545 l 18 545 l 18 724 l 281 724 l 281 1009 l 460 1009 l 460 724 l 753 724 z "},"ǃ":{"ha":463,"x_min":153,"x_max":365,"o":"m 153 996 l 365 996 l 365 743 l 310 276 l 209 276 l 153 743 l 153 996 m 157 196 l 359 196 l 359 0 l 157 0 l 157 196 z "},"Ǆ":{"ha":1708,"x_min":49,"x_max":1684,"o":"m 252 826 l 252 174 l 444 174 q 650 319 592 174 q 682 510 682 399 q 634 744 682 663 q 444 826 587 826 l 252 826 m 479 1000 q 634 978 572 998 q 804 851 739 943 q 876 690 857 777 q 895 524 895 603 q 814 186 895 325 q 479 0 706 0 l 49 0 l 49 1000 l 479 1000 m 906 176 l 1422 823 l 919 823 l 919 1000 l 1683 1000 l 1683 832 l 1160 176 l 1684 176 l 1684 0 l 906 0 l 906 176 m 1301 1000 m 1200 1044 l 1040 1246 l 1198 1246 l 1286 1132 l 1375 1246 l 1532 1246 l 1373 1044 l 1200 1044 m 1286 964 z "},"ǅ":{"ha":1573,"x_min":60,"x_max":1546,"o":"m 262 826 l 262 174 l 455 174 q 661 319 603 174 q 693 510 693 399 q 645 744 693 663 q 455 826 597 826 l 262 826 m 490 1000 q 645 978 583 998 q 815 851 750 943 q 886 690 867 777 q 905 524 905 603 q 825 186 905 325 q 490 0 717 0 l 60 0 l 60 1000 l 490 1000 m 933 582 l 933 739 l 1533 739 l 1533 578 l 1158 159 l 1546 159 l 1546 0 l 907 0 l 907 151 l 1286 582 l 933 582 m 1233 759 m 1126 798 l 967 1001 l 1124 1001 l 1213 886 l 1301 1001 l 1459 1001 l 1300 798 l 1126 798 m 1213 718 z "},"ǆ":{"ha":1472,"x_min":43,"x_max":1448,"o":"m 363 757 q 482 727 430 757 q 567 646 534 698 l 567 998 l 763 998 l 763 0 l 575 0 l 575 102 q 481 7 534 37 q 349 -23 428 -23 q 131 82 220 -23 q 43 351 43 186 q 130 648 43 540 q 363 757 217 757 m 405 140 q 530 201 487 140 q 572 359 572 262 q 504 553 572 494 q 406 588 462 588 q 282 524 321 588 q 242 365 242 460 q 282 201 242 262 q 405 140 323 140 m 836 582 l 836 739 l 1435 739 l 1435 578 l 1060 159 l 1448 159 l 1448 0 l 810 0 l 810 151 l 1189 582 l 836 582 m 1135 759 m 1035 801 l 876 1004 l 1033 1004 l 1122 889 l 1210 1004 l 1367 1004 l 1208 801 l 1035 801 m 1122 721 z "},"Ǉ":{"ha":1469,"x_min":74,"x_max":1427,"o":"m 74 1000 l 283 1000 l 283 180 l 778 180 l 778 0 l 74 0 l 74 1000 m 983 393 l 983 370 q 1009 207 986 254 q 1106 160 1031 160 q 1204 212 1180 160 q 1218 315 1218 242 l 1218 1014 l 1427 1014 l 1427 318 q 1383 116 1427 191 q 1114 -10 1308 -10 q 852 92 919 -10 q 786 370 786 194 l 786 393 l 983 393 z "},"ǈ":{"ha":1160,"x_min":74,"x_max":1101,"o":"m 74 1000 l 283 1000 l 283 180 l 778 180 l 778 0 l 74 0 l 74 1000 m 1101 827 l 908 827 l 908 1006 l 1101 1006 l 1101 827 m 815 -142 q 838 -143 831 -143 q 850 -144 845 -144 q 893 -130 879 -144 q 908 -76 908 -116 l 908 736 l 1101 736 l 1101 -79 q 1057 -245 1101 -191 q 884 -298 1013 -298 q 858 -298 876 -298 q 815 -296 841 -297 l 815 -142 z "},"ǉ":{"ha":724,"x_min":94,"x_max":678,"o":"m 288 0 l 94 0 l 94 1000 l 288 1000 l 288 0 m 678 827 l 485 827 l 485 1006 l 678 1006 l 678 827 m 392 -142 q 415 -143 408 -143 q 427 -144 422 -144 q 470 -130 456 -144 q 485 -76 485 -116 l 485 736 l 678 736 l 678 -79 q 634 -245 678 -191 q 461 -298 590 -298 q 435 -298 452 -298 q 392 -296 418 -297 l 392 -142 z "},"Ǌ":{"ha":1609,"x_min":67,"x_max":1560,"o":"m 67 1000 l 286 1000 l 684 302 l 684 1000 l 879 1000 l 879 0 l 670 0 l 262 710 l 262 0 l 67 0 l 67 1000 m 481 1002 m 1116 386 l 1116 363 q 1142 200 1119 247 q 1239 153 1164 153 q 1337 204 1313 153 q 1351 307 1351 235 l 1351 1006 l 1560 1006 l 1560 311 q 1516 109 1560 183 q 1246 -18 1441 -18 q 985 84 1052 -18 q 919 363 919 186 l 919 386 l 1116 386 z "},"ǋ":{"ha":1258,"x_min":71,"x_max":1196,"o":"m 71 1000 l 290 1000 l 688 302 l 688 1000 l 882 1000 l 882 0 l 673 0 l 265 710 l 265 0 l 71 0 l 71 1000 m 484 1002 m 1196 831 l 1002 831 l 1002 1009 l 1196 1009 l 1196 831 m 909 -138 q 932 -140 926 -140 q 945 -140 939 -140 q 988 -126 973 -140 q 1002 -73 1002 -113 l 1002 739 l 1196 739 l 1196 -76 q 1152 -241 1196 -188 q 979 -295 1107 -295 q 952 -294 970 -295 q 909 -293 935 -294 l 909 -138 z "},"ǌ":{"ha":1112,"x_min":63,"x_max":1037,"o":"m 471 757 q 659 697 586 757 q 732 498 732 637 l 732 0 l 534 0 l 534 450 q 518 539 534 508 q 410 596 490 596 q 275 513 311 596 q 256 400 256 469 l 256 0 l 63 0 l 63 738 l 250 738 l 250 630 q 320 712 287 687 q 471 757 380 757 m 400 759 m 1037 827 l 844 827 l 844 1006 l 1037 1006 l 1037 827 m 751 -142 q 774 -143 767 -143 q 786 -144 781 -144 q 829 -130 814 -144 q 844 -76 844 -116 l 844 736 l 1037 736 l 1037 -79 q 993 -245 1037 -191 q 820 -298 949 -298 q 794 -298 811 -298 q 751 -296 777 -297 l 751 -142 z "},"Ǎ":{"ha":1003,"x_min":35,"x_max":982,"o":"m 379 378 l 633 378 l 508 771 l 379 378 m 392 1000 l 628 1000 l 982 0 l 755 0 l 691 205 l 323 205 l 254 0 l 35 0 l 392 1000 m 509 1000 m 422 1095 l 263 1298 l 420 1298 l 509 1183 l 597 1298 l 755 1298 l 596 1095 l 422 1095 m 509 1015 z "},"ǎ":{"ha":772,"x_min":40,"x_max":732,"o":"m 498 359 q 461 341 479 348 q 410 328 442 334 l 366 319 q 279 293 305 309 q 234 211 234 267 q 261 139 234 161 q 328 117 289 117 q 443 154 391 117 q 498 288 496 191 l 498 359 m 380 450 q 457 467 434 456 q 498 522 498 484 q 467 584 498 567 q 374 602 435 602 q 277 568 306 602 q 250 500 257 543 l 64 500 q 118 659 70 597 q 381 757 195 757 q 597 709 503 757 q 691 527 691 661 l 691 188 q 692 102 691 153 q 704 51 694 64 q 732 28 713 37 l 732 0 l 522 0 q 510 42 513 22 q 505 87 507 62 q 412 13 465 43 q 271 -23 350 -23 q 105 34 171 -23 q 40 197 40 92 q 145 394 40 333 q 315 441 203 427 l 380 450 m 391 759 m 296 854 l 137 1057 l 294 1057 l 383 943 l 471 1057 l 629 1057 l 470 854 l 296 854 m 383 774 z "},"Ǐ":{"ha":386,"x_min":-50,"x_max":441,"o":"m 297 0 l 90 0 l 90 1000 l 297 1000 l 297 0 m 193 1019 m 109 1108 l -50 1311 l 107 1311 l 196 1196 l 284 1311 l 441 1311 l 283 1108 l 109 1108 m 196 1028 z "},"ǐ":{"ha":386,"x_min":-50,"x_max":441,"o":"m 93 739 l 289 739 l 289 0 l 93 0 l 93 739 m 191 759 m 109 844 l -50 1046 l 107 1046 l 196 932 l 284 1046 l 441 1046 l 283 844 l 109 844 m 196 764 z "},"Ǒ":{"ha":1080,"x_min":68,"x_max":1027,"o":"m 548 149 q 745 241 672 149 q 818 501 818 332 q 745 761 818 669 q 548 853 672 853 q 350 762 424 853 q 276 501 276 670 q 350 241 276 332 q 548 149 424 149 m 1027 501 q 876 89 1027 232 q 548 -28 762 -28 q 220 89 334 -28 q 68 501 68 232 q 220 913 68 776 q 548 1030 334 1030 q 876 913 762 1030 q 1027 501 1027 776 m 548 1030 m 465 1137 l 305 1340 l 463 1340 l 551 1225 l 640 1340 l 797 1340 l 638 1137 l 465 1137 m 551 1057 z "},"ǒ":{"ha":848,"x_min":45,"x_max":800,"o":"m 422 136 q 552 197 507 136 q 597 368 597 257 q 552 539 597 479 q 422 600 507 600 q 291 539 337 600 q 245 368 245 479 q 291 197 245 257 q 422 136 337 136 m 800 368 q 707 90 800 205 q 422 -26 613 -26 q 138 90 232 -26 q 45 368 45 205 q 138 646 45 528 q 422 763 232 763 q 707 646 613 763 q 800 368 800 528 m 422 759 m 340 868 l 181 1071 l 338 1071 l 427 956 l 515 1071 l 673 1071 l 514 868 l 340 868 m 427 788 z "},"Ǔ":{"ha":1003,"x_min":106,"x_max":909,"o":"m 106 1000 l 318 1000 l 318 385 q 342 235 318 282 q 508 151 380 151 q 673 235 635 151 q 697 385 697 282 l 697 1000 l 909 1000 l 909 385 q 860 137 909 226 q 508 -26 768 -26 q 155 137 248 -26 q 106 385 106 226 l 106 1000 m 508 1000 m 414 1107 l 254 1310 l 412 1310 l 500 1196 l 589 1310 l 746 1310 l 587 1107 l 414 1107 m 500 1027 z "},"ǔ":{"ha":848,"x_min":85,"x_max":752,"o":"m 283 739 l 283 294 q 298 199 283 231 q 401 142 324 142 q 537 222 500 142 q 556 337 556 266 l 556 739 l 752 739 l 752 0 l 564 0 l 564 104 q 551 84 562 101 q 525 54 540 67 q 437 -1 479 14 q 338 -16 395 -16 q 117 102 174 -16 q 85 294 85 167 l 85 739 l 283 739 m 418 759 m 332 831 l 173 1034 l 330 1034 l 419 920 l 507 1034 l 665 1034 l 506 831 l 332 831 m 419 751 z "},"Ǖ":{"ha":1003,"x_min":106,"x_max":909,"o":"m 106 1000 l 318 1000 l 318 385 q 342 235 318 282 q 508 151 380 151 q 673 235 635 151 q 697 385 697 282 l 697 1000 l 909 1000 l 909 385 q 860 137 909 226 q 508 -26 768 -26 q 155 137 248 -26 q 106 385 106 226 l 106 1000 m 508 1000 m 569 1276 l 746 1276 l 746 1116 l 569 1116 l 569 1276 m 298 1276 l 475 1276 l 475 1116 l 298 1116 l 298 1276 m 522 1023 m 267 1495 l 749 1495 l 749 1392 l 267 1392 l 267 1495 z "},"ǖ":{"ha":848,"x_min":85,"x_max":752,"o":"m 283 739 l 283 294 q 298 199 283 231 q 401 142 324 142 q 537 222 500 142 q 556 337 556 266 l 556 739 l 752 739 l 752 0 l 564 0 l 564 104 q 551 84 562 101 q 525 54 540 67 q 437 -1 479 14 q 338 -16 395 -16 q 117 102 174 -16 q 85 294 85 167 l 85 739 l 283 739 m 418 759 m 473 1004 l 650 1004 l 650 843 l 473 843 l 473 1004 m 201 1004 l 378 1004 l 378 843 l 201 843 l 201 1004 m 426 750 m 185 1208 l 667 1208 l 667 1105 l 185 1105 l 185 1208 z "},"Ǘ":{"ha":1003,"x_min":106,"x_max":909,"o":"m 106 1000 l 318 1000 l 318 385 q 342 235 318 282 q 508 151 380 151 q 673 235 635 151 q 697 385 697 282 l 697 1000 l 909 1000 l 909 385 q 860 137 909 226 q 508 -26 768 -26 q 155 137 248 -26 q 106 385 106 226 l 106 1000 m 508 1000 m 558 1237 l 735 1237 l 735 1076 l 558 1076 l 558 1237 m 287 1237 l 464 1237 l 464 1076 l 287 1076 l 287 1237 m 511 983 m 751 1498 l 545 1295 l 406 1295 l 536 1498 l 751 1498 m 520 1215 z "},"ǘ":{"ha":848,"x_min":85,"x_max":752,"o":"m 283 739 l 283 294 q 298 199 283 231 q 401 142 324 142 q 537 222 500 142 q 556 337 556 266 l 556 739 l 752 739 l 752 0 l 564 0 l 564 104 q 551 84 562 101 q 525 54 540 67 q 437 -1 479 14 q 338 -16 395 -16 q 117 102 174 -16 q 85 294 85 167 l 85 739 l 283 739 m 418 759 m 466 1000 l 643 1000 l 643 839 l 466 839 l 466 1000 m 195 1000 l 372 1000 l 372 839 l 195 839 l 195 1000 m 419 746 m 675 1287 l 469 1084 l 329 1084 l 459 1287 l 675 1287 m 444 1004 z "},"Ǚ":{"ha":1003,"x_min":106,"x_max":909,"o":"m 106 1000 l 318 1000 l 318 385 q 342 235 318 282 q 508 151 380 151 q 673 235 635 151 q 697 385 697 282 l 697 1000 l 909 1000 l 909 385 q 860 137 909 226 q 508 -26 768 -26 q 155 137 248 -26 q 106 385 106 226 l 106 1000 m 508 1000 m 558 1274 l 735 1274 l 735 1113 l 558 1113 l 558 1274 m 287 1274 l 464 1274 l 464 1113 l 287 1113 l 287 1274 m 511 1020 m 414 1367 l 255 1569 l 412 1569 l 501 1455 l 589 1569 l 747 1569 l 588 1367 l 414 1367 m 501 1286 z "},"ǚ":{"ha":848,"x_min":85,"x_max":752,"o":"m 283 739 l 283 294 q 298 199 283 231 q 401 142 324 142 q 537 222 500 142 q 556 337 556 266 l 556 739 l 752 739 l 752 0 l 564 0 l 564 104 q 551 84 562 101 q 525 54 540 67 q 437 -1 479 14 q 338 -16 395 -16 q 117 102 174 -16 q 85 294 85 167 l 85 739 l 283 739 m 418 759 m 463 1004 l 640 1004 l 640 843 l 463 843 l 463 1004 m 191 1004 l 368 1004 l 368 843 l 191 843 l 191 1004 m 416 750 m 332 1084 l 173 1287 l 330 1287 l 419 1173 l 507 1287 l 665 1287 l 506 1084 l 332 1084 m 419 1004 z "},"Ǜ":{"ha":1003,"x_min":106,"x_max":909,"o":"m 106 1000 l 318 1000 l 318 385 q 342 235 318 282 q 508 151 380 151 q 673 235 635 151 q 697 385 697 282 l 697 1000 l 909 1000 l 909 385 q 860 137 909 226 q 508 -26 768 -26 q 155 137 248 -26 q 106 385 106 226 l 106 1000 m 508 1000 m 562 1255 l 739 1255 l 739 1095 l 562 1095 l 562 1255 m 290 1255 l 467 1255 l 467 1095 l 290 1095 l 290 1255 m 515 1002 m 590 1322 l 450 1322 l 245 1525 l 460 1525 l 590 1322 m 475 1242 z "},"ǜ":{"ha":848,"x_min":85,"x_max":752,"o":"m 283 739 l 283 294 q 298 199 283 231 q 401 142 324 142 q 537 222 500 142 q 556 337 556 266 l 556 739 l 752 739 l 752 0 l 564 0 l 564 104 q 551 84 562 101 q 525 54 540 67 q 437 -1 479 14 q 338 -16 395 -16 q 117 102 174 -16 q 85 294 85 167 l 85 739 l 283 739 m 418 759 m 482 995 l 659 995 l 659 834 l 482 834 l 482 995 m 211 995 l 388 995 l 388 834 l 211 834 l 211 995 m 435 741 m 507 1067 l 368 1067 l 162 1270 l 377 1270 l 507 1067 m 393 987 z "},"ǝ":{"ha":772,"x_min":31,"x_max":733,"o":"m 534 290 l 233 290 q 280 174 238 214 q 383 134 321 134 q 487 176 450 134 q 534 290 524 218 m 95 119 q 39 271 52 184 q 33 418 31 322 l 538 418 q 469 574 534 529 q 372 602 429 602 q 275 568 313 602 q 239 517 255 549 l 42 517 q 111 650 50 583 q 376 758 205 758 q 625 667 517 758 q 733 372 733 576 q 636 77 733 180 q 383 -25 538 -25 q 217 9 291 -25 q 95 119 143 44 z "},"Ǟ":{"ha":1003,"x_min":35,"x_max":982,"o":"m 379 378 l 633 378 l 508 771 l 379 378 m 392 1000 l 628 1000 l 982 0 l 755 0 l 691 205 l 323 205 l 254 0 l 35 0 l 392 1000 m 509 1000 m 567 1290 l 744 1290 l 744 1129 l 567 1129 l 567 1290 m 296 1290 l 473 1290 l 473 1129 l 296 1129 l 296 1290 m 520 1036 m 268 1495 l 750 1495 l 750 1392 l 268 1392 l 268 1495 z "},"ǟ":{"ha":772,"x_min":40,"x_max":732,"o":"m 498 359 q 461 341 479 348 q 410 328 442 334 l 366 319 q 279 293 305 309 q 234 211 234 267 q 261 139 234 161 q 328 117 289 117 q 443 154 391 117 q 498 288 496 191 l 498 359 m 380 450 q 457 467 434 456 q 498 522 498 484 q 467 584 498 567 q 374 602 435 602 q 277 568 306 602 q 250 500 257 543 l 64 500 q 118 659 70 597 q 381 757 195 757 q 597 709 503 757 q 691 527 691 661 l 691 188 q 692 102 691 153 q 704 51 694 64 q 732 28 713 37 l 732 0 l 522 0 q 510 42 513 22 q 505 87 507 62 q 412 13 465 43 q 271 -23 350 -23 q 105 34 171 -23 q 40 197 40 92 q 145 394 40 333 q 315 441 203 427 l 380 450 m 391 759 m 447 1026 l 624 1026 l 624 865 l 447 865 l 447 1026 m 176 1026 l 353 1026 l 353 865 l 176 865 l 176 1026 m 400 772 m 149 1227 l 631 1227 l 631 1124 l 149 1124 l 149 1227 z "},"Ǡ":{"ha":1003,"x_min":35,"x_max":982,"o":"m 379 378 l 633 378 l 508 771 l 379 378 m 392 1000 l 628 1000 l 982 0 l 755 0 l 691 205 l 323 205 l 254 0 l 35 0 l 392 1000 m 509 1000 m 420 1285 l 597 1285 l 597 1124 l 420 1124 l 420 1285 m 509 1031 m 268 1495 l 750 1495 l 750 1392 l 268 1392 l 268 1495 z "},"ǡ":{"ha":772,"x_min":40,"x_max":732,"o":"m 498 359 q 461 341 479 348 q 410 328 442 334 l 366 319 q 279 293 305 309 q 234 211 234 267 q 261 139 234 161 q 328 117 289 117 q 443 154 391 117 q 498 288 496 191 l 498 359 m 380 450 q 457 467 434 456 q 498 522 498 484 q 467 584 498 567 q 374 602 435 602 q 277 568 306 602 q 250 500 257 543 l 64 500 q 118 659 70 597 q 381 757 195 757 q 597 709 503 757 q 691 527 691 661 l 691 188 q 692 102 691 153 q 704 51 694 64 q 732 28 713 37 l 732 0 l 522 0 q 510 42 513 22 q 505 87 507 62 q 412 13 465 43 q 271 -23 350 -23 q 105 34 171 -23 q 40 197 40 92 q 145 394 40 333 q 315 441 203 427 l 380 450 m 391 759 m 284 1021 l 460 1021 l 460 860 l 284 860 l 284 1021 m 372 767 m 134 1221 l 616 1221 l 616 1118 l 134 1118 l 134 1221 z "},"Ǣ":{"ha":1389,"x_min":12,"x_max":1331,"o":"m 601 826 l 511 826 l 357 376 l 601 376 l 601 826 m 376 996 l 1321 996 l 1321 823 l 806 823 l 806 608 l 1270 608 l 1270 437 l 806 437 l 806 176 l 1331 176 l 1331 0 l 601 0 l 601 212 l 302 212 l 229 0 l 12 0 l 376 996 m 548 1235 l 1030 1235 l 1030 1132 l 548 1132 l 548 1235 z "},"ǣ":{"ha":1235,"x_min":38,"x_max":1191,"o":"m 987 446 q 946 560 982 517 q 838 602 910 602 q 726 564 764 602 q 684 446 688 526 l 987 446 m 505 353 q 479 339 490 343 q 427 326 467 334 l 353 311 q 268 283 290 298 q 231 203 231 259 q 255 143 231 171 q 336 115 279 115 q 434 137 395 115 q 505 279 505 176 l 505 353 m 406 448 q 473 467 452 455 q 506 519 506 484 q 452 593 506 573 q 374 603 422 603 q 270 561 299 603 q 252 498 254 538 l 64 498 q 191 713 71 650 q 393 755 270 755 q 547 726 480 755 q 625 676 585 709 q 720 733 667 711 q 844 755 774 755 q 1149 570 1069 755 q 1187 321 1191 472 l 682 321 q 700 204 682 245 q 830 130 734 130 q 924 148 884 130 q 983 222 964 167 l 1179 222 q 1112 86 1171 154 q 837 -24 1015 -24 q 680 10 745 -24 q 578 99 614 45 q 458 5 528 35 q 297 -25 388 -25 q 99 41 160 -25 q 38 200 38 108 q 131 383 38 326 q 288 431 182 414 l 406 448 m 374 982 l 856 982 l 856 879 l 374 879 l 374 982 z "},"Ǥ":{"ha":1146,"x_min":37,"x_max":1122,"o":"m 559 193 l 559 329 l 772 329 q 781 370 778 349 l 550 370 l 550 536 l 966 536 l 966 329 l 1122 329 l 1122 193 l 966 193 l 966 0 l 828 0 l 807 125 q 699 24 747 54 q 495 -26 616 -26 q 170 111 296 -26 q 37 490 37 250 q 171 879 37 732 q 524 1025 304 1025 q 830 929 715 1025 q 963 688 946 832 l 758 688 q 642 831 734 790 q 527 853 590 853 q 329 762 406 853 q 251 488 251 671 q 335 227 251 303 q 526 150 419 150 q 676 193 614 150 l 559 193 z "},"ǥ":{"ha":954,"x_min":39,"x_max":933,"o":"m 451 740 q 565 633 522 711 l 565 739 l 753 739 l 753 437 l 933 437 l 933 301 l 753 301 l 753 38 q 705 -178 753 -105 q 387 -302 622 -302 q 156 -247 245 -302 q 57 -81 66 -191 l 267 -81 q 294 -130 275 -115 q 399 -156 325 -156 q 538 -86 503 -156 q 562 64 562 -41 l 562 112 q 502 41 534 64 q 352 -3 444 -3 q 124 97 210 -3 q 39 368 39 197 q 121 645 39 532 q 354 757 203 757 q 451 740 410 757 m 370 301 l 370 437 l 558 437 q 519 533 549 496 q 400 588 475 588 q 260 492 298 588 q 239 367 239 441 q 261 252 239 302 q 402 159 300 159 q 517 210 470 159 q 557 301 547 243 l 370 301 z "},"Ǧ":{"ha":1080,"x_min":58,"x_max":987,"o":"m 778 688 q 662 831 754 790 q 547 853 610 853 q 349 762 427 853 q 271 488 271 671 q 355 227 271 303 q 547 150 439 150 q 719 211 652 150 q 802 370 786 271 l 570 370 l 570 536 l 987 536 l 987 0 l 848 0 l 827 125 q 719 24 767 54 q 515 -26 636 -26 q 190 111 317 -26 q 58 490 58 250 q 191 879 58 732 q 545 1025 325 1025 q 851 929 735 1025 q 983 688 966 832 l 778 688 m 544 1025 m 459 1114 l 300 1317 l 457 1317 l 546 1202 l 634 1317 l 791 1317 l 633 1114 l 459 1114 m 546 1034 z "},"ǧ":{"ha":848,"x_min":45,"x_max":758,"o":"m 408 159 q 522 210 475 159 q 569 373 569 261 q 525 533 569 478 q 406 588 480 588 q 265 492 304 588 q 245 367 245 441 q 267 252 245 302 q 408 159 306 159 m 359 757 q 456 740 415 757 q 570 633 527 711 l 570 739 l 758 739 l 758 38 q 710 -178 758 -105 q 393 -302 627 -302 q 161 -247 251 -302 q 62 -81 72 -191 l 273 -81 q 299 -130 281 -115 q 404 -156 330 -156 q 544 -86 509 -156 q 567 64 567 -41 l 567 112 q 507 41 539 64 q 357 -3 450 -3 q 130 97 215 -3 q 45 368 45 197 q 127 645 45 532 q 359 757 209 757 m 421 759 m 274 868 l 115 1071 l 272 1071 l 361 956 l 449 1071 l 606 1071 l 448 868 l 274 868 m 361 788 z "},"Ǩ":{"ha":1003,"x_min":109,"x_max":991,"o":"m 109 1000 l 315 1000 l 315 588 l 701 1000 l 970 1000 l 561 588 l 991 0 l 723 0 l 414 437 l 315 334 l 315 0 l 109 0 l 109 1000 m 414 1078 l 254 1280 l 412 1280 l 500 1166 l 589 1280 l 746 1280 l 587 1078 l 414 1078 m 500 998 z "},"ǩ":{"ha":772,"x_min":88,"x_max":768,"o":"m 88 996 l 278 996 l 278 458 l 519 736 l 758 736 l 500 453 l 768 0 l 535 0 l 358 316 l 278 233 l 278 0 l 88 0 l 88 996 m 371 1048 l 212 1251 l 369 1251 l 458 1136 l 546 1251 l 703 1251 l 545 1048 l 371 1048 m 458 968 z "},"Ǫ":{"ha":1080,"x_min":68,"x_max":1027,"o":"m 548 149 q 745 241 672 149 q 818 501 818 332 q 745 761 818 669 q 548 853 672 853 q 350 762 424 853 q 276 501 276 670 q 350 241 276 332 q 548 149 424 149 m 1027 501 q 876 89 1027 232 q 548 -28 762 -28 q 220 89 334 -28 q 68 501 68 232 q 220 913 68 776 q 548 1030 334 1030 q 876 913 762 1030 q 1027 501 1027 776 m 548 1030 m 673 -13 l 627 -45 q 558 -104 581 -79 q 536 -158 536 -128 q 558 -207 536 -189 q 614 -225 581 -225 q 645 -221 629 -225 q 682 -210 661 -217 l 682 -307 q 631 -323 652 -319 q 549 -332 595 -332 q 432 -293 477 -332 q 387 -198 387 -253 q 444 -84 387 -136 q 551 -13 477 -54 l 673 -13 z "},"ǫ":{"ha":848,"x_min":45,"x_max":800,"o":"m 422 136 q 552 197 507 136 q 597 368 597 257 q 552 539 597 479 q 422 600 507 600 q 291 539 337 600 q 245 368 245 479 q 291 197 245 257 q 422 136 337 136 m 800 368 q 707 90 800 205 q 422 -26 613 -26 q 138 90 232 -26 q 45 368 45 205 q 138 646 45 528 q 422 763 232 763 q 707 646 613 763 q 800 368 800 528 m 422 759 m 511 -18 l 466 -50 q 397 -109 419 -84 q 374 -163 374 -133 q 397 -212 374 -194 q 452 -230 419 -230 q 484 -226 467 -230 q 521 -214 500 -222 l 521 -312 q 470 -328 490 -323 q 387 -337 433 -337 q 271 -297 316 -337 q 225 -203 225 -258 q 282 -89 225 -141 q 389 -18 315 -58 l 511 -18 z "},"Ǭ":{"ha":1080,"x_min":68,"x_max":1027,"o":"m 548 149 q 745 241 672 149 q 818 501 818 332 q 745 761 818 669 q 548 853 672 853 q 350 762 424 853 q 276 501 276 670 q 350 241 276 332 q 548 149 424 149 m 1027 501 q 876 89 1027 232 q 548 -28 762 -28 q 220 89 334 -28 q 68 501 68 232 q 220 913 68 776 q 548 1030 334 1030 q 876 913 762 1030 q 1027 501 1027 776 m 548 1030 m 660 -9 l 614 -42 q 545 -100 568 -76 q 523 -155 523 -125 q 545 -204 523 -186 q 601 -222 568 -222 q 632 -218 616 -222 q 669 -206 648 -214 l 669 -304 q 618 -320 639 -315 q 536 -329 582 -329 q 419 -289 465 -329 q 374 -195 374 -250 q 431 -81 374 -133 q 538 -9 464 -50 l 660 -9 m 300 1242 l 783 1242 l 783 1139 l 300 1139 l 300 1242 z "},"ǭ":{"ha":848,"x_min":45,"x_max":800,"o":"m 422 136 q 552 197 507 136 q 597 368 597 257 q 552 539 597 479 q 422 600 507 600 q 291 539 337 600 q 245 368 245 479 q 291 197 245 257 q 422 136 337 136 m 800 368 q 707 90 800 205 q 422 -26 613 -26 q 138 90 232 -26 q 45 368 45 205 q 138 646 45 528 q 422 763 232 763 q 707 646 613 763 q 800 368 800 528 m 422 759 m 532 -11 l 486 -43 q 417 -102 439 -77 q 395 -156 395 -126 q 417 -205 395 -187 q 473 -223 439 -223 q 504 -219 488 -223 q 541 -208 520 -215 l 541 -305 q 490 -321 511 -317 q 408 -330 454 -330 q 291 -291 336 -330 q 245 -196 245 -251 q 302 -82 245 -134 q 410 -11 336 -52 l 532 -11 m 182 970 l 664 970 l 664 867 l 182 867 l 182 970 z "},"Ǯ":{"ha":807,"x_min":22,"x_max":777,"o":"m 498 819 l 37 819 l 37 1000 l 777 1000 l 777 847 l 572 633 q 677 556 633 606 q 770 314 770 505 q 652 66 770 145 q 355 -12 534 -12 q 86 115 177 -12 q 22 281 29 193 l 220 281 q 254 186 226 223 q 351 150 283 150 q 507 194 446 150 q 568 319 568 237 q 549 456 568 404 q 437 497 517 487 l 436 496 l 183 497 l 498 819 m 332 1110 l 173 1313 l 330 1313 l 419 1198 l 507 1313 l 665 1313 l 506 1110 l 332 1110 z "},"ǯ":{"ha":741,"x_min":23,"x_max":709,"o":"m 431 555 l 38 555 l 38 736 l 709 736 l 709 583 l 505 369 q 610 292 566 342 q 703 40 703 231 q 605 -214 703 -129 q 329 -298 507 -298 q 87 -172 151 -298 q 23 -5 30 -93 l 220 -5 q 245 -100 227 -63 q 331 -136 263 -136 q 464 -86 427 -136 q 500 45 500 -37 q 481 192 500 130 q 370 233 450 223 l 369 232 l 184 233 l 431 555 m 299 839 l 140 1042 l 297 1042 l 386 927 l 474 1042 l 631 1042 l 473 839 l 299 839 z "},"ǰ":{"ha":386,"x_min":-50,"x_max":441,"o":"m 6 -142 q 29 -143 22 -143 q 41 -144 36 -144 q 84 -130 70 -144 q 99 -76 99 -116 l 99 736 l 292 736 l 292 -79 q 248 -245 292 -191 q 75 -298 204 -298 q 49 -298 66 -298 q 6 -296 32 -297 l 6 -142 m 109 846 l -50 1048 l 107 1048 l 196 934 l 284 1048 l 441 1048 l 283 846 l 109 846 m 196 766 z "},"Ǳ":{"ha":1744,"x_min":74,"x_max":1702,"o":"m 277 826 l 277 174 l 469 174 q 675 319 617 174 q 707 510 707 399 q 660 744 707 663 q 469 826 612 826 l 277 826 m 505 1000 q 659 978 597 998 q 829 851 764 943 q 901 690 882 777 q 920 524 920 603 q 840 186 920 325 q 505 0 731 0 l 74 0 l 74 1000 l 505 1000 m 924 176 l 1440 823 l 937 823 l 937 1000 l 1701 1000 l 1701 832 l 1178 176 l 1702 176 l 1702 0 l 924 0 l 924 176 m 1319 1000 z "},"ǲ":{"ha":1601,"x_min":71,"x_max":1560,"o":"m 273 826 l 273 174 l 466 174 q 672 319 614 174 q 704 510 704 399 q 656 744 704 663 q 466 826 608 826 l 273 826 m 501 1000 q 656 978 594 998 q 826 851 761 943 q 897 690 878 777 q 916 524 916 603 q 836 186 916 325 q 501 0 728 0 l 71 0 l 71 1000 l 501 1000 m 947 582 l 947 739 l 1547 739 l 1547 578 l 1172 159 l 1560 159 l 1560 0 l 922 0 l 922 151 l 1301 582 l 947 582 m 1247 759 z "},"ǳ":{"ha":1505,"x_min":43,"x_max":1470,"o":"m 363 757 q 482 727 430 757 q 567 646 534 698 l 567 998 l 763 998 l 763 0 l 575 0 l 575 102 q 481 7 534 37 q 349 -23 428 -23 q 131 82 220 -23 q 43 351 43 186 q 130 648 43 540 q 363 757 217 757 m 405 140 q 530 201 487 140 q 572 359 572 262 q 504 553 572 494 q 406 588 462 588 q 282 524 321 588 q 242 365 242 460 q 282 201 242 262 q 405 140 323 140 m 857 589 l 857 747 l 1457 747 l 1457 586 l 1082 166 l 1470 166 l 1470 7 l 831 7 l 831 158 l 1211 589 l 857 589 m 1157 766 z "},"Ǵ":{"ha":1080,"x_min":58,"x_max":987,"o":"m 778 688 q 662 831 754 790 q 547 853 610 853 q 349 762 427 853 q 271 488 271 671 q 355 227 271 303 q 547 150 439 150 q 719 211 652 150 q 802 370 786 271 l 570 370 l 570 536 l 987 536 l 987 0 l 848 0 l 827 125 q 719 24 767 54 q 515 -26 636 -26 q 190 111 317 -26 q 58 490 58 250 q 191 879 58 732 q 545 1025 325 1025 q 851 929 735 1025 q 983 688 966 832 l 778 688 m 544 1025 m 774 1328 l 568 1125 l 428 1125 l 558 1328 l 774 1328 m 543 1045 z "},"ǵ":{"ha":848,"x_min":45,"x_max":758,"o":"m 408 159 q 522 210 475 159 q 569 373 569 261 q 525 533 569 478 q 406 588 480 588 q 265 492 304 588 q 245 367 245 441 q 267 252 245 302 q 408 159 306 159 m 359 757 q 456 740 415 757 q 570 633 527 711 l 570 739 l 758 739 l 758 38 q 710 -178 758 -105 q 393 -302 627 -302 q 161 -247 251 -302 q 62 -81 72 -191 l 273 -81 q 299 -130 281 -115 q 404 -156 330 -156 q 544 -86 509 -156 q 567 64 567 -41 l 567 112 q 507 41 539 64 q 357 -3 450 -3 q 130 97 215 -3 q 45 368 45 197 q 127 645 45 532 q 359 757 209 757 m 421 759 m 620 1072 l 414 869 l 274 869 l 404 1072 l 620 1072 m 389 789 z "},"Ƿ":{"ha":926,"x_min":111,"x_max":876,"o":"m 513 826 l 318 826 l 318 328 l 513 464 q 628 557 587 511 q 669 682 669 604 q 628 793 669 760 q 513 826 587 826 m 530 292 l 318 156 l 318 0 l 111 0 l 111 1000 l 546 1000 q 786 922 696 1000 q 876 683 876 845 q 786 439 876 506 q 530 292 696 373 z "},"Ǹ":{"ha":1003,"x_min":102,"x_max":914,"o":"m 102 1000 l 321 1000 l 720 302 l 720 1000 l 914 1000 l 914 0 l 705 0 l 297 710 l 297 0 l 102 0 l 102 1000 m 516 1002 m 635 1079 l 496 1079 l 290 1282 l 505 1282 l 635 1079 m 521 999 z "},"ǹ":{"ha":848,"x_min":92,"x_max":760,"o":"m 500 757 q 687 697 614 757 q 760 498 760 637 l 760 0 l 562 0 l 562 450 q 547 539 562 508 q 438 596 518 596 q 303 513 340 596 q 284 400 284 469 l 284 0 l 92 0 l 92 738 l 278 738 l 278 630 q 349 712 315 687 q 500 757 408 757 m 429 759 m 563 865 l 423 865 l 218 1068 l 433 1068 l 563 865 m 448 785 z "},"Ǻ":{"ha":1003,"x_min":35,"x_max":982,"o":"m 379 378 l 633 378 l 508 771 l 379 378 m 392 1000 l 628 1000 l 982 0 l 755 0 l 691 205 l 323 205 l 254 0 l 35 0 l 392 1000 m 509 1000 m 428 1210 q 452 1153 428 1177 q 509 1130 475 1130 q 565 1153 542 1130 q 589 1210 589 1177 q 565 1267 589 1243 q 509 1291 542 1291 q 452 1267 475 1291 q 428 1210 428 1243 m 361 1210 q 404 1314 361 1271 q 509 1358 448 1358 q 613 1314 570 1358 q 656 1210 656 1271 q 613 1105 656 1149 q 509 1062 570 1062 q 404 1105 448 1062 q 361 1210 361 1149 m 509 990 m 760 1610 l 554 1407 l 414 1407 l 545 1610 l 760 1610 m 529 1327 z "},"ǻ":{"ha":772,"x_min":40,"x_max":732,"o":"m 498 359 q 461 341 479 348 q 410 328 442 334 l 366 319 q 279 293 305 309 q 234 211 234 267 q 261 139 234 161 q 328 117 289 117 q 443 154 391 117 q 498 288 496 191 l 498 359 m 380 450 q 457 467 434 456 q 498 522 498 484 q 467 584 498 567 q 374 602 435 602 q 277 568 306 602 q 250 500 257 543 l 64 500 q 118 659 70 597 q 381 757 195 757 q 597 709 503 757 q 691 527 691 661 l 691 188 q 692 102 691 153 q 704 51 694 64 q 732 28 713 37 l 732 0 l 522 0 q 510 42 513 22 q 505 87 507 62 q 412 13 465 43 q 271 -23 350 -23 q 105 34 171 -23 q 40 197 40 92 q 145 394 40 333 q 315 441 203 427 l 380 450 m 391 759 m 294 959 q 318 902 294 926 q 375 879 342 879 q 432 902 408 879 q 455 959 455 926 q 432 1016 455 992 q 375 1040 408 1040 q 318 1016 342 1040 q 294 959 294 992 m 227 959 q 271 1063 227 1020 q 375 1107 314 1107 q 479 1063 436 1107 q 523 959 523 1020 q 479 854 523 898 q 375 811 436 811 q 271 854 314 811 q 227 959 227 898 m 375 739 m 619 1367 l 413 1164 l 273 1164 l 404 1367 l 619 1367 m 388 1084 z "},"Ǽ":{"ha":1389,"x_min":12,"x_max":1331,"o":"m 601 826 l 511 826 l 357 376 l 601 376 l 601 826 m 376 996 l 1321 996 l 1321 823 l 806 823 l 806 608 l 1270 608 l 1270 437 l 806 437 l 806 176 l 1331 176 l 1331 0 l 601 0 l 601 212 l 302 212 l 229 0 l 12 0 l 376 996 m 1004 1273 l 798 1070 l 658 1070 l 788 1273 l 1004 1273 m 772 990 z "},"ǽ":{"ha":1235,"x_min":38,"x_max":1191,"o":"m 987 446 q 946 560 982 517 q 838 602 910 602 q 726 564 764 602 q 684 446 688 526 l 987 446 m 505 353 q 479 339 490 343 q 427 326 467 334 l 353 311 q 268 283 290 298 q 231 203 231 259 q 255 143 231 171 q 336 115 279 115 q 434 137 395 115 q 505 279 505 176 l 505 353 m 406 448 q 473 467 452 455 q 506 519 506 484 q 452 593 506 573 q 374 603 422 603 q 270 561 299 603 q 252 498 254 538 l 64 498 q 191 713 71 650 q 393 755 270 755 q 547 726 480 755 q 625 676 585 709 q 720 733 667 711 q 844 755 774 755 q 1149 570 1069 755 q 1187 321 1191 472 l 682 321 q 700 204 682 245 q 830 130 734 130 q 924 148 884 130 q 983 222 964 167 l 1179 222 q 1112 86 1171 154 q 837 -24 1015 -24 q 680 10 745 -24 q 578 99 614 45 q 458 5 528 35 q 297 -25 388 -25 q 99 41 160 -25 q 38 200 38 108 q 131 383 38 326 q 288 431 182 414 l 406 448 m 871 1046 l 665 843 l 526 843 l 656 1046 l 871 1046 m 640 763 z "},"Ǿ":{"ha":1080,"x_min":48,"x_max":1040,"o":"m 741 771 q 667 826 714 803 q 546 853 618 853 q 338 757 401 853 q 275 501 275 661 q 287 379 275 435 q 311 298 294 347 l 741 771 m 358 231 q 446 168 398 186 q 546 149 494 149 q 754 258 691 149 q 818 501 818 368 q 812 588 818 546 q 784 699 804 652 l 358 231 m 546 1030 q 720 1000 635 1030 q 871 914 805 970 l 982 1035 l 1040 980 l 926 853 q 995 723 964 806 q 1025 501 1025 636 q 892 118 1025 267 q 546 -28 760 -28 q 381 -2 463 -28 q 224 87 298 23 l 106 -39 l 48 16 l 172 144 q 102 278 132 197 q 67 501 67 374 q 215 904 67 736 q 546 1030 342 1030 m 778 1316 l 572 1114 l 432 1114 l 562 1316 l 778 1316 m 547 1034 z "},"ǿ":{"ha":848,"x_min":28,"x_max":817,"o":"m 548 548 q 476 591 524 578 q 419 600 447 600 q 292 539 338 600 q 245 372 245 478 q 250 306 245 339 q 267 249 255 273 l 548 548 m 302 189 q 349 151 330 161 q 428 135 380 135 q 554 200 511 135 q 597 366 597 265 q 594 421 597 399 q 582 487 591 442 l 302 189 m 800 374 q 697 84 800 195 q 414 -28 595 -28 q 255 2 325 -28 q 170 54 216 19 l 79 -42 l 28 0 l 125 98 q 61 234 78 161 q 45 368 45 307 q 144 650 45 537 q 408 763 243 763 q 564 742 505 763 q 675 680 624 722 l 768 778 l 817 732 l 720 631 q 782 506 764 572 q 800 374 800 439 m 650 1045 l 444 842 l 304 842 l 435 1045 l 650 1045 m 419 762 z "},"Ȁ":{"ha":1003,"x_min":35,"x_max":982,"o":"m 379 378 l 633 378 l 508 771 l 379 378 m 392 1000 l 628 1000 l 982 0 l 755 0 l 691 205 l 323 205 l 254 0 l 35 0 l 392 1000 m 509 1000 m 441 1093 l 309 1093 l 143 1291 l 340 1291 l 441 1093 m 638 1291 l 739 1093 l 606 1093 l 441 1291 l 638 1291 z "},"ȁ":{"ha":772,"x_min":37,"x_max":732,"o":"m 498 359 q 461 341 479 348 q 410 328 442 334 l 366 319 q 279 293 305 309 q 234 211 234 267 q 261 139 234 161 q 328 117 289 117 q 443 154 391 117 q 498 288 496 191 l 498 359 m 380 450 q 457 467 434 456 q 498 522 498 484 q 467 584 498 567 q 374 602 435 602 q 277 568 306 602 q 250 500 257 543 l 64 500 q 118 659 70 597 q 381 757 195 757 q 597 709 503 757 q 691 527 691 661 l 691 188 q 692 102 691 153 q 704 51 694 64 q 732 28 713 37 l 732 0 l 522 0 q 510 42 513 22 q 505 87 507 62 q 412 13 465 43 q 271 -23 350 -23 q 105 34 171 -23 q 40 197 40 92 q 145 394 40 333 q 315 441 203 427 l 380 450 m 391 759 m 335 865 l 202 865 l 37 1063 l 234 1063 l 335 865 m 532 1063 l 633 865 l 500 865 l 334 1063 l 532 1063 z "},"Ȃ":{"ha":1003,"x_min":35,"x_max":982,"o":"m 379 378 l 633 378 l 508 771 l 379 378 m 392 1000 l 628 1000 l 982 0 l 755 0 l 691 205 l 323 205 l 254 0 l 35 0 l 392 1000 m 509 1000 m 513 1272 q 678 1223 618 1272 q 747 1070 739 1174 l 656 1070 q 591 1155 646 1133 q 513 1168 559 1168 q 436 1155 467 1168 q 371 1070 380 1133 l 279 1070 q 349 1223 288 1174 q 513 1272 409 1272 z "},"ȃ":{"ha":772,"x_min":40,"x_max":732,"o":"m 498 359 q 461 341 479 348 q 410 328 442 334 l 366 319 q 279 293 305 309 q 234 211 234 267 q 261 139 234 161 q 328 117 289 117 q 443 154 391 117 q 498 288 496 191 l 498 359 m 380 450 q 457 467 434 456 q 498 522 498 484 q 467 584 498 567 q 374 602 435 602 q 277 568 306 602 q 250 500 257 543 l 64 500 q 118 659 70 597 q 381 757 195 757 q 597 709 503 757 q 691 527 691 661 l 691 188 q 692 102 691 153 q 704 51 694 64 q 732 28 713 37 l 732 0 l 522 0 q 510 42 513 22 q 505 87 507 62 q 412 13 465 43 q 271 -23 350 -23 q 105 34 171 -23 q 40 197 40 92 q 145 394 40 333 q 315 441 203 427 l 380 450 m 391 759 m 381 1063 q 546 1014 486 1063 q 615 861 606 964 l 524 861 q 458 945 514 923 q 381 958 427 958 q 304 945 335 958 q 239 861 248 923 l 147 861 q 216 1014 156 964 q 381 1063 277 1063 z "},"Ȅ":{"ha":926,"x_min":112,"x_max":869,"o":"m 845 823 l 316 823 l 316 610 l 802 610 l 802 437 l 316 437 l 316 180 l 869 180 l 869 0 l 112 0 l 112 1000 l 845 1000 l 845 823 m 427 1108 l 294 1108 l 128 1306 l 326 1306 l 427 1108 m 623 1306 l 724 1108 l 591 1108 l 426 1306 l 623 1306 z "},"ȅ":{"ha":772,"x_min":32,"x_max":734,"o":"m 382 600 q 278 557 315 600 q 231 444 241 515 l 532 444 q 485 560 527 520 q 382 600 444 600 m 382 759 q 548 724 474 759 q 670 615 622 690 q 726 463 713 549 q 732 316 734 412 l 227 316 q 296 160 231 205 q 393 132 336 132 q 490 166 452 132 q 526 217 510 184 l 723 217 q 654 83 715 151 q 389 -24 559 -24 q 140 66 248 -24 q 32 362 32 157 q 129 656 32 554 q 382 759 227 759 m 395 759 m 338 877 l 205 877 l 40 1075 l 237 1075 l 338 877 m 535 1075 l 636 877 l 503 877 l 338 1075 l 535 1075 z "},"Ȇ":{"ha":926,"x_min":112,"x_max":869,"o":"m 845 823 l 316 823 l 316 610 l 802 610 l 802 437 l 316 437 l 316 180 l 869 180 l 869 0 l 112 0 l 112 1000 l 845 1000 l 845 823 m 486 1310 q 650 1261 590 1310 q 720 1108 711 1212 l 628 1108 q 563 1193 618 1171 q 486 1206 532 1206 q 408 1193 439 1206 q 343 1108 353 1171 l 252 1108 q 321 1261 260 1212 q 486 1310 381 1310 z "},"ȇ":{"ha":772,"x_min":32,"x_max":734,"o":"m 382 600 q 278 557 315 600 q 231 444 241 515 l 532 444 q 485 560 527 520 q 382 600 444 600 m 382 759 q 548 724 474 759 q 670 615 622 690 q 726 463 713 549 q 732 316 734 412 l 227 316 q 296 160 231 205 q 393 132 336 132 q 490 166 452 132 q 526 217 510 184 l 723 217 q 654 83 715 151 q 389 -24 559 -24 q 140 66 248 -24 q 32 362 32 157 q 129 656 32 554 q 382 759 227 759 m 395 759 m 404 1060 q 569 1011 509 1060 q 638 858 629 962 l 547 858 q 481 943 537 920 q 404 956 450 956 q 327 943 358 956 q 262 858 271 920 l 170 858 q 239 1011 179 962 q 404 1060 300 1060 z "},"Ȉ":{"ha":386,"x_min":-154,"x_max":442,"o":"m 297 0 l 90 0 l 90 1000 l 297 1000 l 297 0 m 193 1019 m 144 1115 l 12 1115 l -154 1313 l 43 1313 l 144 1115 m 341 1313 l 442 1115 l 309 1115 l 144 1313 l 341 1313 z "},"ȉ":{"ha":386,"x_min":-157,"x_max":439,"o":"m 93 739 l 289 739 l 289 0 l 93 0 l 93 739 m 191 759 m 142 871 l 9 871 l -157 1069 l 41 1069 l 142 871 m 338 1069 l 439 871 l 307 871 l 141 1069 l 338 1069 z "},"Ȋ":{"ha":386,"x_min":-39,"x_max":429,"o":"m 297 0 l 90 0 l 90 1000 l 297 1000 l 297 0 m 193 1019 m 195 1317 q 359 1268 299 1317 q 429 1115 420 1219 l 337 1115 q 272 1200 328 1177 q 195 1213 241 1213 q 117 1200 149 1213 q 52 1115 62 1177 l -39 1115 q 30 1268 -31 1219 q 195 1317 90 1317 z "},"ȋ":{"ha":386,"x_min":-35,"x_max":433,"o":"m 93 739 l 289 739 l 289 0 l 93 0 l 93 739 m 191 759 m 199 1074 q 363 1025 303 1074 q 433 872 424 976 l 341 872 q 276 957 332 935 q 199 970 245 970 q 121 957 153 970 q 56 872 66 935 l -35 872 q 34 1025 -26 976 q 199 1074 94 1074 z "},"Ȍ":{"ha":1080,"x_min":68,"x_max":1027,"o":"m 548 149 q 745 241 672 149 q 818 501 818 332 q 745 761 818 669 q 548 853 672 853 q 350 762 424 853 q 276 501 276 670 q 350 241 276 332 q 548 149 424 149 m 1027 501 q 876 89 1027 232 q 548 -28 762 -28 q 220 89 334 -28 q 68 501 68 232 q 220 913 68 776 q 548 1030 334 1030 q 876 913 762 1030 q 1027 501 1027 776 m 548 1030 m 480 1139 l 347 1139 l 182 1337 l 379 1337 l 480 1139 m 677 1337 l 778 1139 l 645 1139 l 479 1337 l 677 1337 z "},"ȍ":{"ha":848,"x_min":45,"x_max":800,"o":"m 422 136 q 552 197 507 136 q 597 368 597 257 q 552 539 597 479 q 422 600 507 600 q 291 539 337 600 q 245 368 245 479 q 291 197 245 257 q 422 136 337 136 m 800 368 q 707 90 800 205 q 422 -26 613 -26 q 138 90 232 -26 q 45 368 45 205 q 138 646 45 528 q 422 763 232 763 q 707 646 613 763 q 800 368 800 528 m 422 759 m 355 881 l 222 881 l 57 1079 l 254 1079 l 355 881 m 552 1079 l 653 881 l 520 881 l 355 1079 l 552 1079 z "},"Ȏ":{"ha":1080,"x_min":68,"x_max":1027,"o":"m 548 149 q 745 241 672 149 q 818 501 818 332 q 745 761 818 669 q 548 853 672 853 q 350 762 424 853 q 276 501 276 670 q 350 241 276 332 q 548 149 424 149 m 1027 501 q 876 89 1027 232 q 548 -28 762 -28 q 220 89 334 -28 q 68 501 68 232 q 220 913 68 776 q 548 1030 334 1030 q 876 913 762 1030 q 1027 501 1027 776 m 548 1030 m 543 1334 q 707 1285 647 1334 q 777 1132 768 1236 l 685 1132 q 620 1217 675 1194 q 543 1230 589 1230 q 465 1217 496 1230 q 400 1132 410 1194 l 309 1132 q 378 1285 317 1236 q 543 1334 438 1334 z "},"ȏ":{"ha":848,"x_min":45,"x_max":800,"o":"m 422 136 q 552 197 507 136 q 597 368 597 257 q 552 539 597 479 q 422 600 507 600 q 291 539 337 600 q 245 368 245 479 q 291 197 245 257 q 422 136 337 136 m 800 368 q 707 90 800 205 q 422 -26 613 -26 q 138 90 232 -26 q 45 368 45 205 q 138 646 45 528 q 422 763 232 763 q 707 646 613 763 q 800 368 800 528 m 422 759 m 418 1074 q 583 1024 522 1074 q 652 871 643 975 l 560 871 q 495 956 551 934 q 418 969 464 969 q 340 956 372 969 q 275 871 285 934 l 184 871 q 253 1024 193 975 q 418 1074 313 1074 z "},"Ȑ":{"ha":1003,"x_min":111,"x_max":945,"o":"m 315 826 l 315 557 l 551 557 q 657 574 622 557 q 720 686 720 602 q 659 808 720 777 q 557 826 625 826 l 315 826 m 601 1000 q 763 974 706 998 q 859 904 819 950 q 910 820 891 866 q 929 715 929 774 q 893 575 929 644 q 774 477 857 506 q 872 398 844 450 q 901 242 901 347 l 901 175 q 907 82 901 106 q 945 25 915 43 l 945 0 l 715 0 q 701 54 705 33 q 692 140 693 96 l 691 233 q 656 360 690 328 q 530 392 623 392 l 315 392 l 315 0 l 111 0 l 111 1000 l 601 1000 m 409 1114 l 276 1114 l 111 1312 l 308 1312 l 409 1114 m 606 1312 l 707 1114 l 574 1114 l 408 1312 l 606 1312 z "},"ȑ":{"ha":541,"x_min":-58,"x_max":538,"o":"m 492 757 q 501 756 497 757 q 517 755 505 756 l 517 557 q 485 560 499 559 q 462 561 471 561 q 305 485 345 561 q 283 353 283 442 l 283 0 l 88 0 l 88 739 l 273 739 l 273 610 q 351 711 317 684 q 492 757 405 757 m 240 911 l 107 911 l -58 1109 l 139 1109 l 240 911 m 437 1109 l 538 911 l 405 911 l 239 1109 l 437 1109 z "},"Ȓ":{"ha":1003,"x_min":111,"x_max":945,"o":"m 315 826 l 315 557 l 551 557 q 657 574 622 557 q 720 686 720 602 q 659 808 720 777 q 557 826 625 826 l 315 826 m 601 1000 q 763 974 706 998 q 859 904 819 950 q 910 820 891 866 q 929 715 929 774 q 893 575 929 644 q 774 477 857 506 q 872 398 844 450 q 901 242 901 347 l 901 175 q 907 82 901 106 q 945 25 915 43 l 945 0 l 715 0 q 701 54 705 33 q 692 140 693 96 l 691 233 q 656 360 690 328 q 530 392 623 392 l 315 392 l 315 0 l 111 0 l 111 1000 l 601 1000 m 486 1309 q 650 1260 590 1309 q 720 1107 711 1211 l 628 1107 q 563 1192 618 1169 q 486 1204 532 1204 q 408 1192 439 1204 q 343 1107 353 1169 l 252 1107 q 321 1260 260 1211 q 486 1309 381 1309 z "},"ȓ":{"ha":541,"x_min":64,"x_max":532,"o":"m 492 757 q 501 756 497 757 q 517 755 505 756 l 517 557 q 485 560 499 559 q 462 561 471 561 q 305 485 345 561 q 283 353 283 442 l 283 0 l 88 0 l 88 739 l 273 739 l 273 610 q 351 711 317 684 q 492 757 405 757 m 298 1061 q 463 1012 402 1061 q 532 859 523 963 l 440 859 q 375 944 431 922 q 298 957 344 957 q 220 944 252 957 q 155 859 165 922 l 64 859 q 133 1012 73 963 q 298 1061 193 1061 z "},"Ȕ":{"ha":1003,"x_min":106,"x_max":909,"o":"m 106 1000 l 318 1000 l 318 385 q 342 235 318 282 q 508 151 380 151 q 673 235 635 151 q 697 385 697 282 l 697 1000 l 909 1000 l 909 385 q 860 137 909 226 q 508 -26 768 -26 q 155 137 248 -26 q 106 385 106 226 l 106 1000 m 508 1000 m 450 1125 l 317 1125 l 151 1323 l 349 1323 l 450 1125 m 646 1323 l 747 1125 l 614 1125 l 449 1323 l 646 1323 z "},"ȕ":{"ha":848,"x_min":62,"x_max":752,"o":"m 283 739 l 283 294 q 298 199 283 231 q 401 142 324 142 q 537 222 500 142 q 556 337 556 266 l 556 739 l 752 739 l 752 0 l 564 0 l 564 104 q 551 84 562 101 q 525 54 540 67 q 437 -1 479 14 q 338 -16 395 -16 q 117 102 174 -16 q 85 294 85 167 l 85 739 l 283 739 m 418 759 m 361 878 l 228 878 l 62 1076 l 260 1076 l 361 878 m 557 1076 l 659 878 l 526 878 l 360 1076 l 557 1076 z "},"Ȗ":{"ha":1003,"x_min":106,"x_max":909,"o":"m 106 1000 l 318 1000 l 318 385 q 342 235 318 282 q 508 151 380 151 q 673 235 635 151 q 697 385 697 282 l 697 1000 l 909 1000 l 909 385 q 860 137 909 226 q 508 -26 768 -26 q 155 137 248 -26 q 106 385 106 226 l 106 1000 m 508 1000 m 519 1320 q 684 1271 624 1320 q 753 1118 745 1221 l 662 1118 q 597 1202 652 1180 q 519 1215 566 1215 q 442 1202 473 1215 q 377 1118 387 1180 l 286 1118 q 355 1271 294 1221 q 519 1320 415 1320 z "},"ȗ":{"ha":848,"x_min":85,"x_max":752,"o":"m 283 739 l 283 294 q 298 199 283 231 q 401 142 324 142 q 537 222 500 142 q 556 337 556 266 l 556 739 l 752 739 l 752 0 l 564 0 l 564 104 q 551 84 562 101 q 525 54 540 67 q 437 -1 479 14 q 338 -16 395 -16 q 117 102 174 -16 q 85 294 85 167 l 85 739 l 283 739 m 418 759 m 433 1063 q 598 1014 538 1063 q 667 861 659 965 l 576 861 q 511 946 566 924 q 433 959 479 959 q 356 946 387 959 q 291 861 300 924 l 199 861 q 269 1014 208 965 q 433 1063 329 1063 z "},"Ș":{"ha":926,"x_min":58,"x_max":878,"o":"m 257 309 q 294 206 267 240 q 469 144 345 144 q 589 161 543 144 q 676 277 676 192 q 633 353 676 326 q 496 400 589 380 l 391 424 q 175 500 235 459 q 74 717 74 570 q 172 940 74 851 q 458 1029 269 1029 q 728 945 616 1029 q 845 702 840 861 l 644 702 q 566 830 639 792 q 444 855 517 855 q 315 823 363 855 q 267 732 267 790 q 315 652 267 678 q 445 610 345 634 l 617 569 q 788 496 730 542 q 878 292 878 426 q 773 65 878 155 q 477 -26 668 -26 q 170 63 281 -26 q 58 309 58 153 l 257 309 m 389 -414 q 458 -371 436 -401 q 483 -286 480 -340 l 389 -286 l 389 -124 l 557 -124 l 557 -264 q 547 -341 557 -300 q 510 -410 537 -381 q 443 -458 481 -441 q 389 -474 404 -474 l 389 -414 z "},"ș":{"ha":772,"x_min":45,"x_max":720,"o":"m 241 236 q 267 163 247 184 q 400 124 303 124 q 491 141 457 124 q 524 192 524 158 q 497 241 524 224 q 296 300 470 258 q 119 378 170 331 q 67 511 67 424 q 148 687 67 613 q 374 760 228 760 q 599 705 512 760 q 699 514 686 650 l 506 514 q 485 573 502 551 q 376 612 453 612 q 287 593 313 612 q 260 547 260 573 q 288 498 260 513 q 490 445 317 483 q 663 363 605 418 q 720 224 720 307 q 638 44 720 114 q 385 -25 556 -25 q 128 48 211 -25 q 45 236 45 122 l 241 236 m 315 -417 q 384 -373 361 -404 q 408 -288 406 -343 l 315 -288 l 315 -127 l 482 -127 l 482 -267 q 472 -343 482 -303 q 435 -413 463 -384 q 368 -460 407 -444 q 315 -477 329 -477 l 315 -417 z "},"Ț":{"ha":848,"x_min":22,"x_max":832,"o":"m 832 1000 l 832 823 l 533 823 l 533 0 l 323 0 l 323 823 l 22 823 l 22 1000 l 832 1000 m 357 -399 q 426 -355 404 -385 q 450 -270 448 -325 l 357 -270 l 357 -109 l 524 -109 l 524 -248 q 514 -325 524 -285 q 477 -395 505 -366 q 410 -442 449 -426 q 357 -458 371 -458 l 357 -399 z "},"ț":{"ha":463,"x_min":14,"x_max":429,"o":"m 14 595 l 14 732 l 117 732 l 117 939 l 309 939 l 309 732 l 429 732 l 429 595 l 309 595 l 309 204 q 320 148 309 159 q 391 136 332 136 q 409 137 399 136 q 429 138 419 137 l 429 -7 l 337 -10 q 150 37 200 -15 q 117 140 117 71 l 117 595 l 14 595 m 158 -399 q 227 -355 205 -385 q 252 -270 249 -325 l 158 -270 l 158 -109 l 326 -109 l 326 -248 q 316 -325 326 -285 q 279 -395 306 -366 q 211 -442 250 -426 q 158 -458 172 -458 l 158 -399 z "},"Ȝ":{"ha":922,"x_min":113,"x_max":859,"o":"m 690 493 l 690 495 q 686 493 687 494 l 690 493 m 465 142 q 614 193 560 142 q 661 307 661 233 q 469 441 661 441 q 454 441 465 441 q 429 439 443 440 q 401 438 415 439 q 377 436 387 437 l 377 613 q 581 640 533 615 q 629 730 629 662 q 619 782 629 759 q 590 821 609 805 l 590 820 q 537 846 568 837 q 467 856 505 856 q 393 840 427 856 q 263 728 359 825 l 263 729 l 125 861 q 317 1003 246 977 q 475 1029 388 1029 q 734 943 639 1029 q 829 720 829 859 q 741 536 829 618 q 825 454 795 501 q 859 301 859 394 q 830 174 859 233 q 751 67 802 115 q 629 -5 697 20 q 481 -31 561 -31 q 313 -3 388 -31 q 113 79 238 25 l 252 199 q 465 142 379 142 z "},"ȝ":{"ha":922,"x_min":113,"x_max":859,"o":"m 690 203 l 690 205 q 686 203 687 204 l 690 203 m 465 -148 q 614 -97 560 -148 q 661 18 661 -56 q 469 152 661 152 q 454 151 465 152 q 429 150 443 151 q 401 148 415 149 q 377 146 387 147 l 377 323 q 581 351 533 326 q 629 441 629 372 q 619 492 629 469 q 590 532 609 515 l 590 530 q 537 557 568 547 q 467 566 505 566 q 393 551 427 566 q 263 439 359 535 l 263 439 l 125 571 q 317 713 246 687 q 475 739 388 739 q 734 653 639 739 q 829 431 829 569 q 741 246 829 328 q 825 164 795 212 q 859 12 859 104 q 830 -116 859 -56 q 751 -222 802 -175 q 629 -295 697 -270 q 481 -320 561 -320 q 313 -292 388 -320 q 113 -211 238 -264 l 252 -90 q 465 -148 379 -148 z "},"Ȟ":{"ha":1003,"x_min":104,"x_max":909,"o":"m 104 0 l 104 1000 l 311 1000 l 311 618 l 702 618 l 702 1000 l 909 1000 l 909 0 l 702 0 l 702 446 l 311 446 l 311 0 l 104 0 m 422 1077 l 262 1280 l 420 1280 l 509 1165 l 597 1280 l 754 1280 l 595 1077 l 422 1077 m 509 997 z "},"ȟ":{"ha":848,"x_min":92,"x_max":758,"o":"m 498 758 q 622 734 566 758 q 714 662 678 711 q 751 577 745 621 q 758 434 758 533 l 758 0 l 561 0 l 561 450 q 541 546 561 509 q 440 597 514 597 q 324 546 363 597 q 284 400 284 495 l 284 0 l 92 0 l 92 996 l 284 996 l 284 643 q 381 733 326 707 q 498 758 437 758 m 354 1072 l 195 1274 l 352 1274 l 441 1160 l 529 1274 l 686 1274 l 528 1072 l 354 1072 m 441 991 z "},"Ƞ":{"ha":1003,"x_min":106,"x_max":909,"o":"m 909 -294 l 697 -294 l 697 589 q 673 739 697 692 q 507 823 635 823 q 342 739 380 823 q 318 589 318 692 l 318 -1 l 106 -1 l 106 589 l 106 604 l 106 1000 l 313 1000 l 313 968 q 507 1000 395 1000 q 860 837 767 1000 q 909 589 909 748 l 909 -294 z "},"Ȧ":{"ha":1003,"x_min":35,"x_max":982,"o":"m 379 378 l 633 378 l 508 771 l 379 378 m 392 1000 l 628 1000 l 982 0 l 755 0 l 691 205 l 323 205 l 254 0 l 35 0 l 392 1000 m 509 1000 m 427 1276 l 604 1276 l 604 1115 l 427 1115 l 427 1276 m 515 1022 z "},"ȧ":{"ha":772,"x_min":40,"x_max":732,"o":"m 498 359 q 461 341 479 348 q 410 328 442 334 l 366 319 q 279 293 305 309 q 234 211 234 267 q 261 139 234 161 q 328 117 289 117 q 443 154 391 117 q 498 288 496 191 l 498 359 m 380 450 q 457 467 434 456 q 498 522 498 484 q 467 584 498 567 q 374 602 435 602 q 277 568 306 602 q 250 500 257 543 l 64 500 q 118 659 70 597 q 381 757 195 757 q 597 709 503 757 q 691 527 691 661 l 691 188 q 692 102 691 153 q 704 51 694 64 q 732 28 713 37 l 732 0 l 522 0 q 510 42 513 22 q 505 87 507 62 q 412 13 465 43 q 271 -23 350 -23 q 105 34 171 -23 q 40 197 40 92 q 145 394 40 333 q 315 441 203 427 l 380 450 m 391 759 m 300 1039 l 476 1039 l 476 878 l 300 878 l 300 1039 m 388 785 z "},"Ȩ":{"ha":926,"x_min":112,"x_max":869,"o":"m 845 823 l 316 823 l 316 610 l 802 610 l 802 437 l 316 437 l 316 180 l 869 180 l 869 0 l 112 0 l 112 1000 l 845 1000 l 845 823 m 534 -81 q 622 -107 589 -81 q 654 -184 654 -134 q 604 -283 654 -247 q 473 -319 553 -319 q 389 -305 438 -319 q 326 -283 367 -298 l 352 -225 q 405 -240 391 -237 q 458 -248 437 -248 q 516 -231 498 -248 q 534 -195 534 -214 q 514 -155 534 -166 q 472 -143 494 -143 q 446 -146 459 -143 q 415 -155 432 -149 l 328 -75 l 468 0 l 542 0 l 482 -89 q 514 -82 505 -84 q 534 -81 524 -81 z "},"ȩ":{"ha":772,"x_min":32,"x_max":734,"o":"m 382 600 q 278 557 315 600 q 231 444 241 515 l 532 444 q 485 560 527 520 q 382 600 444 600 m 382 759 q 548 724 474 759 q 670 615 622 690 q 726 463 713 549 q 732 316 734 412 l 227 316 q 296 160 231 205 q 393 132 336 132 q 490 166 452 132 q 526 217 510 184 l 723 217 q 654 83 715 151 q 389 -24 559 -24 q 140 66 248 -24 q 32 362 32 157 q 129 656 32 554 q 382 759 227 759 m 395 759 m 427 -97 q 514 -124 481 -97 q 547 -201 547 -151 q 496 -299 547 -263 q 365 -336 445 -336 q 281 -321 330 -336 q 218 -300 259 -315 l 244 -241 q 297 -256 283 -253 q 350 -264 330 -264 q 408 -247 391 -264 q 426 -211 426 -230 q 406 -171 426 -182 q 364 -159 387 -159 q 338 -162 351 -159 q 307 -171 324 -165 l 220 -92 l 360 -16 l 434 -16 l 374 -105 q 406 -99 397 -100 q 427 -97 416 -97 z "},"Ȫ":{"ha":1080,"x_min":68,"x_max":1027,"o":"m 548 149 q 745 241 672 149 q 818 501 818 332 q 745 761 818 669 q 548 853 672 853 q 350 762 424 853 q 276 501 276 670 q 350 241 276 332 q 548 149 424 149 m 1027 501 q 876 89 1027 232 q 548 -28 762 -28 q 220 89 334 -28 q 68 501 68 232 q 220 913 68 776 q 548 1030 334 1030 q 876 913 762 1030 q 1027 501 1027 776 m 548 1030 m 588 1278 l 765 1278 l 765 1118 l 588 1118 l 588 1278 m 317 1278 l 494 1278 l 494 1118 l 317 1118 l 317 1278 m 541 1025 m 303 1452 l 785 1452 l 785 1349 l 303 1349 l 303 1452 z "},"ȫ":{"ha":848,"x_min":45,"x_max":800,"o":"m 422 136 q 552 197 507 136 q 597 368 597 257 q 552 539 597 479 q 422 600 507 600 q 291 539 337 600 q 245 368 245 479 q 291 197 245 257 q 422 136 337 136 m 800 368 q 707 90 800 205 q 422 -26 613 -26 q 138 90 232 -26 q 45 368 45 205 q 138 646 45 528 q 422 763 232 763 q 707 646 613 763 q 800 368 800 528 m 422 759 m 470 1015 l 647 1015 l 647 854 l 470 854 l 470 1015 m 199 1015 l 376 1015 l 376 854 l 199 854 l 199 1015 m 423 761 m 178 1192 l 660 1192 l 660 1088 l 178 1088 l 178 1192 z "},"Ȭ":{"ha":1080,"x_min":68,"x_max":1027,"o":"m 548 149 q 745 241 672 149 q 818 501 818 332 q 745 761 818 669 q 548 853 672 853 q 350 762 424 853 q 276 501 276 670 q 350 241 276 332 q 548 149 424 149 m 1027 501 q 876 89 1027 232 q 548 -28 762 -28 q 220 89 334 -28 q 68 501 68 232 q 220 913 68 776 q 548 1030 334 1030 q 876 913 762 1030 q 1027 501 1027 776 m 548 1030 m 461 1257 q 497 1253 479 1257 q 527 1244 515 1249 l 591 1221 q 628 1208 619 1211 q 648 1206 637 1206 q 693 1223 680 1206 q 713 1264 707 1240 l 803 1264 q 754 1145 791 1193 q 648 1097 718 1097 q 589 1107 627 1097 q 546 1119 566 1112 l 491 1137 q 469 1143 479 1141 q 447 1145 458 1145 q 405 1130 421 1145 q 382 1087 389 1114 l 294 1087 q 332 1193 309 1157 q 461 1257 376 1257 m 549 998 m 314 1435 l 796 1435 l 796 1332 l 314 1332 l 314 1435 z "},"ȭ":{"ha":848,"x_min":45,"x_max":800,"o":"m 422 136 q 552 197 507 136 q 597 368 597 257 q 552 539 597 479 q 422 600 507 600 q 291 539 337 600 q 245 368 245 479 q 291 197 245 257 q 422 136 337 136 m 800 368 q 707 90 800 205 q 422 -26 613 -26 q 138 90 232 -26 q 45 368 45 205 q 138 646 45 528 q 422 763 232 763 q 707 646 613 763 q 800 368 800 528 m 422 759 m 338 1028 q 374 1024 357 1028 q 404 1015 392 1020 l 468 991 q 505 979 496 982 q 525 977 514 977 q 571 994 557 977 q 590 1035 584 1011 l 680 1035 q 632 916 668 964 q 526 867 595 867 q 466 878 505 867 q 423 890 444 883 l 368 908 q 346 914 357 912 q 324 916 335 916 q 282 901 298 916 q 259 858 266 885 l 171 858 q 210 964 186 928 q 338 1028 253 1028 m 426 768 m 181 1222 l 663 1222 l 663 1119 l 181 1119 l 181 1222 z "},"Ȯ":{"ha":1080,"x_min":68,"x_max":1027,"o":"m 548 149 q 745 241 672 149 q 818 501 818 332 q 745 761 818 669 q 548 853 672 853 q 350 762 424 853 q 276 501 276 670 q 350 241 276 332 q 548 149 424 149 m 1027 501 q 876 89 1027 232 q 548 -28 762 -28 q 220 89 334 -28 q 68 501 68 232 q 220 913 68 776 q 548 1030 334 1030 q 876 913 762 1030 q 1027 501 1027 776 m 548 1030 m 455 1295 l 631 1295 l 631 1134 l 455 1134 l 455 1295 m 543 1041 z "},"ȯ":{"ha":848,"x_min":45,"x_max":800,"o":"m 422 136 q 552 197 507 136 q 597 368 597 257 q 552 539 597 479 q 422 600 507 600 q 291 539 337 600 q 245 368 245 479 q 291 197 245 257 q 422 136 337 136 m 800 368 q 707 90 800 205 q 422 -26 613 -26 q 138 90 232 -26 q 45 368 45 205 q 138 646 45 528 q 422 763 232 763 q 707 646 613 763 q 800 368 800 528 m 422 759 m 332 1039 l 508 1039 l 508 878 l 332 878 l 332 1039 m 420 785 z "},"Ȱ":{"ha":1080,"x_min":68,"x_max":1027,"o":"m 548 149 q 745 241 672 149 q 818 501 818 332 q 745 761 818 669 q 548 853 672 853 q 350 762 424 853 q 276 501 276 670 q 350 241 276 332 q 548 149 424 149 m 1027 501 q 876 89 1027 232 q 548 -28 762 -28 q 220 89 334 -28 q 68 501 68 232 q 220 913 68 776 q 548 1030 334 1030 q 876 913 762 1030 q 1027 501 1027 776 m 548 1030 m 456 1264 l 632 1264 l 632 1103 l 456 1103 l 456 1264 m 544 1010 m 311 1434 l 793 1434 l 793 1331 l 311 1331 l 311 1434 z "},"ȱ":{"ha":848,"x_min":45,"x_max":800,"o":"m 422 136 q 552 197 507 136 q 597 368 597 257 q 552 539 597 479 q 422 600 507 600 q 291 539 337 600 q 245 368 245 479 q 291 197 245 257 q 422 136 337 136 m 800 368 q 707 90 800 205 q 422 -26 613 -26 q 138 90 232 -26 q 45 368 45 205 q 138 646 45 528 q 422 763 232 763 q 707 646 613 763 q 800 368 800 528 m 422 759 m 337 1006 l 513 1006 l 513 845 l 337 845 l 337 1006 m 425 752 m 182 1180 l 664 1180 l 664 1077 l 182 1077 l 182 1180 z "},"Ȳ":{"ha":926,"x_min":24,"x_max":913,"o":"m 676 1000 l 913 1000 l 578 376 l 578 0 l 370 0 l 370 376 l 24 1000 l 270 1000 l 477 564 l 676 1000 m 469 1000 m 227 1198 l 709 1198 l 709 1095 l 227 1095 l 227 1198 z "},"ȳ":{"ha":772,"x_min":14,"x_max":749,"o":"m 120 -142 l 144 -143 q 199 -141 173 -144 q 242 -125 224 -138 q 274 -77 259 -114 q 286 -33 288 -41 l 14 739 l 229 739 l 391 194 l 543 739 l 749 739 l 495 12 q 379 -249 422 -198 q 208 -299 336 -299 q 167 -299 182 -299 q 120 -296 151 -298 l 120 -142 m 382 759 m 146 965 l 629 965 l 629 862 l 146 862 l 146 965 z "},"ȷ":{"ha":386,"x_min":6,"x_max":292,"o":"m 6 -142 q 29 -143 22 -143 q 41 -144 36 -144 q 84 -130 70 -144 q 99 -76 99 -116 l 99 736 l 292 736 l 292 -79 q 248 -245 292 -191 q 75 -298 204 -298 q 49 -298 66 -298 q 6 -296 32 -297 l 6 -142 z "},"ȸ":{"ha":1335,"x_min":44,"x_max":1291,"o":"m 1291 379 q 1209 94 1291 207 q 982 -20 1128 -20 q 835 17 890 -20 q 764 91 802 38 l 764 0 l 574 0 l 574 98 q 482 7 533 35 q 351 -23 429 -23 q 133 82 221 -23 q 44 351 44 186 q 131 648 44 540 q 364 757 218 757 q 484 727 431 757 q 568 646 536 698 l 568 998 l 766 998 l 766 643 q 847 722 803 694 q 980 755 899 755 q 1208 650 1126 755 q 1291 379 1291 545 m 574 359 q 505 553 574 494 q 408 588 463 588 q 283 524 323 588 q 243 365 243 460 q 284 201 243 262 q 406 140 324 140 q 531 201 488 140 q 574 349 572 258 l 574 359 m 1088 359 q 1067 489 1088 437 q 925 587 1029 587 q 781 491 820 587 q 764 426 769 463 l 764 303 q 802 202 773 245 q 930 140 844 140 q 1046 200 1005 140 q 1088 359 1088 260 z "},"ȹ":{"ha":1337,"x_min":45,"x_max":1292,"o":"m 1292 379 q 1204 81 1292 184 q 978 -21 1116 -21 q 831 23 890 -21 q 769 94 800 47 l 769 -291 l 762 -291 l 762 -293 l 571 -293 l 571 92 q 497 12 549 47 q 353 -23 444 -23 q 135 79 225 -23 q 45 353 45 182 q 135 648 45 537 q 359 758 226 758 q 508 713 451 758 q 576 628 541 687 l 576 738 l 578 738 l 578 739 l 763 739 l 763 630 q 829 706 794 678 q 983 755 894 755 q 1202 660 1112 755 q 1292 379 1292 564 m 549 228 q 576 370 576 284 q 553 492 576 438 q 408 588 512 588 q 291 532 335 588 q 246 361 246 475 q 267 235 246 284 q 408 142 304 142 q 549 228 507 142 m 927 587 q 783 487 822 587 q 762 353 762 434 q 831 172 762 224 q 927 141 871 141 q 1050 203 1008 141 q 1093 370 1093 266 q 1054 521 1093 455 q 927 587 1015 587 z "},"Ⱥ":{"ha":1003,"x_min":35,"x_max":982,"o":"m 379 378 l 633 378 l 508 771 l 379 378 m 392 1000 l 628 1000 l 982 0 l 755 0 l 691 205 l 323 205 l 254 0 l 35 0 l 392 1000 m 718 1177 l 879 1177 l 490 -146 l 331 -146 l 718 1177 z "},"Ȼ":{"ha":1003,"x_min":62,"x_max":951,"o":"m 650 1173 l 811 1173 l 751 968 q 882 853 830 927 q 951 667 947 760 l 743 667 q 692 772 723 736 l 509 153 q 522 153 515 153 q 690 224 632 153 q 743 340 722 263 l 949 340 q 811 75 922 177 q 525 -28 699 -28 q 457 -24 490 -28 l 422 -142 l 263 -142 l 310 16 q 186 111 239 50 q 62 492 62 250 q 203 895 62 753 q 513 1019 325 1019 q 603 1013 561 1019 l 650 1173 m 522 840 q 342 748 408 840 q 276 488 276 656 q 345 236 276 320 q 368 212 356 223 l 552 839 q 522 840 537 840 z "},"ȼ":{"ha":772,"x_min":48,"x_max":730,"o":"m 515 895 l 675 895 l 605 707 q 625 694 615 701 q 730 474 713 632 l 532 474 q 526 500 530 487 l 389 136 q 399 136 394 136 q 496 173 467 136 q 530 268 524 210 l 728 268 q 664 101 721 180 q 395 -26 573 -26 q 330 -22 360 -26 l 287 -136 l 127 -136 l 189 27 q 132 80 157 49 q 48 355 48 186 q 141 651 48 545 q 397 757 234 757 q 461 753 431 757 l 515 895 m 269 496 q 250 359 250 445 q 267 235 250 283 l 401 593 q 269 496 304 593 z "},"Ƚ":{"ha":848,"x_min":-10,"x_max":810,"o":"m 810 0 l 106 0 l 106 452 l -10 449 l -10 581 l 106 581 l 106 1000 l 315 1000 l 315 581 l 521 581 l 521 454 l 315 453 l 315 180 l 810 180 l 810 0 z "},"Ⱦ":{"ha":848,"x_min":22,"x_max":832,"o":"m 671 1173 l 831 1173 l 749 1000 l 832 1000 l 832 823 l 665 823 l 533 545 l 533 0 l 323 0 l 323 104 l 205 -142 l 46 -142 l 323 440 l 323 823 l 22 823 l 22 1000 l 589 1000 l 671 1173 z "},"Ɂ":{"ha":848,"x_min":83,"x_max":771,"o":"m 218 958 q 415 1010 298 1010 q 670 937 568 1010 q 771 720 771 863 q 727 571 771 631 q 628 477 701 534 l 580 440 q 528 369 541 410 q 519 0 519 343 l 336 0 q 357 447 340 404 q 448 548 375 491 l 498 587 q 537 627 522 605 q 564 709 564 664 q 534 803 564 760 q 424 845 504 845 q 312 793 345 845 q 279 684 279 741 l 83 684 q 218 958 92 878 z "},"ɂ":{"ha":848,"x_min":83,"x_max":771,"o":"m 218 711 q 415 763 298 763 q 670 690 568 763 q 771 473 771 616 q 727 324 771 385 q 628 231 701 288 l 580 193 q 528 122 541 163 q 519 0 519 164 l 336 0 q 357 200 340 157 q 448 301 375 244 l 498 340 q 537 380 522 358 q 564 462 564 417 q 534 556 564 513 q 424 598 504 598 q 312 546 345 598 q 279 437 279 494 l 83 437 q 218 711 92 631 z "},"Ƀ":{"ha":1060,"x_min":39,"x_max":1006,"o":"m 928 893 q 974 741 974 829 q 928 593 974 649 q 852 536 902 562 q 967 448 928 509 q 1006 302 1006 388 q 962 142 1006 213 q 890 64 933 96 q 777 14 842 27 q 635 0 711 0 l 182 0 l 182 237 l 39 237 l 39 373 l 182 373 l 182 1000 l 667 1000 q 928 893 851 997 m 521 373 l 521 237 l 381 237 l 381 174 l 627 174 q 729 191 692 174 q 795 316 795 224 q 731 423 795 394 q 630 440 695 439 l 381 440 l 381 373 l 521 373 m 381 826 l 381 606 l 627 606 q 733 630 692 606 q 774 718 774 655 q 720 810 774 788 q 601 826 673 826 l 381 826 z "},"Ʉ":{"ha":1156,"x_min":39,"x_max":1117,"o":"m 1117 712 l 1117 576 l 981 576 l 981 385 q 932 137 981 226 q 580 -26 840 -26 q 227 137 320 -26 q 178 385 178 226 l 178 576 l 39 576 l 39 712 l 178 712 l 178 1000 l 390 1000 l 390 712 l 769 712 l 769 1000 l 981 1000 l 981 712 l 1117 712 m 414 235 q 580 151 452 151 q 745 235 707 151 q 769 385 769 282 l 769 576 l 390 576 l 390 385 q 414 235 390 282 z "},"Ʌ":{"ha":926,"x_min":32,"x_max":908,"o":"m 472 759 l 255 0 l 32 0 l 370 1000 l 567 1000 l 908 0 l 691 0 l 472 759 z "},"Ɇ":{"ha":926,"x_min":112,"x_max":869,"o":"m 583 1173 l 743 1173 l 692 1000 l 845 1000 l 845 823 l 640 823 l 577 610 l 802 610 l 802 437 l 526 437 l 450 180 l 869 180 l 869 0 l 397 0 l 355 -142 l 195 -142 l 237 0 l 112 0 l 112 1000 l 532 1000 l 583 1173 m 316 610 l 417 610 l 479 823 l 316 823 l 316 610 m 316 267 l 366 437 l 316 437 l 316 267 z "},"ɇ":{"ha":772,"x_min":32,"x_max":734,"o":"m 494 895 l 655 895 l 583 704 q 670 615 634 671 q 726 463 713 549 q 732 316 734 412 l 437 316 l 368 134 q 393 132 380 132 q 490 166 452 132 q 526 217 510 184 l 723 217 q 654 83 715 151 q 389 -24 559 -24 q 311 -17 349 -24 l 267 -136 l 107 -136 l 174 41 q 140 66 156 52 q 32 362 32 157 q 129 656 32 554 q 382 759 227 759 q 441 755 413 759 l 494 895 m 231 444 l 325 444 l 383 600 l 382 600 q 278 557 315 600 q 231 444 241 515 m 243 227 l 277 316 l 227 316 q 243 227 229 264 m 532 444 q 514 519 529 488 l 485 444 l 532 444 z "},"Ɉ":{"ha":772,"x_min":31,"x_max":775,"o":"m 775 732 l 775 596 l 671 596 l 671 304 q 627 102 671 176 q 358 -24 553 -24 q 97 78 163 -24 q 31 356 31 180 l 31 379 l 228 379 l 228 356 q 253 193 231 240 q 351 146 276 146 q 448 197 425 146 q 463 300 463 228 l 463 596 l 348 596 l 348 732 l 463 732 l 463 1000 l 671 1000 l 671 732 l 775 732 z "},"ɉ":{"ha":386,"x_min":-9,"x_max":418,"o":"m 418 393 l 418 257 l 292 257 l 292 -79 q 248 -245 292 -191 q 75 -298 204 -298 q 49 -298 66 -298 q 6 -296 32 -297 l 6 -142 q 29 -143 22 -143 q 41 -144 36 -144 q 84 -130 70 -144 q 99 -76 99 -116 l 99 257 l -9 257 l -9 393 l 99 393 l 99 736 l 292 736 l 292 393 l 418 393 m 292 827 l 99 827 l 99 1006 l 292 1006 l 292 827 z "},"Ɋ":{"ha":1145,"x_min":50,"x_max":1120,"o":"m 1120 -153 q 1118 -237 1120 -200 q 1117 -269 1118 -254 q 1116 -296 1117 -284 q 1115 -315 1116 -308 q 1112 -323 1114 -323 q 843 -197 918 -323 q 799 5 799 -122 l 799 41 q 529 -28 694 -28 q 201 89 315 -28 q 50 501 50 232 q 201 913 50 776 q 529 1030 315 1030 q 799 961 694 1030 l 799 1000 l 1008 1000 l 1008 2 q 1022 -101 1008 -71 q 1120 -153 1046 -153 m 259 501 q 332 241 259 332 q 529 149 405 149 q 727 241 653 149 q 799 448 789 317 l 799 554 q 727 762 789 685 q 529 853 653 853 q 332 761 405 853 q 259 501 259 669 z "},"ɋ":{"ha":915,"x_min":50,"x_max":891,"o":"m 891 -296 q 848 -298 865 -297 q 822 -298 831 -298 q 649 -245 693 -298 q 605 -79 605 -191 l 605 7 q 427 -26 530 -26 q 143 90 237 -26 q 50 368 50 205 q 143 646 50 528 q 427 763 237 763 q 605 728 530 763 l 605 736 l 798 736 l 798 -76 q 813 -130 798 -116 q 856 -144 827 -144 q 868 -143 861 -144 q 891 -142 875 -143 l 891 -296 m 252 368 q 298 197 252 257 q 428 136 343 136 q 558 197 513 136 q 604 368 604 257 q 558 539 604 479 q 428 600 513 600 q 298 539 343 600 q 252 368 252 479 z "},"Ɍ":{"ha":1073,"x_min":40,"x_max":1018,"o":"m 932 904 q 983 820 964 866 q 1002 715 1002 774 q 966 575 1002 644 q 848 477 930 506 q 946 398 917 450 q 975 242 975 347 l 975 175 q 980 82 975 106 q 1018 25 988 43 l 1018 0 l 788 0 q 774 54 779 33 q 766 140 766 96 l 764 233 q 729 360 763 328 q 604 392 696 392 l 388 392 l 388 0 l 184 0 l 184 392 l 40 392 l 40 557 l 184 557 l 184 1000 l 674 1000 q 836 974 779 998 q 932 904 892 950 m 388 826 l 388 557 l 625 557 q 730 574 695 557 q 793 686 793 602 q 732 808 793 777 q 631 826 699 826 l 388 826 z "},"ɍ":{"ha":610,"x_min":29,"x_max":580,"o":"m 511 373 l 511 237 l 345 237 l 345 0 l 151 0 l 151 237 l 29 237 l 29 373 l 151 373 l 151 739 l 335 739 l 335 610 q 413 711 380 684 q 554 757 467 757 q 563 756 559 757 q 580 755 567 756 l 580 557 q 547 560 562 559 q 524 561 533 561 q 368 485 408 561 q 345 373 348 447 l 511 373 z "},"Ɏ":{"ha":1065,"x_min":24,"x_max":1042,"o":"m 1042 861 l 1042 725 l 823 725 l 636 376 l 636 0 l 427 0 l 427 376 l 233 725 l 24 725 l 24 861 l 158 861 l 81 1000 l 328 1000 l 393 861 l 671 861 l 734 1000 l 970 1000 l 896 861 l 1042 861 m 535 564 l 608 725 l 458 725 l 535 564 z "},"ɏ":{"ha":918,"x_min":40,"x_max":901,"o":"m 901 522 l 901 386 l 699 386 l 568 12 q 452 -249 495 -198 q 281 -299 410 -299 q 240 -299 256 -299 q 193 -296 224 -298 l 193 -142 l 218 -143 q 272 -141 246 -144 q 315 -125 298 -138 q 347 -77 332 -114 q 359 -33 361 -41 l 212 386 l 40 386 l 40 522 l 163 522 l 87 739 l 302 739 l 366 522 l 555 522 l 616 739 l 822 739 l 746 522 l 901 522 m 464 194 l 517 386 l 407 386 l 464 194 z "},"ɐ":{"ha":772,"x_min":39,"x_max":732,"o":"m 274 374 q 311 393 292 386 q 362 406 330 400 l 406 414 q 493 441 467 425 q 538 523 538 467 q 510 594 538 572 q 444 616 483 616 q 329 580 381 616 q 274 446 276 543 l 274 374 m 391 284 q 315 267 338 277 q 273 212 273 250 q 305 150 273 167 q 397 132 336 132 q 494 166 466 132 q 522 234 515 191 l 708 234 q 654 75 702 137 q 391 -23 577 -23 q 175 25 269 -23 q 81 207 81 73 l 81 546 q 79 631 81 581 q 68 683 77 669 q 39 705 58 696 l 39 734 l 250 734 q 262 692 258 711 q 267 647 265 672 q 359 721 307 690 q 500 757 422 757 q 666 700 601 757 q 732 537 732 642 q 627 340 732 401 q 457 292 569 307 l 391 284 z "},"ɑ":{"ha":822,"x_min":40,"x_max":729,"o":"m 534 650 l 534 729 l 729 729 l 729 0 l 529 0 l 529 89 q 433 9 486 35 q 313 -17 380 -17 q 116 104 192 -17 q 40 367 40 225 q 123 627 40 513 q 335 741 205 741 q 443 719 396 741 q 534 650 490 697 m 390 589 q 276 522 317 589 q 235 364 235 456 q 275 205 235 272 q 390 139 315 139 q 496 205 458 139 q 533 364 533 272 q 496 522 533 456 q 390 589 460 589 z "},"ɒ":{"ha":822,"x_min":40,"x_max":729,"o":"m 235 73 l 235 -6 l 40 -6 l 40 723 l 240 723 l 240 634 q 336 714 283 688 q 456 740 389 740 q 653 619 577 740 q 729 356 729 498 q 646 96 729 210 q 434 -18 564 -18 q 326 4 373 -18 q 235 73 279 26 m 379 134 q 493 201 452 134 q 534 359 534 267 q 494 517 534 451 q 379 584 454 584 q 273 517 311 584 q 236 359 236 451 q 273 201 236 267 q 379 134 309 134 z "}}}
